<?xml version="1.0" encoding="UTF-8"?>
<svg width="22px" height="21px" viewBox="0 0 22 21" version="1.1" xmlns="http://www.w3.org/2000/svg" xmlns:xlink="http://www.w3.org/1999/xlink">
    <!-- Generator: Sketch 52.3 (67297) - http://www.bohemiancoding.com/sketch -->
    <title>Fill 1</title>
    <desc>Created with Sketch.</desc>
    <g id="Landing-page" stroke="none" stroke-width="1" fill="none" fill-rule="evenodd">
        <g id="FAQ" transform="translate(-688.000000, -2930.000000)" fill="#0DCCBE">
            <path d="M708.210861,2932.13038 L708.110084,2932.0296 C705.842993,2929.83516 702.214241,2929.85625 699.977617,2932.09678 L689.620244,2942.4565 C688.839027,2943.23772 688,2944.65719 688,2945.92979 C688,2947.12271 688.467168,2948.24532 689.309319,2949.08825 C690.154596,2949.93353 691.277205,2950.39991 692.474029,2950.39991 C693.670072,2950.39679 694.792681,2949.93353 695.637957,2949.08825 L704.579765,2940.14644 C705.193021,2939.53006 705.528944,2938.67854 705.50082,2937.80904 C705.470353,2937.00986 705.143804,2936.25911 704.579765,2935.69429 C703.984478,2935.099 703.193887,2934.77245 702.351735,2934.77245 C701.512708,2934.77245 700.722117,2935.099 700.126829,2935.69429 L693.282588,2942.54243 C693.108377,2942.71274 693.00135,2942.94789 693.00135,2943.21038 C693.00135,2943.7291 693.420083,2944.14705 693.938811,2944.14705 C694.198175,2944.14705 694.429415,2944.04393 694.600501,2943.87285 L694.600501,2943.87597 L701.454898,2937.01845 C701.698638,2936.77471 702.037686,2936.65518 702.372828,2936.66143 C702.696252,2936.66456 703.020457,2936.78643 703.254822,2937.02158 C703.483718,2937.24735 703.614963,2937.5528 703.627462,2937.8731 C703.639962,2938.23012 703.505592,2938.56917 703.254822,2938.81916 L694.313795,2947.76018 C693.822409,2948.25157 693.169312,2948.52343 692.474029,2948.52343 C691.78109,2948.52343 691.127992,2948.25157 690.636607,2947.76018 C690.145222,2947.27192 689.873358,2946.61882 689.873358,2945.92979 C689.873358,2945.34622 690.364743,2944.36423 690.947531,2943.78144 L701.304904,2933.42095 C702.822028,2931.90382 705.284423,2931.89211 706.816389,2933.38423 L706.914041,2933.48501 C708.381948,2935.0201 708.360074,2937.4614 706.853107,2938.97149 L698.280814,2947.54379 C698.107384,2947.71487 698.000357,2947.95002 698.000357,2948.21173 C698.000357,2948.72811 698.421433,2949.14919 698.940161,2949.14919 C699.1964,2949.14919 699.431546,2949.04528 699.599508,2948.8742 L699.602633,2948.87732 L708.177269,2940.29956 C710.429517,2938.04731 710.438892,2934.39434 708.210861,2932.13038 Z" id="Fill-1"></path>
        </g>
    </g>
</svg>