<?xml version="1.0" encoding="UTF-8"?>
<svg width="15px" height="15px" viewBox="0 0 15 15" version="1.1" xmlns="http://www.w3.org/2000/svg" xmlns:xlink="http://www.w3.org/1999/xlink">
    <!-- Generator: Sketch 52.4 (67378) - http://www.bohemiancoding.com/sketch -->
    <title>Fill 1</title>
    <desc>Created with Sketch.</desc>
    <g id="User-Guide" stroke="none" stroke-width="1" fill="none" fill-rule="evenodd">
        <g id="UG-Step---1" transform="translate(-1405.000000, -759.000000)" fill="#354052">
            <g id="skip" transform="translate(1363.000000, 755.000000)">
                <path d="M50.8266277,11.4999023 L56.7249222,5.6016078 C57.0911715,5.2353585 57.0911715,4.64122943 56.7249222,4.27498013 C56.358282,3.90833996 55.7661073,3.90833996 55.3994671,4.27498013 L49.5,10.1732746 L43.6017055,4.27498013 C43.2350653,3.90833996 42.6413271,3.90833996 42.274687,4.27498013 C41.9084377,4.64122943 41.9084377,5.2353585 42.274687,5.6016078 L48.174545,11.4999023 L42.274687,17.3981968 C41.9084377,17.7648369 41.9084377,18.3585751 42.274687,18.7252153 C42.4580071,18.9081445 42.6976131,19 42.9372191,19 C43.1772159,19 43.4183854,18.9081445 43.6017055,18.7252153 L49.5,12.8269208 L55.3994671,18.7252153 C55.5827872,18.9081445 55.8223932,19 56.0623901,19 C56.3019961,19 56.5416021,18.9081445 56.7249222,18.7252153 C57.0911715,18.3585751 57.0911715,17.7648369 56.7249222,17.3981968 L50.8266277,11.4999023 Z" id="Fill-1"></path>
            </g>
        </g>
    </g>
</svg>