<?xml version="1.0" encoding="UTF-8"?>
<svg width="20px" height="20px" viewBox="0 0 20 20" version="1.1" xmlns="http://www.w3.org/2000/svg" xmlns:xlink="http://www.w3.org/1999/xlink">
    <!-- Generator: Sketch 52.2 (67145) - http://www.bohemiancoding.com/sketch -->
    <title>Combined Shape</title>
    <desc>Created with Sketch.</desc>
    <g id="Landing-page" stroke="none" stroke-width="1" fill="none" fill-rule="evenodd">
        <g id="Home" transform="translate(-1435.000000, -1920.000000)" fill="#354052">
            <g id="We-got-all-the-key-features" transform="translate(372.000000, 1180.000000)">
                <g id="browser" transform="translate(318.000000, 270.000000)">
                    <g id="full-screen" transform="translate(725.000000, 450.000000)">
                        <path d="M20.7390752,26.4146047 C20.3308101,26.4146047 20,26.0836542 20,25.6755345 L20,20.7391687 C20,20.3309505 20.3308101,20 20.7390752,20 L25.6750138,20 C26.083279,20 26.4140891,20.3309505 26.4140891,20.7391687 C26.4140891,21.147387 26.0831805,21.4783374 25.6750138,21.4783374 L22.5231043,21.4783374 L27.2834386,26.2381897 C27.5721707,26.5267612 27.5721707,26.9948028 27.2835372,27.2834728 C27.1392697,27.4278571 26.9500664,27.5 26.7608632,27.5 C26.5717585,27.5 26.3826537,27.4278571 26.2382877,27.2835714 L21.4781505,22.5238177 L21.4781505,25.6754359 C21.4781505,26.0836542 21.1473404,26.4146047 20.7390752,26.4146047 Z M39.2750019,33.7091583 C39.6753408,33.7091583 39.9999033,34.0337334 40,34.4340878 L40,39.2750705 C40,39.6754249 39.6755341,40 39.2750985,40 L34.4341097,40 C34.0336741,40 33.7092082,39.6754249 33.7092082,39.2750705 C33.7092082,38.8747161 34.0336741,38.550141 34.4341097,38.550141 L37.5247997,38.550141 L32.7123236,33.7374789 C32.4292255,33.4544664 32.4292255,32.995441 32.7123236,32.7123319 C32.9954218,32.4292227 33.4543328,32.4292227 33.7375277,32.7123319 L38.5501004,37.5250906 L38.5501004,34.4340878 C38.5501004,34.0337334 38.8745663,33.7091583 39.2750019,33.7091583 Z M26.2623867,32.7123381 C26.5456039,32.4292367 27.0046478,32.4292367 27.287575,32.7122415 C27.5707922,32.9953429 27.5707922,33.4543557 27.2876717,33.7374571 L22.4751057,38.5501807 L25.5661364,38.5501807 C25.9666036,38.5501807 26.2910951,38.8747469 26.2910951,39.2750903 C26.2910951,39.6754338 25.9665069,40 25.5661364,40 L20.7249587,40 C20.3244915,40 20,39.6754338 20,39.2750903 L20,34.4340469 C20,34.0337035 20.3244915,33.7091372 20.7249587,33.7091372 C21.1254259,33.7091372 21.4499174,34.0337035 21.4499174,34.4340469 L21.4499174,37.5248684 L26.2623867,32.7123381 Z M39.2607679,20 C39.6689667,20 39.9999014,20.3308302 40,20.7391202 L40,25.6750631 C40,26.0832545 39.6691638,26.4141832 39.2608665,26.4141832 C38.8525691,26.4141832 38.521733,26.0832545 38.521733,25.6750631 L38.521733,22.5234547 L33.7619103,27.2834871 C33.6175329,27.4277633 33.4283147,27.5 33.2391951,27.5 C33.0500755,27.5 32.8608573,27.4278619 32.7165784,27.2835856 C32.4278236,26.9949346 32.4278236,26.5269237 32.7164799,26.2382726 L37.4763026,21.4782403 L34.3247358,21.4782403 C33.9164385,21.4782403 33.5856023,21.1473116 33.5856023,20.7391202 C33.5856023,20.3309287 33.9164385,20 34.3247358,20 L39.2607679,20 Z" id="Combined-Shape"></path>
                    </g>
                </g>
            </g>
        </g>
    </g>
</svg>