<?xml version="1.0" encoding="UTF-8"?>
<svg width="150px" height="17px" viewBox="0 0 150 17" version="1.1" xmlns="http://www.w3.org/2000/svg" xmlns:xlink="http://www.w3.org/1999/xlink">
    <!-- Generator: Sketch 52.2 (67145) - http://www.bohemiancoding.com/sketch -->
    <title>:: powered</title>
    <desc>Created with Sketch.</desc>
    <g id="Symbols" stroke="none" stroke-width="1" fill="none" fill-rule="evenodd">
        <g id="Footer" transform="translate(-885.000000, -397.000000)" fill="#9FA9BA">
            <g id="::-powered">
                <g transform="translate(885.000000, 397.000000)">
                    <path d="M3.1430581,9.15469613 C3.69447455,9.15469613 4.12969316,9.02578398 4.44872697,8.7679558 C4.76776077,8.51012762 4.92727528,8.17863923 4.92727528,7.77348066 L4.92727528,7.75138122 C4.92727528,7.29465702 4.76579146,6.9502774 4.44281896,6.71823204 C4.11984647,6.48618669 3.68659718,6.37016575 3.1430581,6.37016575 L1.45336897,6.37016575 L1.45336897,9.15469613 L3.1430581,9.15469613 Z M0,5.13259669 L3.26121817,5.13259669 C3.74173823,5.13259669 4.17695683,5.19336956 4.56688704,5.31491713 C4.95681725,5.4364647 5.28766217,5.61141691 5.55943171,5.83977901 C5.83120125,6.0681411 6.03994863,6.34069823 6.18568012,6.65745856 C6.33141162,6.9742189 6.40427627,7.32780652 6.40427627,7.71823204 L6.40427627,7.74033149 C6.40427627,8.17495613 6.31762641,8.55616779 6.1443241,8.8839779 C5.97102178,9.21178801 5.73470399,9.48618674 5.43536362,9.70718232 C5.13602326,9.9281779 4.7854852,10.0957637 4.38373892,10.2099448 C3.98199265,10.3241258 3.55268199,10.3812155 3.09579406,10.3812155 L1.45336897,10.3812155 L1.45336897,12.8674033 L0,12.8674033 L0,5.13259669 Z M11.8632719,11.7513812 C12.2728956,11.7513812 12.6490347,11.6795587 12.9917007,11.5359116 C13.3343666,11.3922645 13.6277945,11.1970546 13.8719932,10.9502762 C14.116192,10.7034978 14.3072155,10.4143663 14.4450696,10.0828729 C14.5829237,9.75137956 14.6518498,9.39779193 14.6518498,9.02209945 L14.6518498,9 C14.6518498,8.62430751 14.5829237,8.26887829 14.4450696,7.93370166 C14.3072155,7.59852503 14.1142227,7.30755188 13.8660852,7.06077348 C13.6179478,6.81399508 13.3205813,6.61694365 12.9739766,6.46961326 C12.627372,6.32228287 12.2492635,6.24861878 11.8396399,6.24861878 C11.4300162,6.24861878 11.0538771,6.32044127 10.7112111,6.4640884 C10.3685452,6.60773552 10.0751173,6.80294536 9.83091855,7.04972376 C9.58671984,7.29650215 9.39569629,7.5856337 9.25784217,7.91712707 C9.11998806,8.24862044 9.05106203,8.60220807 9.05106203,8.97790055 L9.05106203,9 C9.05106203,9.37569249 9.11998806,9.73112171 9.25784217,10.0662983 C9.39569629,10.401475 9.58868915,10.6924481 9.83682656,10.9392265 C10.084964,11.1860049 10.3823305,11.3830564 10.7289352,11.5303867 C11.0755398,11.6777171 11.4536483,11.7513812 11.8632719,11.7513812 Z M11.8396399,13 C11.2015723,13 10.6186551,12.8950287 10.0908707,12.6850829 C9.5630864,12.4751371 9.11014396,12.1896887 8.73202982,11.8287293 C8.35391568,11.4677698 8.05851844,11.0460429 7.84582923,10.5635359 C7.63314003,10.0810289 7.52679702,9.56722188 7.52679702,9.02209945 L7.52679702,9 C7.52679702,8.45487757 7.63314003,7.94107055 7.84582923,7.45856354 C8.05851844,6.97605652 8.35785431,6.55248801 8.74384583,6.1878453 C9.12983735,5.8232026 9.58671842,5.53407105 10.1145027,5.32044199 C10.6422871,5.10681293 11.2252043,5 11.8632719,5 C12.5013395,5 13.0842568,5.10497133 13.6120411,5.31491713 C14.1398254,5.52486293 14.5927678,5.81031127 14.970882,6.17127072 C15.3489961,6.53223017 15.6443934,6.95395707 15.8570826,7.43646409 C16.0697718,7.9189711 16.1761148,8.43277812 16.1761148,8.97790055 L16.1761148,9 C16.1761148,9.54512243 16.0697718,10.0589294 15.8570826,10.5414365 C15.6443934,11.0239435 15.3450575,11.447512 14.959066,11.8121547 C14.5730745,12.1767974 14.1161934,12.465929 13.5884091,12.679558 C13.0606247,12.8931871 12.4777075,13 11.8396399,13 Z M17.2986355,5.13259669 L18.8701646,5.13259669 L20.8434379,10.8674033 L22.8757913,5.11049724 L24.1046561,5.11049724 L26.1370094,10.8674033 L28.1102827,5.13259669 L29.6345478,5.13259669 L26.7514418,12.9226519 L25.498945,12.9226519 L23.4665916,7.36464088 L21.4342383,12.9226519 L20.1817415,12.9226519 L17.2986355,5.13259669 Z M31.1233647,5.13259669 L37.2558728,5.13259669 L37.2558728,6.3480663 L32.5767337,6.3480663 L32.5767337,8.35911602 L36.7241525,8.35911602 L36.7241525,9.57458564 L32.5767337,9.57458564 L32.5767337,11.6519337 L37.3149529,11.6519337 L37.3149529,12.8674033 L31.1233647,12.8674033 L31.1233647,5.13259669 Z M42.6203404,8.96685083 C43.1402474,8.96685083 43.5538035,8.85082989 43.8610212,8.61878453 C44.168239,8.38673917 44.3218455,8.07182519 44.3218455,7.67403315 L44.3218455,7.6519337 C44.3218455,7.2320421 44.1721776,6.91344492 43.8728372,6.6961326 C43.5734969,6.47882028 43.1520635,6.37016575 42.6085244,6.37016575 L40.493459,6.37016575 L40.493459,8.96685083 L42.6203404,8.96685083 Z M39.04009,5.13259669 L42.7266845,5.13259669 C43.2465914,5.13259669 43.7074111,5.20073597 44.1091574,5.33701657 C44.5109037,5.47329718 44.8456872,5.66298221 45.1135181,5.90607735 C45.3340847,6.11970641 45.5034457,6.3664811 45.6216064,6.64640884 C45.7397671,6.92633657 45.7988465,7.23572575 45.7988465,7.57458564 L45.7988465,7.59668508 C45.7988465,7.91344541 45.7496137,8.19889376 45.6511464,8.45303867 C45.5526792,8.70718359 45.4167965,8.93185906 45.2434942,9.12707182 C45.0701918,9.32228459 44.8634138,9.48802878 44.6231537,9.62430939 C44.3828937,9.76059 44.1170362,9.86556133 43.8255732,9.93922652 L46.0587987,12.8674033 L44.3454776,12.8674033 L42.3131242,10.1712707 L40.493459,10.1712707 L40.493459,12.8674033 L39.04009,12.8674033 L39.04009,5.13259669 Z M47.5830637,5.13259669 L53.7155718,5.13259669 L53.7155718,6.3480663 L49.0364327,6.3480663 L49.0364327,8.35911602 L53.1838515,8.35911602 L53.1838515,9.57458564 L49.0364327,9.57458564 L49.0364327,11.6519337 L53.7746518,11.6519337 L53.7746518,12.8674033 L47.5830637,12.8674033 L47.5830637,5.13259669 Z M58.5837671,11.6298343 C59.0170228,11.6298343 59.4108858,11.5653782 59.7653678,11.4364641 C60.1198499,11.30755 60.421155,11.127073 60.6692924,10.8950276 C60.9174299,10.6629823 61.1104227,10.3867419 61.2482768,10.0662983 C61.3861309,9.74585475 61.455057,9.39779193 61.455057,9.02209945 L61.455057,9 C61.455057,8.62430751 61.3861309,8.27440309 61.2482768,7.95027624 C61.1104227,7.62614939 60.9174299,7.34806746 60.6692924,7.1160221 C60.421155,6.88397674 60.1198499,6.70165812 59.7653678,6.56906077 C59.4108858,6.43646343 59.0170228,6.37016575 58.5837671,6.37016575 L56.953158,6.37016575 L56.953158,11.6298343 L58.5837671,11.6298343 Z M55.499789,5.13259669 L58.5837671,5.13259669 C59.229712,5.13259669 59.8224759,5.2302016 60.3620762,5.42541436 C60.9016766,5.62062713 61.366435,5.89134265 61.7563652,6.23756906 C62.1462954,6.58379547 62.4476006,6.99078956 62.6602898,7.45856354 C62.872979,7.92633751 62.979322,8.43277812 62.979322,8.97790055 L62.979322,9 C62.979322,9.54512243 62.872979,10.0534046 62.6602898,10.5248619 C62.4476006,10.9963191 62.1462954,11.4051548 61.7563652,11.7513812 C61.366435,12.0976076 60.9016766,12.3701648 60.3620762,12.5690608 C59.8224759,12.7679568 59.229712,12.8674033 58.5837671,12.8674033 L55.499789,12.8674033 L55.499789,5.13259669 Z M72.1249121,11.6629834 C72.6211869,11.6629834 73.0111113,11.5745865 73.2946969,11.3977901 C73.5782825,11.2209936 73.7200731,10.9558029 73.7200731,10.6022099 L73.7200731,10.5801105 C73.7200731,10.2486171 73.5802518,9.99263442 73.3006049,9.8121547 C73.0209579,9.63167497 72.5936166,9.54143646 72.018568,9.54143646 L69.7144465,9.54143646 L69.7144465,11.6629834 L72.1249121,11.6629834 Z M71.6995358,8.39226519 C72.1721785,8.39226519 72.5502869,8.30570989 72.8338726,8.13259669 C73.1174582,7.95948348 73.2592488,7.69613436 73.2592488,7.34254144 L73.2592488,7.32044199 C73.2592488,7.01104818 73.135182,6.76979829 72.8870446,6.59668508 C72.6389072,6.42357188 72.2785225,6.33701657 71.8058799,6.33701657 L69.7144465,6.33701657 L69.7144465,8.39226519 L71.6995358,8.39226519 Z M68.2847095,5.13259669 L71.994936,5.13259669 C72.9480987,5.13259669 73.668868,5.36095536 74.1572654,5.81767956 C74.5275022,6.16390597 74.7126178,6.59115768 74.7126178,7.09944751 L74.7126178,7.12154696 C74.7126178,7.35727558 74.6791395,7.56537663 74.6121817,7.74585635 C74.545224,7.92633608 74.4585742,8.08471387 74.3522296,8.22099448 C74.245885,8.35727508 74.1198488,8.47697923 73.9741173,8.5801105 C73.8283858,8.68324177 73.6806872,8.77163867 73.531017,8.84530387 C73.7752157,8.92633558 73.9977483,9.02025729 74.1986215,9.12707182 C74.3994946,9.23388635 74.5727943,9.36095691 74.7185258,9.50828729 C74.8642573,9.65561768 74.9765083,9.82872829 75.055282,10.0276243 C75.1340558,10.2265203 75.1734421,10.4585622 75.1734421,10.7237569 L75.1734421,10.7458564 C75.1734421,11.0920828 75.1005775,11.3977887 74.954846,11.6629834 C74.8091145,11.9281781 74.6023364,12.1491704 74.3345056,12.3259669 C74.0666747,12.5027633 73.7437071,12.6372003 73.3655929,12.7292818 C72.9874788,12.8213633 72.569984,12.8674033 72.1130961,12.8674033 L68.2847095,12.8674033 L68.2847095,5.13259669 Z M79.2499648,9.81767956 L75.9651146,5.13259669 L77.6784358,5.13259669 L79.9943733,8.55801105 L82.3339429,5.13259669 L84,5.13259669 L80.7151498,9.78453039 L80.7151498,12.8674033 L79.2499648,12.8674033 L79.2499648,9.81767956 Z" id="Powered-by"></path>
                    <g id="BAD-SISTEMS-BLACK---RGB" transform="translate(95.000000, 0.000000)">
                        <path d="M40.9446588,14.0433783 L46.3448972,14.0433783 C49.5029062,14.0433783 52.09686,11.5221156 52.09686,8.45265446 C52.09686,5.38309336 49.5029062,2.86183065 46.3448972,2.86183065 L40.9446588,2.86183065 L40.9446588,14.0433783 Z M37.6915433,0.041746071 L46.3448972,0.041746071 C51.1043371,0.041746071 54.9982512,3.82653986 54.9982512,8.45265446 C54.9982512,13.0786691 51.1043371,16.8634629 46.3448972,16.8634629 L37.6915433,16.8634629 L37.6915433,0.041746071 L37.6915433,0.041746071 Z" id="Fill-1"></path>
                        <path d="M0.0321993874,0.041746071 L10.8810783,0.041746071 C13.5656122,0.041746071 15.7620116,2.17659514 15.7620116,4.78599955 L15.7620116,4.78614954 C15.7620116,6.00393492 15.2834958,7.11833004 14.5003203,7.96060077 C15.6034322,8.893113 16.3036918,10.2657838 16.3036918,11.7898404 L16.3036918,11.7899404 C16.3036918,14.5821776 13.953548,16.8665126 11.0806528,16.8665126 L0.0321993874,16.8665126 L0.0321993874,14.0592768 L11.0806528,14.0592768 C12.3592154,14.0592768 13.4155713,13.0327734 13.4155713,11.7899404 C13.4155713,10.5745048 12.4054055,9.56599967 11.165009,9.5221538 C11.0710855,9.5274033 10.9763391,9.53045302 10.8810783,9.53045302 L0.0321993874,9.53045302 L0.0321993874,6.71326816 L10.8810783,6.71326816 C11.9659816,6.71326816 12.8635524,5.84040032 12.8635524,4.78599955 C12.8635524,3.73169878 11.9658273,2.85893092 10.8810783,2.85893092 L0.0321993874,2.85893092 L0.0321993874,0.041746071" id="Fill-2"></path>
                        <path d="M29.0390639,16.8634629 L35.7034626,16.8634629 L27.6104604,0.041746071 L24.9514905,0.041746071 L16.80628,16.8634629 L20.1721961,16.8634629 C23.9857661,9.33552136 22.8461855,11.5617118 26.2566459,4.28479673 C28.8446845,9.80042761 29.060513,10.2569346 30.8969582,14.2672072 L27.8938253,14.2672072 L26.2549999,10.5517569 L23.4707816,16.8634629 L29.0390639,16.8634629" id="Fill-3"></path>
                    </g>
                </g>
            </g>
        </g>
    </g>
</svg>