<?xml version="1.0" encoding="UTF-8"?>
<svg width="21px" height="30px" viewBox="0 0 21 30" version="1.1" xmlns="http://www.w3.org/2000/svg" xmlns:xlink="http://www.w3.org/1999/xlink">
    <!-- Generator: Sketch 52.5 (67469) - http://www.bohemiancoding.com/sketch -->
    <title>tablet0</title>
    <desc>Created with Sketch.</desc>
    <g id="Landing-page" stroke="none" stroke-width="1" fill="none" fill-rule="evenodd">
        <g id="Home" transform="translate(-956.000000, -4082.000000)" fill="#000000" fill-rule="nonzero">
            <g id="We-got-all-the-key-features" transform="translate(372.000000, 3919.000000)">
                <g id="tabs" transform="translate(464.000000, 146.000000)">
                    <g id="tablet0" transform="translate(120.000000, 17.000000)">
                        <path d="M17.2923977,0 L3.45847953,0 C1.54928002,0.00867077255 0.00480075971,1.55628391 0,3.46549708 L0,26.5210526 C0.00480075971,28.4302658 1.54928002,29.9778789 3.45847953,29.9865497 L17.2923977,29.9865497 C19.2015972,29.9778789 20.7460764,28.4302658 20.7508772,26.5210526 L20.7508772,3.46549708 C20.7460764,1.55628391 19.2015972,0.00867077255 17.2923977,0 Z M3.45847953,1.84502924 L17.2923977,1.84502924 C18.1862331,1.84728171 18.9100888,2.57166024 18.9116959,3.46549708 L18.9116959,24.4502924 L1.83918129,24.4502924 L1.83918129,3.46549708 C1.84078839,2.57166024 2.56464409,1.84728171 3.45847953,1.84502924 Z M17.2923977,28.1415205 L3.45847953,28.1415205 C2.56473866,28.1395895 1.84078955,27.4153789 1.83918129,26.5216374 L1.83918129,26.2964912 L18.9116959,26.2964912 L18.9116959,26.5216374 C18.9100876,27.4153789 18.1861385,28.1395895 17.2923977,28.1415205 Z" id="Shape"></path>
                        <path d="M10.7637427,11.4035088 L6.29590643,15.871345 C5.93881363,16.2302209 5.35844526,16.2317916 4.9994152,15.8748538 L4.9994152,15.871345 C4.64277452,15.51162 4.64277452,14.9316549 4.9994152,14.5719298 L9.46783626,10.1040936 C9.82488988,9.74544674 10.4050743,9.74413766 10.7637427,10.1011696 L10.7666667,10.1040936 C11.1224992,10.4646206 11.1211941,11.0445868 10.7637427,11.4035088 Z M15.7520468,10.4181287 L15.7491228,10.4181287 C15.5772473,10.2461092 15.3440477,10.1494576 15.1008772,10.1494576 C14.8577067,10.1494576 14.6245071,10.2461092 14.4526316,10.4181287 L9.98479532,14.8859649 C9.62419538,15.2454345 9.62327902,15.8291661 9.98274856,16.1897661 C10.3422181,16.550366 10.9259497,16.5512824 11.2865497,16.1918129 L15.7549708,11.7245614 C16.1137207,11.3629533 16.1124132,10.7792954 15.7520468,10.4192982 L15.7520468,10.4181287 Z" id="Shape"></path>
                    </g>
                </g>
            </g>
        </g>
    </g>
</svg>