<?xml version="1.0" encoding="utf-8"?>
<!-- Generator: Adobe Illustrator 22.1.0, SVG Export Plug-In . SVG Version: 6.00 Build 0)  -->
<svg version="1.1" id="Layer_1" xmlns="http://www.w3.org/2000/svg" xmlns:xlink="http://www.w3.org/1999/xlink" x="0px" y="0px"
	 viewBox="0 0 523.2 510.7" style="enable-background:new 0 0 523.2 510.7;" xml:space="preserve">
<title>Asset 370</title>
<g id="Layer_2_1_">
	<g id="Public_Links_Final">
		<path d="M219.4,316c-0.1-8.8,7-15.9,15.8-16c0,0,0,0,0.1,0h0.1c8.8,0,15.9,7.1,15.9,15.9c0.1,18.8,16.9,29.2,47.5,29.3l80.1,0.3
			h0.1c20.2,0,36.6-16.3,36.6-36.6c0-0.1,0-0.1,0-0.2c-0.1-20.5-16.8-37.2-37.3-37.3l-21.8-0.1c-8.8-0.2-15.7-7.5-15.5-16.3
			c0.2-8.5,7-15.3,15.5-15.5h0.1l21.8,0.1c38,0.3,68.7,31,69,69c0.2,37.8-30.3,68.5-68.1,68.7c-0.1,0-0.2,0-0.4,0h-0.2l-80-0.3
			C250.6,376.8,219.5,352.9,219.4,316z M236.9,239.1l-85.4-0.3h-0.2c-37.7-0.1-68.4,30.5-68.4,68.3c0,0.2,0,0.3,0,0.5l0,0
			c0.2,39.8,26.9,68.8,63.6,69l27.1,0.1h0.1c8.8,0,15.9-7.1,15.9-15.9c0-8.8-7.1-15.9-15.9-15.9l-27.1-0.1c-10.2,0-18.6-4.2-24.3-12
			c-4.9-6.6-7.6-15.6-7.6-25.3c-0.1-20.2,16.1-36.6,36.3-36.8c0.2,0,0.3,0,0.5,0l85.4,0.3c42,0.2,42.1,21.3,42.1,29.3
			c0.1,8.7,7.2,15.8,16,15.8l0,0c8.8,0,15.9-7.2,15.9-16c0,0,0,0,0,0c-0.1-17-5.4-30.9-15.8-41.3C282.1,246,262,239.2,236.9,239.1
			L236.9,239.1z"/>
		<path d="M485.1,0H38C17,0,0,17,0,38v434.7c0,21,17,38,38,38h447.1c21,0,38-17,38-38V38C523.1,17,506.1,0,485.1,0z M38,31h447.1
			c3.9,0,7,3.1,7,7v72.3H31V38C31,34.1,34.1,31,38,31z M485.1,479.7H38c-3.9,0-7-3.1-7-7V140.3h461.2v332.3
			C492.2,476.5,489,479.7,485.1,479.7C485.2,479.7,485.2,479.7,485.1,479.7z M421.9,70.7c0-11,9-20,20-20s20,9,20,20s-9,20-20,20
			C430.9,90.7,421.9,81.7,421.9,70.7C421.9,70.7,421.9,70.7,421.9,70.7L421.9,70.7z M361.9,70.7c0-11,9-20,20-20s20,9,20,20
			s-9,20-20,20C370.9,90.7,361.9,81.7,361.9,70.7C361.9,70.7,361.9,70.7,361.9,70.7L361.9,70.7z M301.9,70.7c0-11,9-20,20-20
			s20,9,20,20s-9,20-20,20C310.9,90.7,301.9,81.7,301.9,70.7C301.9,70.7,301.9,70.7,301.9,70.7L301.9,70.7z"/>
	</g>
</g>
</svg>
