<?xml version="1.0" encoding="utf-8"?>
<!-- Generator: Adobe Illustrator 22.1.0, SVG Export Plug-In . SVG Version: 6.00 Build 0)  -->
<svg version="1.1" id="Layer_1" xmlns="http://www.w3.org/2000/svg" xmlns:xlink="http://www.w3.org/1999/xlink" x="0px" y="0px"
	 viewBox="0 0 436.1 510.9" style="enable-background:new 0 0 436.1 510.9;" xml:space="preserve">
<title>Asset 360</title>
<path id="Layer_2_1_" d="M350.7,191.7L350.7,191.7c-5.9-5.9-15.4-5.9-21.2,0L175.8,345.3l-69.1-69.1c-5.9-5.9-15.4-5.9-21.2,0l0,0
	c-5.9,5.9-5.9,15.4,0,21.2l79.4,79.4c6.1,5.8,15.7,5.9,21.8,0.1l164-164C356.5,207.1,356.5,197.6,350.7,191.7
	C350.7,191.7,350.7,191.7,350.7,191.7z M397.9,57.7h-51.1c-3.4-16.8-18.1-29-35.3-29h-43.3C264.3,11.9,249.4,0,232.2,0h-28.3
	c-17.2,0-32.1,11.9-35.9,28.7h-43.3c-17.2,0-32,12.2-35.3,29H38.2C17.1,57.7,0,74.9,0,96v376.6c0,21.1,17.1,38.2,38.2,38.2h359.7
	c21.1,0,38.2-17.1,38.2-38.2V96C436.1,74.9,419,57.7,397.9,57.7z M119.6,64.7c0-2.7,2.3-5,5-5h55.9c9.7,0,17.5-7.9,17.5-17.5v-5.3
	c0-3.2,2.6-5.8,5.9-5.8h28.3c3.2,0,5.8,2.6,5.9,5.8v5.3c0,9.7,7.8,17.5,17.5,17.5h55.9c2.7,0,5,2.3,5,5v16.4c0,2.7-2.3,5-5,5H124.7
	c-2.7,0-5-2.3-5-5L119.6,64.7z M405.1,472.6c0,4-3.2,7.2-7.2,7.2H38.2c-4,0-7.2-3.2-7.2-7.2V96c0-4,3.2-7.2,7.2-7.2h51.2
	c3.6,16.6,18.2,28.4,35.2,28.4h186.8c16.9,0,31.6-11.8,35.2-28.4h51.2c4,0,7.2,3.2,7.2,7.2V472.6z"/>
</svg>
