<?xml version="1.0" encoding="utf-8"?>
<!-- Generator: Adobe Illustrator 22.1.0, SVG Export Plug-In . SVG Version: 6.00 Build 0)  -->
<svg version="1.1" id="Layer_1" xmlns="http://www.w3.org/2000/svg" xmlns:xlink="http://www.w3.org/1999/xlink" x="0px" y="0px"
	 viewBox="0 0 590 510" style="enable-background:new 0 0 590 510;" xml:space="preserve">
<title>backlog0</title>
<g id="Layer_2_1_">
	<g id="backlog">
		<path d="M295.5,239.5h90c8.3,0,15,6.7,15,15l0,0l0,0c0,8.3-6.7,15-15,15l0,0h-90c-8.3,0-15-6.7-15-15l0,0l0,0
			C280.5,246.2,287.2,239.5,295.5,239.5L295.5,239.5z M74.5,59.5h70c8.3,0,15,6.7,15,15l0,0l0,0c0,8.3-6.7,15-15,15l0,0h-70
			c-8.3,0-15-6.7-15-15l0,0l0,0C59.5,66.2,66.2,59.5,74.5,59.5L74.5,59.5z M204.5,60.5h150c8.3,0,15,6.7,15,15l0,0l0,0
			c0,8.3-6.7,15-15,15l0,0h-150c-8.3,0-15-6.7-15-15l0,0l0,0C189.5,67.2,196.2,60.5,204.5,60.5L204.5,60.5z M425.5,450.5
			L425.5,450.5c-8.3,0-15-6.7-15-15l0,0c0-8.3,6.7-15,15-15l0,0c8.3,0,15,6.7,15,15l0,0C440.5,443.8,433.8,450.5,425.5,450.5
			L425.5,450.5z M164.5,449.5h-90c-8.3,0-15-6.7-15-15l0,0c0-8.3,6.7-15,15-15h90c8.3,0,15,6.7,15,15l0,0
			C179.5,442.8,172.8,449.5,164.5,449.5L164.5,449.5z"/>
		<path id="backlog-2" d="M15,150h470c8.3,0,15-6.7,15-15l0,0V15c0-8.3-6.7-15-15-15H15C6.7,0,0,6.7,0,15v120
			C0,143.3,6.7,150,15,150L15,150z M30,30h440v90H30V30z M485,360H15c-8.3,0-15,6.7-15,15v120c0,8.3,6.7,15,15,15h470
			c8.3,0,15-6.7,15-15V375C500,366.7,493.3,360,485,360z M470,480H30v-90h440V480z M575,180H105c-8.3,0-15,6.7-15,15l0,0v120
			c0,8.3,6.7,15,15,15h470c8.3,0,15-6.7,15-15V195C590,186.7,583.3,180,575,180L575,180z M560,300H120v-90h440V300z"/>
	</g>
</g>
</svg>
