<?xml version="1.0" encoding="utf-8"?>
<!-- Generator: Adobe Illustrator 22.1.0, SVG Export Plug-In . SVG Version: 6.00 Build 0)  -->
<svg version="1.1" id="Layer_1" xmlns="http://www.w3.org/2000/svg" xmlns:xlink="http://www.w3.org/1999/xlink" x="0px" y="0px"
	 viewBox="0 0 500 500" style="enable-background:new 0 0 500 500;" xml:space="preserve">
<title>boards0</title>
<g id="Layer_2_1_">
	<g id="boards">
		<path d="M350,255H150c-8.3,0-15-6.7-15-15s6.7-15,15-15h200c8.3,0,15,6.7,15,15S358.3,255,350,255z M285,195h-70
			c-8.3,0-15-6.7-15-15s6.7-15,15-15h70c8.3,0,15,6.7,15,15S293.3,195,285,195z"/>
		<path id="boards-2" d="M485,0H15C6.7,0,0,6.7,0,15v60c0,8.3,6.7,15,15,15l0,0h45v255c0,8.3,6.7,15,15,15h90.8L98.5,476.5
			c-4.1,7.2-1.7,16.4,5.5,20.5c7.2,4.1,16.4,1.7,20.5-5.5L200.4,360h100.3L377,492.5c4.1,7.2,13.3,9.6,20.5,5.5
			c7.2-4.1,9.6-13.3,5.5-20.5l0,0L335.4,360H425c8.3,0,15-6.7,15-15V90h45c8.3,0,15-6.7,15-15l0,0V15C500,6.7,493.3,0,485,0z
			 M410,330H90V90h320V330z M470,60H30V30h440V60z"/>
	</g>
</g>
</svg>
