<?xml version="1.0" encoding="utf-8"?>
<!-- Generator: Adobe Illustrator 22.1.0, SVG Export Plug-In . SVG Version: 6.00 Build 0)  -->
<svg version="1.1" id="Layer_1" xmlns="http://www.w3.org/2000/svg" xmlns:xlink="http://www.w3.org/1999/xlink" x="0px" y="0px"
	 viewBox="0 0 490.4 512" style="enable-background:new 0 0 490.4 512;" xml:space="preserve">
<title>role0</title>
<g id="Layer_2_1_">
	<g id="role">
		<path d="M385.7,306.1l79.1-79.1c5.8-5.9,15.3-6,21.2-0.2c5.2,5.1,6,13.1,1.9,19.1L252.3,481.6c-0.7,0.7-1.4,1.5-1.9,2.3
			l-10.6,10.6c-0.3,0.4-0.6,0.8-1,1.1c-0.8,0.8-1.7,1.5-2.6,2.1c-5.9,3.9-13.9,3.1-18.9-1.9c-0.7-0.7-1.4-1.5-1.9-2.4l-82.6-82.6
			c-5.9-5.9-5.9-15.4,0-21.2s15.4-5.9,21.2,0l74.2,74.2l136.2-136.2l-0.3-0.2 M364,327.3l21.4-21.4l0.3,0.2"/>
		<path id="role-2" d="M336.8,277.3c-30.4-13.4-63.3-20.3-96.5-20.3C108.6,257,1.8,363,0.3,494.2c-1.5,8.1,3.8,16,12,17.5
			c0.9,0.2,1.8,0.3,2.8,0.3c8.3,0,15.1-6.7,15.2-15c0-0.1,0-0.2,0-0.3c0.2-115.8,94.1-209.7,210-209.7c30.2,0,60,6.5,87.4,19
			c2,0.7,4.2,1.1,6.3,1c8.3,0,15-6.7,15-15C349,284.8,343.8,278.6,336.8,277.3z M480.2,496.8L480.2,496.8
			c0-46.7-13.7-92.4-39.3-131.4c-3.1-7.7-11.9-11.3-19.6-8.2c-5.6,2.3-9.3,7.8-9.3,13.8c0,4,1.1,7.9,3.6,10.6
			c22.2,33.6,34.2,72.8,34.6,113.1c-1.3,8.1,4.2,15.8,12.3,17.1c0.8,0.1,1.7,0.2,2.5,0.2c8.3,0,15.1-6.7,15.2-15
			C480.2,496.9,480.2,496.9,480.2,496.8z M241.5,0C178.8,0,128,50.8,128,113.5S178.8,227,241.5,227S355,176.2,355,113.5
			C355,50.8,304.2,0,241.5,0z M241.5,197c-46.1,0-83.5-37.4-83.5-83.5S195.4,30,241.5,30S325,67.4,325,113.5S287.6,197,241.5,197z"
			/>
	</g>
</g>
</svg>
