<?xml version="1.0" encoding="utf-8"?>
<!-- Generator: Adobe Illustrator 22.1.0, SVG Export Plug-In . SVG Version: 6.00 Build 0)  -->
<svg version="1.1" id="Layer_1" xmlns="http://www.w3.org/2000/svg" xmlns:xlink="http://www.w3.org/1999/xlink" x="0px" y="0px"
	 viewBox="0 0 531.5 512" style="enable-background:new 0 0 531.5 512;" xml:space="preserve">
<title>Asset 420</title>
<g id="Layer_2_1_">
	<g id="Template_copy">
		<path d="M276.5,0H24.2C10.8,0,0,10.8,0,24.2c0,0,0,0,0,0v463.7C0,501.2,10.8,512,24.1,512c0,0,0,0,0,0h252.3
			c13.3,0,24.2-10.8,24.2-24.2l0,0V24.2C300.6,10.8,289.8,0,276.5,0C276.5,0,276.5,0,276.5,0z M270.6,482H30V30h240.6V482z"/>
		<path d="M357,198.5h162c6.9,0,12.5-5.6,12.5-12.5c0,0,0,0,0-0.1V12.5C531.6,5.6,526,0,519.1,0c0,0,0,0-0.1,0H357
			c-6.9,0-12.5,5.6-12.5,12.5c0,0,0,0,0,0V186C344.5,192.9,350.1,198.5,357,198.5C357,198.5,357,198.5,357,198.5z M374.5,30h127.1
			v138.5H374.5V30z M509.4,236.7H366.7c-12.3,0-22.2,9.9-22.2,22.2c0,0,0,0,0,0v230.5c0,12.3,9.9,22.2,22.2,22.2h0h142.7
			c12.3,0,22.2-9.9,22.2-22.2V258.9C531.6,246.6,521.6,236.7,509.4,236.7C509.4,236.7,509.4,236.7,509.4,236.7z M501.6,481.6H374.5
			V266.7h127.1L501.6,481.6z"/>
	</g>
</g>
</svg>
