<?xml version="1.0" encoding="utf-8"?>
<!-- Generator: Adobe Illustrator 22.1.0, SVG Export Plug-In . SVG Version: 6.00 Build 0)  -->
<svg version="1.1" id="Layer_1" xmlns="http://www.w3.org/2000/svg" xmlns:xlink="http://www.w3.org/1999/xlink" x="0px" y="0px"
	 viewBox="0 0 500.2 511" style="enable-background:new 0 0 500.2 511;" xml:space="preserve">
<title>Asset 300</title>
<g id="Layer_2_1_">
	<g id="Workspace_copy_3">
		<path d="M279.8,329H106.1c-8.3,0-15,6.7-15,15s6.7,15,15,15h173.7c8.3,0,15-6.7,15-15S288.1,329,279.8,329z"/>
		<path d="M392.5,90.4H108.8c-9.8,0-17.7,7.9-17.7,17.7l0,0v92.3c0,9.8,7.9,17.7,17.7,17.7c0,0,0,0,0,0h283.7
			c9.8,0,17.7-7.9,17.7-17.7l0,0v-92.3C410.2,98.3,402.2,90.4,392.5,90.4z M380.2,188.1H121.1v-67.7h259.1V188.1z"/>
		<path d="M484.4,0H15.8C7.1,0,0,7.1,0,15.8v399.4c0,8.7,7.1,15.8,15.8,15.8h189.3v50h-20.2c-8.3,0-15,6.7-15,15s6.7,15,15,15h130.3
			c8.3,0,15-6.7,15-15s-6.7-15-15-15h-20.1v-50h189.3c8.7,0,15.8-7.1,15.8-15.8V15.8C500.2,7.1,493.1,0,484.4,0z M265.1,481h-30v-50
			h30V481z M470.2,401H30V30h440.2L470.2,401z"/>
		<path d="M106.1,299h289.1c8.3,0,15-6.7,15-15s-6.7-15-15-15H106.1c-8.3,0-15,6.7-15,15S97.8,299,106.1,299z"/>
	</g>
</g>
</svg>
