<svg xmlns="http://www.w3.org/2000/svg" viewBox="0 0 436.14 509.89"><defs><style>.cls-1{fill:#0dccbe;}.cls-2{fill:#0080ff;}</style></defs><title>Asset 350</title><g id="Layer_2" data-name="Layer 2"><g id="Comment_Final"><path class="cls-1" d="M308.21,224h0a15,15,0,0,1-15,15H142.94a15,15,0,0,1-15-15h0a15,15,0,0,1,15-15H293.21A15,15,0,0,1,308.21,224Zm-45.3,55H173.24a15,15,0,0,0-15,15h0a15,15,0,0,0,15,15h89.67a15,15,0,0,0,15-15h0A15,15,0,0,0,262.91,279ZM341,139H95.12a15,15,0,0,0-15,15h0a15,15,0,0,0,15,15H341a15,15,0,0,0,15-15h0A15,15,0,0,0,341,139Z"/><path class="cls-2" d="M399.29,0H36.85A36.89,36.89,0,0,0,0,36.85V411.16A36.89,36.89,0,0,0,36.85,448H149.76l57.36,57.36a15.54,15.54,0,0,0,21.92,0l.47-.52L286.34,448h113a36.89,36.89,0,0,0,36.85-36.85V36.85A36.89,36.89,0,0,0,399.29,0Zm5.85,411.16a5.85,5.85,0,0,1-5.85,5.85H281.17a20.63,20.63,0,0,0-12.6,4.93l-50.52,50.53L167.57,422a18.31,18.31,0,0,0-11.75-5h-119A5.85,5.85,0,0,1,31,411.16V36.85A5.85,5.85,0,0,1,36.85,31H399.29a5.85,5.85,0,0,1,5.85,5.85Z"/></g></g></svg>