<svg xmlns="http://www.w3.org/2000/svg" viewBox="0 0 523.16 510.68"><defs><style>.cls-1{fill:#0dccbe;}.cls-2{fill:#0080ff;}</style></defs><title>Asset 370</title><g id="Layer_2" data-name="Layer 2"><g id="Public_Links_Final"><path class="cls-1" d="M219.37,316a15.89,15.89,0,0,1,15.85-16h.06a15.91,15.91,0,0,1,15.91,15.86c.07,18.79,16.94,29.2,47.5,29.3l80.06.33h.12a36.6,36.6,0,0,0,36.64-36.78,37.56,37.56,0,0,0-37.3-37.3l-21.76-.08a15.91,15.91,0,0,1,0-31.81h.06l21.77.07a69.5,69.5,0,0,1,69,69,68.39,68.39,0,0,1-68.45,68.7h-.25L298.57,377C250.61,376.81,219.52,352.86,219.37,316Zm17.49-76.92-85.42-.34h-.25a68.35,68.35,0,0,0-68.44,68.71h0c.15,39.81,26.92,68.82,63.65,69l27.12.09h.07a15.9,15.9,0,0,0,0-31.8l-27.1-.1c-10.17,0-18.58-4.2-24.35-12-4.87-6.62-7.58-15.59-7.62-25.27a36.55,36.55,0,0,1,36.78-36.77l85.4.34c42,.17,42.11,21.32,42.14,29.29A16,16,0,0,0,294.81,316h0a15.91,15.91,0,0,0,15.85-16c-.07-17-5.39-30.87-15.8-41.29C282.11,246,262,239.17,236.86,239.07Z"/><path class="cls-2" d="M485.15,0H38A38.05,38.05,0,0,0,0,38V472.67a38.05,38.05,0,0,0,38,38H485.15a38.05,38.05,0,0,0,38-38V38A38.05,38.05,0,0,0,485.15,0ZM38,31H485.15a7,7,0,0,1,7,7v72.32H31V38A7,7,0,0,1,38,31ZM485.15,479.68H38a7,7,0,0,1-7-7V140.33H492.16V472.67A7,7,0,0,1,485.15,479.68Zm-63.23-409a20,20,0,1,1,20,20A20,20,0,0,1,421.92,70.67Zm-60,0a20,20,0,1,1,20,20A20,20,0,0,1,361.92,70.67Zm-60,0a20,20,0,1,1,20,20A20,20,0,0,1,301.92,70.67Z"/></g></g></svg>