<svg xmlns="http://www.w3.org/2000/svg" viewBox="0 0 590 510"><defs><style>.cls-1{fill:#0dccbe;fill-rule:evenodd;}.cls-2{fill:#0080ff;}</style></defs><title>backlog0</title><g id="Layer_2" data-name="Layer 2"><g id="backlog"><path class="cls-1" d="M295.5,239.5h90a15,15,0,0,1,15,15h0a15,15,0,0,1-15,15h-90a15,15,0,0,1-15-15h0A15,15,0,0,1,295.5,239.5Zm-221-180h70a15,15,0,0,1,15,15h0a15,15,0,0,1-15,15h-70a15,15,0,0,1-15-15h0A15,15,0,0,1,74.49,59.5Zm130,1h150a15,15,0,0,1,15,15h0a15,15,0,0,1-15,15h-150a15,15,0,0,1-15-15h0A15,15,0,0,1,204.5,60.5Zm221,390h0a15,15,0,0,1-15-15h0a15,15,0,0,1,15-15h0a15,15,0,0,1,15,15h0A15,15,0,0,1,425.51,450.5Zm-261-1h-90a15,15,0,0,1-15-15h0a15,15,0,0,1,15-15h90a15,15,0,0,1,15,15h0A15,15,0,0,1,164.51,449.5Z"/><path id="backlog-2" data-name="backlog" class="cls-2" d="M15,150H485a15,15,0,0,0,15-15V15A15,15,0,0,0,485,0H15A15,15,0,0,0,0,15V135A15,15,0,0,0,15,150ZM30,30H470v90H30ZM485,360H15A15,15,0,0,0,0,375V495a15,15,0,0,0,15,15H485a15,15,0,0,0,15-15V375A15,15,0,0,0,485,360ZM470,480H30V390H470ZM575,180H105a15,15,0,0,0-15,15V315a15,15,0,0,0,15,15H575a15,15,0,0,0,15-15V195A15,15,0,0,0,575,180ZM560,300H120V210H560Z"/></g></g></svg>