<svg xmlns="http://www.w3.org/2000/svg" viewBox="0 0 500 499.99"><defs><style>.cls-1{isolation:isolate;}.cls-2{fill:#0dccbe;fill-rule:evenodd;}.cls-3{fill:#0080ff;}</style></defs><title>boards0</title><g id="Layer_2" data-name="Layer 2"><g id="boards" class="cls-1"><path class="cls-2" d="M350,255H150a15,15,0,0,1,0-30H350a15,15,0,0,1,0,30Zm-65-60H215a15,15,0,0,1,0-30h70a15,15,0,0,1,0,30Z"/><path id="boards-2" data-name="boards" class="cls-3" d="M485,0H15A15,15,0,0,0,0,15V75A15,15,0,0,0,15,90H60V345a15,15,0,0,0,15,15h90.81L98.52,476.55a15,15,0,0,0,26,15L200.45,360H300.73L377,492.47a15,15,0,1,0,26-15L335.36,360H425a15,15,0,0,0,15-15V90h45a15,15,0,0,0,15-15V15A15,15,0,0,0,485,0ZM410,330H90V90H410ZM470,60H30V30H470Z"/></g></g></svg>