<svg xmlns="http://www.w3.org/2000/svg" viewBox="0 0 260 260"><defs><style>.cls-1{fill:#0080ff;}.cls-2{fill:#0dccbe;}</style></defs><title>Assignee0</title><g id="Layer_2" data-name="Layer 2"><g id="Final"><g id="Assignee"><path class="cls-1" d="M108,59a6,6,0,0,1,6-6h78a6,6,0,0,1,0,12H114A6,6,0,0,1,108,59ZM62,70A17,17,0,1,1,79,87,17,17,0,0,1,62,70Zm12,0a5,5,0,1,0,5-5A5,5,0,0,0,74,70Zm40,17h43a6,6,0,0,0,0-12H114a6,6,0,0,0,0,12ZM68,119H192a6,6,0,0,0,0-12H68a6,6,0,0,0,0,12Zm0,22h70a6,6,0,0,0,0-12H68a6,6,0,0,0,0,12ZM230,36V159H218V36a12,12,0,0,0-12-12H174.73a20.18,20.18,0,0,1-19.85,17H105.12A20.18,20.18,0,0,1,85.27,24H54A12,12,0,0,0,42,36V157H30V36A24.07,24.07,0,0,1,54,12H86.74A20.16,20.16,0,0,1,105.12,0h49.76a20.16,20.16,0,0,1,18.38,12H206A24.07,24.07,0,0,1,230,36ZM163,20.12A8.23,8.23,0,0,0,154.88,12H105.12A8.23,8.23,0,0,0,97,20.12v.76A8.23,8.23,0,0,0,105.12,29h49.76A8.23,8.23,0,0,0,163,20.88ZM218,236a12,12,0,0,1-12,12H54a12,12,0,0,1-12-12v-4H30v4a24.07,24.07,0,0,0,24,24H206a24.07,24.07,0,0,0,24-24v-2H218Z"/><path class="cls-2" d="M239.75,154H20.25A20.31,20.31,0,0,0,0,174.25v43.5A20.31,20.31,0,0,0,20.25,238h219.5A20.31,20.31,0,0,0,260,217.75v-43.5A20.31,20.31,0,0,0,239.75,154ZM248,217.75a8.36,8.36,0,0,1-8.25,8.25H20.25A8.36,8.36,0,0,1,12,217.75v-43.5A8.36,8.36,0,0,1,20.25,166h219.5a8.36,8.36,0,0,1,8.25,8.25ZM218,185a6,6,0,0,1-6,6H94a6,6,0,0,1,0-12H212A6,6,0,0,1,218,185ZM59,179a17,17,0,1,0,17,17A17,17,0,0,0,59,179Zm0,22a5,5,0,1,1,5-5A5,5,0,0,1,59,201Zm128,6a6,6,0,0,1-6,6H94a6,6,0,0,1,0-12h87A6,6,0,0,1,187,207Z"/></g></g></g></svg>