<svg xmlns="http://www.w3.org/2000/svg" viewBox="0 0 423 260"><defs><style>.cls-1{fill:#0dccbe;}.cls-2{fill:#0080ff;}</style></defs><title>Email0</title><g id="Layer_2" data-name="Layer 2"><g id="Final"><g id="Email"><path class="cls-1" d="M141,136a6,6,0,0,1-6,6H6a6,6,0,0,1,0-12H135A6,6,0,0,1,141,136ZM391.3,36.21a5.65,5.65,0,0,0-7.44-.67L250.19,132.8a10.66,10.66,0,0,1-4.57,2A10.06,10.06,0,0,1,238,133L102.38,34.3a5.65,5.65,0,0,0-7.44.67h0a6.13,6.13,0,0,0,.76,9.15l135.64,98.69a21.34,21.34,0,0,0,25.26,0L390.54,45.36A6.13,6.13,0,0,0,391.3,36.21Z"/><path class="cls-2" d="M423,30V230a30.11,30.11,0,0,1-30,30H93a30.11,30.11,0,0,1-30-30V208a6,6,0,0,1,12,0v22a18,18,0,0,0,18,18H393a18,18,0,0,0,18-18V30a18,18,0,0,0-18-18H93A18,18,0,0,0,75,30v70a6,6,0,0,1-12,0V30A30.11,30.11,0,0,1,93,0H393A30.11,30.11,0,0,1,423,30ZM191,172v0a6,6,0,0,0-6-6H57a6,6,0,0,0-6,6v0a6,6,0,0,0,6,6H185A6,6,0,0,0,191,172Zm-71,36v0a6.09,6.09,0,0,0,6.15,6h131.7a6.09,6.09,0,0,0,6.15-6v0a6.09,6.09,0,0,0-6.15-6H126.15A6.09,6.09,0,0,0,120,208Z"/></g></g></g></svg>