<svg xmlns="http://www.w3.org/2000/svg" viewBox="0 0 260.22 260"><defs><style>.cls-1{fill:#0080ff;}.cls-2{fill:#0dccbe;}</style></defs><title>login copy (2)0</title><g id="Layer_2" data-name="Layer 2"><g id="Final"><g id="login_copy" data-name="login copy"><path class="cls-1" d="M260.22,34.32V225.68A34.42,34.42,0,0,1,225.9,260H60.54a34.42,34.42,0,0,1-34.32-34.32V152.5a6,6,0,0,1,6-6h0a6,6,0,0,1,6,6v73.18A22.32,22.32,0,0,0,60.54,248H225.9a22.32,22.32,0,0,0,22.32-22.32V34.32A22.32,22.32,0,0,0,225.9,12H60.54A22.32,22.32,0,0,0,38.22,34.32V100.5a6,6,0,0,1-6,6h0a6,6,0,0,1-6-6V34.32A34.42,34.42,0,0,1,60.54,0H225.9A34.42,34.42,0,0,1,260.22,34.32Z"/><path class="cls-2" d="M176.22,124.75A25.25,25.25,0,1,0,151,99.5,25.25,25.25,0,0,0,176.22,124.75Zm0-38.5A13.25,13.25,0,1,1,163,99.5,13.26,13.26,0,0,1,176.22,86.25Zm11,48.5h-22a36.61,36.61,0,0,0-36.5,36.5h0a14.54,14.54,0,0,0,14.51,14.5h66a14.54,14.54,0,0,0,14.5-14.5h0A36.6,36.6,0,0,0,187.22,134.75Zm22,39h-66a2.54,2.54,0,0,1-2.51-2.5,24.53,24.53,0,0,1,24.5-24.5h22a24.53,24.53,0,0,1,24.5,24.5A2.53,2.53,0,0,1,209.22,173.75Zm-91.84-49a6,6,0,0,1-1.32,6.58L81.81,165.11a6,6,0,0,1-8.42-8.54l24.66-24.32-92.44-.62a5.65,5.65,0,1,1,.08-11.3l92,.62-24-24.4a6,6,0,1,1,8.54-8.42L116,122.44A5.92,5.92,0,0,1,117.38,124.77Z"/></g></g></g></svg>