<svg xmlns="http://www.w3.org/2000/svg" viewBox="0 0 240 260"><defs><style>.cls-1{fill:#0dccbe;}.cls-2{fill:#0080ff;}</style></defs><title>Paid0</title><g id="Layer_2" data-name="Layer 2"><g id="Final"><g id="Paid"><path class="cls-1" d="M56,152a6,6,0,0,1-6,6H30a6,6,0,0,1,0-12H50A6,6,0,0,1,56,152Zm-6,26H30a6,6,0,0,0,0,12H50a6,6,0,0,0,0-12Zm0,32H30a6,6,0,0,0,0,12H50a6,6,0,0,0,0-12Zm160-64H190a6,6,0,0,0-6,6h0a6,6,0,0,0,6,6h20a6,6,0,0,0,6-6h0A6,6,0,0,0,210,146Zm0,32H190a6,6,0,0,0-6,6h0a6,6,0,0,0,6,6h20a6,6,0,0,0,6-6h0A6,6,0,0,0,210,178Zm0,32H190a6,6,0,0,0-6,6h0a6,6,0,0,0,6,6h20a6,6,0,0,0,6-6h0A6,6,0,0,0,210,210Zm-44-90.57v28.14A10.43,10.43,0,0,1,155.57,158H84.43A10.43,10.43,0,0,1,74,147.57V119.43A10.43,10.43,0,0,1,84.43,109h71.14A10.43,10.43,0,0,1,166,119.43ZM154,121H86v25h68Zm6.46,89H79.54A5.55,5.55,0,0,0,74,215.54v.92A5.55,5.55,0,0,0,79.54,222h80.92a5.55,5.55,0,0,0,5.54-5.54v-.92A5.55,5.55,0,0,0,160.46,210Zm-.1-32H79.64A5.66,5.66,0,0,0,74,183.64v.72A5.66,5.66,0,0,0,79.64,190h80.72a5.66,5.66,0,0,0,5.64-5.64v-.72A5.66,5.66,0,0,0,160.36,178Z"/><path class="cls-2" d="M219.28,109H195V89.89C195,80.05,187.45,72,178.23,72H172V53.94A6,6,0,0,0,166.06,48H150V24.76A4.77,4.77,0,0,0,145.24,20H126V6.23A6.16,6.16,0,0,0,120.81.05,6,6,0,0,0,114,6V20H94.76A4.77,4.77,0,0,0,90,24.76V48H73.94A6,6,0,0,0,68,53.94V72H61.77C52.55,72,45,80.05,45,89.89V109H20.63A20.69,20.69,0,0,0,0,129.63V242.76A17.29,17.29,0,0,0,17.24,260H222.76A17.29,17.29,0,0,0,240,242.76v-113A20.78,20.78,0,0,0,219.28,109ZM102,32h36V48H102ZM43,248H17.24A5.26,5.26,0,0,1,12,242.76V133.87A12.91,12.91,0,0,1,24.87,121H45V248Zm13.25,0V89.89A5.73,5.73,0,0,1,61.77,84H74.65a2.66,2.66,0,0,0,1.22-.31A6,6,0,0,0,80,78V60h80V78a6,6,0,0,0,4,5.66,2.65,2.65,0,0,0,1.27.34h12.92a5.73,5.73,0,0,1,5.52,5.89V248H56.25ZM228,242.76a5.26,5.26,0,0,1-5.24,5.24H195V121h20.13A12.91,12.91,0,0,1,228,133.87Z"/></g></g></g></svg>