<svg xmlns="http://www.w3.org/2000/svg" viewBox="0 0 300 265.12"><defs><style>.cls-1{fill:#0580ff;}.cls-2{fill:#0dccbe;fill-rule:evenodd;}</style></defs><title>Roles0</title><g id="Layer_2" data-name="Layer 2"><g id="Final"><g id="Roles"><path class="cls-1" d="M47.5,204.11a25.25,25.25,0,1,0-25.25-25.25A25.24,25.24,0,0,0,47.5,204.11Zm0-38.5a13.25,13.25,0,1,1-13.25,13.25A13.26,13.26,0,0,1,47.5,165.61Zm11,48.5h-22A36.61,36.61,0,0,0,0,250.61H0a14.55,14.55,0,0,0,14.5,14.51h66A14.55,14.55,0,0,0,95,250.61h0A36.61,36.61,0,0,0,58.5,214.11Zm22,39h-66a2.54,2.54,0,0,1-2.5-2.51,24.53,24.53,0,0,1,24.5-24.5h22A24.53,24.53,0,0,1,83,250.61,2.54,2.54,0,0,1,80.5,253.12ZM218,47.5a6,6,0,0,1,8.42-1c30,23.35,33.81,54.27,33.79,78.6a6,6,0,0,1-6,6h0a6,6,0,0,1-6-6c0-40.86-14.72-57.87-29.16-69.11A6,6,0,0,1,218,47.5ZM39.76,125.05c0-24.33,3.79-55.25,33.79-78.6a6,6,0,0,1,7.37,9.47C55.18,76,51.74,102.1,51.76,125a6,6,0,0,1-6,6h0A6,6,0,0,1,39.76,125.05Zm152,79.22a6,6,0,0,1-3.87,7.55c-16.75,5.41-28.09,8.3-39.55,8.3-10.45,0-21-2.4-35.86-7.5a6,6,0,1,1,3.89-11.35c28.66,9.83,38.44,8.61,67.84-.87A6,6,0,0,1,191.71,204.27Zm35.54-25.41a25.25,25.25,0,1,0,25.25-25.25A25.24,25.24,0,0,0,227.25,178.86Zm38.5,0a13.25,13.25,0,1,1-13.25-13.25A13.26,13.26,0,0,1,265.75,178.86Zm-2.25,35.25h-22a36.61,36.61,0,0,0-36.5,36.5h0a14.55,14.55,0,0,0,14.5,14.51h66A14.55,14.55,0,0,0,300,250.61h0A36.61,36.61,0,0,0,263.5,214.11Zm22,39h-66a2.54,2.54,0,0,1-2.5-2.51,24.53,24.53,0,0,1,24.5-24.5h22a24.53,24.53,0,0,1,24.5,24.5A2.54,2.54,0,0,1,285.5,253.12Z"/><path class="cls-2" d="M149.92,30a21,21,0,1,0,21,21A21,21,0,0,0,149.92,30Zm0,29.92a9,9,0,1,1,9-9A9,9,0,0,1,149.92,59.91Zm38.67,11.17a3.94,3.94,0,0,1-1-4.42,4.07,4.07,0,0,1,3.59-2.4h.34a8.53,8.53,0,0,0,8.86-7.49,51.45,51.45,0,0,0,0-11.57h0a8.83,8.83,0,0,0-8.85-7.53,3.91,3.91,0,0,1-2.73-6.81,8.53,8.53,0,0,0,.94-11.53,50.13,50.13,0,0,0-8.07-8.14,8.5,8.5,0,0,0-11.61.93,4.39,4.39,0,0,1-4.41,1,3.94,3.94,0,0,1-2.39-3.86,8.5,8.5,0,0,0-7.5-8.93,51,51,0,0,0-11.45,0,8.53,8.53,0,0,0-7.55,8.74,4,4,0,0,1-2.42,3.81,4.44,4.44,0,0,1-4.4-1,8.54,8.54,0,0,0-11.52-1A49.86,49.86,0,0,0,110.2,19a8.52,8.52,0,0,0,.91,11.62,3.93,3.93,0,0,1,1,4.42A4.4,4.4,0,0,1,108,37.43a8.51,8.51,0,0,0-8.61,7.51,50.78,50.78,0,0,0,0,11.56c.53,4.72,4.94,7.54,8.9,7.54h.16a3.86,3.86,0,0,1,3.52,2.43,4,4,0,0,1-1,4.39,8.51,8.51,0,0,0-.94,11.5,50.45,50.45,0,0,0,8,8.15,8.5,8.5,0,0,0,11.63-.92,4.39,4.39,0,0,1,4.42-1,3.93,3.93,0,0,1,2.39,3.84,8.49,8.49,0,0,0,7.49,8.94,50,50,0,0,0,5.87.34,49.43,49.43,0,0,0,5.58-.31,8.54,8.54,0,0,0,7.56-8.75,3.94,3.94,0,0,1,2.41-3.79,4.37,4.37,0,0,1,4.42,1,8.48,8.48,0,0,0,11.51,1,51.1,51.1,0,0,0,8.23-8.14A8.51,8.51,0,0,0,188.59,71.08ZM176.52,62a15.94,15.94,0,0,0,1.72,15.37q-1.05,1.13-2.19,2.16a16.49,16.49,0,0,0-15.24-1.8,16,16,0,0,0-9.62,11.94c-1,0-2,0-2.95,0a15.94,15.94,0,0,0-9.55-12.16,16.42,16.42,0,0,0-15.35,1.74c-.72-.67-1.42-1.38-2.09-2.11A15.92,15.92,0,0,0,111,52.26c0-1,0-2.07,0-3.1a16.08,16.08,0,0,0,12.15-9.47,15.91,15.91,0,0,0-1.71-15.37c.7-.75,1.43-1.47,2.18-2.16A16.51,16.51,0,0,0,138.9,24,16,16,0,0,0,148.51,12c1,0,2,0,3,0A16,16,0,0,0,161,24.19a16.47,16.47,0,0,0,15.35-1.74c.72.67,1.42,1.38,2.09,2.11a15.87,15.87,0,0,0,10.22,24.85q.06,1.55,0,3.06A16.12,16.12,0,0,0,176.52,62ZM135,114.11v45a6,6,0,0,1-12,0v-45a6,6,0,0,1,12,0Zm44,0v29a6,6,0,0,1-12,0v-29a6,6,0,0,1,12,0Zm-22,8v12a6,6,0,0,1-12,0v-12a6,6,0,0,1,12,0Zm-44-20v20a6,6,0,0,1-12,0v-20a6,6,0,0,1,12,0Zm88,2v8a6,6,0,1,1-12,0v-8a6,6,0,0,1,12,0Z"/></g></g></g></svg>