<svg xmlns="http://www.w3.org/2000/svg" viewBox="0 0 260 260"><defs><style>.cls-1{fill:#0080ff;}.cls-2{fill:#0dccbe;}</style></defs><title>Secured0</title><g id="Layer_2" data-name="Layer 2"><g id="Final"><g id="Secured"><path class="cls-1" d="M158,47a17,17,0,1,0-17,17A17,17,0,0,0,158,47Zm-22,0a5,5,0,1,1,5,5A5,5,0,0,1,136,47Zm38,6a6,6,0,0,1,0-12h41a6,6,0,0,1,0,12Zm-16,76a17,17,0,1,0-17,17A17,17,0,0,0,158,129Zm-22,0a5,5,0,1,1,5,5A5,5,0,0,1,136,129Zm38,6a6,6,0,0,1,0-12h41a6,6,0,0,1,0,12Zm-16,76a17,17,0,1,0-17,17A17,17,0,0,0,158,211Zm-22,0a5,5,0,1,1,5,5A5,5,0,0,1,136,211Zm38,6a6,6,0,0,1,0-12h41a6,6,0,0,1,0,12ZM260,24V236a24.11,24.11,0,0,1-24,24H72a24.11,24.11,0,0,1-24-24V190H60v46a12.05,12.05,0,0,0,12,12H236a12.05,12.05,0,0,0,12-12V176H104a6,6,0,0,1,0-12H248V94H84a6,6,0,0,1,0-12H248V24a12.05,12.05,0,0,0-12-12H72A12.05,12.05,0,0,0,60,24V67H48V24A24.11,24.11,0,0,1,72,0H236A24.11,24.11,0,0,1,260,24Z"/><path class="cls-2" d="M90,111.62V97.5a36.11,36.11,0,0,0-36-36h0a36.11,36.11,0,0,0-36,36v14.12a20.19,20.19,0,0,0-18,20v46.74A20.19,20.19,0,0,0,20.13,198.5H87.87A20.19,20.19,0,0,0,108,178.37V131.63A20.19,20.19,0,0,0,90,111.62ZM30,97.5a24,24,0,0,1,48,0v14H30Zm66,80.87a8.23,8.23,0,0,1-8.13,8.13H20.13A8.23,8.23,0,0,1,12,178.37V131.63a8.23,8.23,0,0,1,8.13-8.13H87.87A8.23,8.23,0,0,1,96,131.63ZM63,155a9,9,0,1,1-9-9A9,9,0,0,1,63,155Z"/></g></g></g></svg>