<svg xmlns="http://www.w3.org/2000/svg" viewBox="0 0 280 260"><defs><style>.cls-1{fill:#0080ff;}.cls-2{fill:#0dccbe;}</style></defs><title>Succeed0</title><g id="Layer_2" data-name="Layer 2"><g id="Final"><g id="Succeed"><path class="cls-1" d="M171.89,0H18.11A18.16,18.16,0,0,0,0,18.11H0A18.17,18.17,0,0,0,18.11,36.23H20V195a25.07,25.07,0,0,0,25,25H76.46l-9.9,31.76A6,6,0,1,0,78,255.33L89,220H101l11,35.33a6,6,0,0,0,7.51,3.95h0a6,6,0,0,0,4-7.52L113.54,220H145a25.07,25.07,0,0,0,25-25V178.21a35.11,35.11,0,0,1-12-6.9V195a13,13,0,0,1-13,13H45a13,13,0,0,1-13-13V37H158V60h12V36.23h1.89A18.17,18.17,0,0,0,190,18.11h0A18.16,18.16,0,0,0,171.89,0Zm0,24.23H18.11a6.12,6.12,0,0,1,0-12.23H171.89a6.12,6.12,0,0,1,0,12.23ZM59,58a7,7,0,0,1,7,7V181a7,7,0,0,1-14,0V65A7,7,0,0,1,59,58ZM83,99a7,7,0,0,1,7,7v75a7,7,0,0,1-14,0V106A7,7,0,0,1,83,99Zm24,51a7,7,0,0,1,7,7v24a7,7,0,0,1-14,0V157A7,7,0,0,1,107,150Z"/><path class="cls-2" d="M176.35,127.44l-1.84,10.74a6.08,6.08,0,0,0,8.84,6.42l9.65-5.07,9.65,5.07a6.09,6.09,0,0,0,8.84-6.42l-1.84-10.74,7.8-7.61a6.1,6.1,0,0,0-3.37-10.4l-10.79-1.56-4.83-9.78h0a6.08,6.08,0,0,0-10.92,0l-4.83,9.78-10.79,1.56a6.09,6.09,0,0,0-3.37,10.4Zm9.83-10a6.1,6.1,0,0,0,4.59-3.34l2.23-4.52,2.23,4.52a6.1,6.1,0,0,0,4.59,3.34l5,.72-3.61,3.53a6.07,6.07,0,0,0-1.75,5.38l.86,5-4.46-2.34A6.1,6.1,0,0,0,193,129a6.18,6.18,0,0,0-2.84.7l-4.46,2.35.85-5a6.05,6.05,0,0,0-1.75-5.4l-3.6-3.52ZM272,72H240V68.19A8.19,8.19,0,0,0,231.81,60H154.19A8.19,8.19,0,0,0,146,68.19V72H114.07a8,8,0,0,0-8,8v27.07a44.07,44.07,0,0,0,40.43,43.78,35.17,35.17,0,0,0,29.75,28.82V228H169a16,16,0,0,0,0,32h49a16,16,0,0,0,0-32h-8.75V179.73a35.17,35.17,0,0,0,30.25-28.88A44.07,44.07,0,0,0,280,107.07V80A8,8,0,0,0,272,72ZM118.07,107.07V84H146v54.75A32,32,0,0,1,118.07,107.07ZM222,244a4.05,4.05,0,0,1-4,4H169a4,4,0,0,1,0-8h49A4.05,4.05,0,0,1,222,244Zm-33.75-16V180h9v48ZM228,145a23,23,0,0,1-23,23H181a23,23,0,0,1-23-23V72h70Zm40-37.93a32,32,0,0,1-27.93,31.68V84H268Z"/></g></g></g></svg>