<?xml version="1.0" encoding="UTF-8"?>
<svg width="45px" height="45px" viewBox="0 0 45 45" version="1.1" xmlns="http://www.w3.org/2000/svg" xmlns:xlink="http://www.w3.org/1999/xlink">
    <!-- Generator: Sketch 52.4 (67378) - http://www.bohemiancoding.com/sketch -->
    <title>Group 2</title>
    <desc>Created with Sketch.</desc>
    <g id="Landing-page" stroke="none" stroke-width="1" fill="none" fill-rule="evenodd">
        <g id="Downgrade-plan-[2]" transform="translate(-636.000000, -574.000000)">
            <g id="We-got-all-the-key-features" transform="translate(500.000000, 191.000000)">
                <g id="List" transform="translate(136.000000, 305.000000)">
                    <g id="Group-2" transform="translate(0.000000, 78.000000)">
                        <rect id="Rectangle-2" stroke="#ECEFF1" stroke-width="2" x="1" y="1" width="43" height="43" rx="21.5"></rect>
                        <path d="M23,16.9 C24.2,16.9 25.1,17.8 25.1,19 C25.1,20.2 24.2,21.1 23,21.1 C21.8,21.1 20.9,20.2 20.9,19 C20.9,17.8 21.8,16.9 23,16.9 L23,16.9 Z M23,25.9 C26,25.9 29.1,27.4 29.1,28 L29.1,29.1 L16.9,29.1 L16.9,28 C16.9,27.4 20,25.9 23,25.9 L23,25.9 Z M23,15 C20.8,15 19,16.8 19,19 C19,21.2 20.8,23 23,23 C25.2,23 27,21.2 27,19 C27,16.8 25.2,15 23,15 L23,15 L23,15 Z M23,24 C20.3,24 15,25.3 15,28 L15,31 L31,31 L31,28 C31,25.3 25.7,24 23,24 L23,24 L23,24 Z" id="Shape" fill="#B2BEC4"></path>
                    </g>
                </g>
            </g>
        </g>
    </g>
</svg>