<svg xmlns="http://www.w3.org/2000/svg" viewBox="0 0 260.09 260"><defs><style>.cls-1{fill:#0080ff;}.cls-2{fill:#0dccbe;}</style></defs><title>Export0</title><g id="Layer_2" data-name="Layer 2"><g id="Final"><g id="Export"><path class="cls-1" d="M203,70.51h0a5.56,5.56,0,0,0-.1-1,4.15,4.15,0,0,0-.11-.48c0-.07,0-.15-.07-.23a5.88,5.88,0,0,0-1.47-2.53L136.74,1.75A5.88,5.88,0,0,0,134.21.28L134,.21A4.15,4.15,0,0,0,133.5.1a5.56,5.56,0,0,0-1-.1H24A24.07,24.07,0,0,0,0,24V236a24.07,24.07,0,0,0,24,24H179a24.07,24.07,0,0,0,24-24V209.87a6,6,0,0,0-6-6h0a6,6,0,0,0-6,6V236a12,12,0,0,1-12,12H24a12,12,0,0,1-12-12V24A12,12,0,0,1,24,12H130V53a20.1,20.1,0,0,0,20,20h41v73.56a6,6,0,0,0,6,6h0a6,6,0,0,0,6-6v-76ZM142,53V24l37,37H150A8.15,8.15,0,0,1,142,53ZM32,46a6,6,0,0,1,6-6H79a6,6,0,0,1,0,12H38A6,6,0,0,1,32,46Zm0,42a6,6,0,0,1,6-6h67a6,6,0,0,1,0,12H38A6,6,0,0,1,32,88Zm0,42a6,6,0,0,1,6-6H82a6,6,0,0,1,0,12H38A6,6,0,0,1,32,130Zm84,48H38a6,6,0,0,1,0-12h78a6,6,0,0,1,0,12Zm-13,30a6,6,0,0,1,0,12H38a6,6,0,0,1,0-12Z"/><path class="cls-2" d="M258.31,183.25,224.06,217a6,6,0,0,1-8.42-8.54l24.66-24.31-92.43-.63a5.65,5.65,0,1,1,.07-11.3l92,.62-24-24.4A6,6,0,1,1,224.4,140l33.83,34.32a5.85,5.85,0,0,1,1.4,2.33A6,6,0,0,1,258.31,183.25Z"/></g></g></g></svg>