<svg xmlns="http://www.w3.org/2000/svg" viewBox="0 0 242 260"><defs><style>.cls-1{fill:#0dccbe;}.cls-2{fill:#0080ff;}</style></defs><title>Free0</title><g id="Layer_2" data-name="Layer 2"><g id="Final"><g id="Free"><path class="cls-1" d="M104.71,140H73.29A11.32,11.32,0,0,0,62,151.29v97.42A11.32,11.32,0,0,0,73.29,260h31.42A11.32,11.32,0,0,0,116,248.71V151.29A11.32,11.32,0,0,0,104.71,140ZM104,152v42H74V152ZM74,248V206h30v42Zm98.68-108H146.32A17.37,17.37,0,0,0,129,157.32v14.36A17.37,17.37,0,0,0,146.32,189h26.36A17.37,17.37,0,0,0,190,171.68V157.32A17.37,17.37,0,0,0,172.68,140ZM178,171.68a5.4,5.4,0,0,1-5.32,5.32H146.32a5.4,5.4,0,0,1-5.32-5.32V157.32a5.4,5.4,0,0,1,5.32-5.32h26.36a5.4,5.4,0,0,1,5.32,5.32Z"/><path class="cls-2" d="M241.63,86.74a6.17,6.17,0,0,0-.39-1.36L216.78,27.64A6,6,0,0,0,211,24H156.5V10.69A10.72,10.72,0,0,0,145.81,0H96.19A10.72,10.72,0,0,0,85.5,10.69V24H30a6,6,0,0,0-5.84,4.82L.49,84.57a5.93,5.93,0,0,0-.4,3.2A5.64,5.64,0,0,0,0,88.7V112c0,9.47,7.3,17.63,16.78,18a17.34,17.34,0,0,0,12.29-4.39c.31.27.61.55.93.79V239.67A20.39,20.39,0,0,0,50.33,260H191.67A20.39,20.39,0,0,0,212,239.67V124.47c.34-.26.68-.53,1-.82A17.34,17.34,0,0,0,225.26,128c9.46-.41,16.74-8.56,16.74-18V88.74A5.77,5.77,0,0,0,241.63,86.74ZM207,110.24a5.71,5.71,0,0,1-3.59,5.41A5.53,5.53,0,0,1,196,110.5V95h11Zm-23-.32v.32a5.71,5.71,0,0,1-3.59,5.41A5.53,5.53,0,0,1,173,110.5V95h11Zm-23,0v.32a5.71,5.71,0,0,1-3.59,5.41A5.53,5.53,0,0,1,150,110.5V95h11Zm-23,0v.32a5.71,5.71,0,0,1-3.59,5.41A5.53,5.53,0,0,1,127,110.5V95h11Zm-23,0v.32a5.71,5.71,0,0,1-3.59,5.41A5.53,5.53,0,0,1,104,110.5V95h11Zm-23,0v.32a5.71,5.71,0,0,1-3.59,5.41A5.53,5.53,0,0,1,81,110.5V95H92Zm-23,0v.32a5.71,5.71,0,0,1-3.59,5.41A5.53,5.53,0,0,1,58,110.5V95H69ZM35,112.5V95H46v17.24a5.71,5.71,0,0,1-3.59,5.41A5.53,5.53,0,0,1,35,112.5ZM195.93,83H14.19L34.1,36H207.29L227.2,83ZM97.5,12h47V24h-47ZM23,112.24a5.71,5.71,0,0,1-3.59,5.41A5.53,5.53,0,0,1,12,112.5V95H23v17.24ZM191.67,248H50.33A8.33,8.33,0,0,1,42,239.67V129.93a17.51,17.51,0,0,0,11.18-5.41A17.13,17.13,0,0,0,64.88,128a17.43,17.43,0,0,0,10.19-4.36A17.11,17.11,0,0,0,87.88,128a17.43,17.43,0,0,0,10.19-4.36A17.11,17.11,0,0,0,110.88,128a17.43,17.43,0,0,0,10.19-4.36A17.11,17.11,0,0,0,133.88,128a17.43,17.43,0,0,0,10.19-4.36A17.11,17.11,0,0,0,156.88,128a17.43,17.43,0,0,0,10.19-4.36A17.11,17.11,0,0,0,179.88,128a17.43,17.43,0,0,0,10.19-4.36,17.09,17.09,0,0,0,9.93,4.32V239.67A8.33,8.33,0,0,1,191.67,248Zm30.92-132.35a5.71,5.71,0,0,1-3.59-5.41V95h11v15.5A5.53,5.53,0,0,1,222.59,115.65Z"/></g></g></g></svg>