<svg xmlns="http://www.w3.org/2000/svg" viewBox="0 0 260 260"><defs><style>.cls-1{fill:#0dccbe;}.cls-2{fill:#0080ff;}</style></defs><title>Password0</title><g id="Layer_2" data-name="Layer 2"><g id="Final"><g id="Password"><path class="cls-1" d="M90,111.62V97.5a36.11,36.11,0,0,0-36-36h0a36.11,36.11,0,0,0-36,36v14.12a20.19,20.19,0,0,0-18,20v46.74A20.19,20.19,0,0,0,20.13,198.5H87.87A20.19,20.19,0,0,0,108,178.37V131.63A20.19,20.19,0,0,0,90,111.62ZM30,97.5a24,24,0,0,1,48,0v14H30Zm66,80.87a8.23,8.23,0,0,1-8.13,8.13H20.13A8.23,8.23,0,0,1,12,178.37V131.63a8.23,8.23,0,0,1,8.13-8.13H87.87A8.23,8.23,0,0,1,96,131.63ZM63,155a9,9,0,1,1-9-9A9,9,0,0,1,63,155Z"/><path class="cls-2" d="M128,72.5a6,6,0,0,1,6-6h84a6,6,0,0,1,0,12H134A6,6,0,0,1,128,72.5Zm6,42h54a6,6,0,0,0,0-12H134a6,6,0,0,0,0,12ZM235.44,0H72.56A24.63,24.63,0,0,0,48,24.56V43.5a6,6,0,0,0,12,0V24.56A12.56,12.56,0,0,1,72.56,12H235.44A12.56,12.56,0,0,1,248,24.56V235.44A12.56,12.56,0,0,1,235.44,248H72.56A12.56,12.56,0,0,1,60,235.44V216.5a6,6,0,0,0-12,0v18.94A24.63,24.63,0,0,0,72.56,260H235.44A24.63,24.63,0,0,0,260,235.44V24.56A24.63,24.63,0,0,0,235.44,0ZM134,150.5h30a6,6,0,0,0,0-12H134a6,6,0,0,0,0,12Zm0,36h73a6,6,0,0,0,0-12H134a6,6,0,0,0,0,12Z"/></g></g></g></svg>