<svg xmlns="http://www.w3.org/2000/svg" viewBox="0 0 270 260"><defs><style>.cls-1{fill:#0080ff;}.cls-2{fill:#0dccbe;}</style></defs><title>Plan0</title><g id="Layer_2" data-name="Layer 2"><g id="Final"><g id="Plan"><path class="cls-1" d="M246.72,26h-98A23.43,23.43,0,0,1,150,33.57V38h20V248H75.28A11.29,11.29,0,0,1,64,236.72V150H52v86.72A23.35,23.35,0,0,0,75.28,260H246.72A23.35,23.35,0,0,0,270,236.72V49.28A23.35,23.35,0,0,0,246.72,26ZM258,236.72A11.29,11.29,0,0,1,246.72,248H182V38h64.72A11.29,11.29,0,0,1,258,49.28ZM237,64h0a6,6,0,0,1-6,6H208a6,6,0,0,1-6-6h0a6,6,0,0,1,6-6h23A6,6,0,0,1,237,64Zm0,32h0a6,6,0,0,1-6,6H208a6,6,0,0,1-6-6h0a6,6,0,0,1,6-6h23A6,6,0,0,1,237,96Zm0,32h0a6,6,0,0,1-6,6H208a6,6,0,0,1-6-6h0a6,6,0,0,1,6-6h23A6,6,0,0,1,237,128Zm0,32h0a6,6,0,0,1-6,6H208a6,6,0,0,1-6-6h0a6,6,0,0,1,6-6h23A6,6,0,0,1,237,160Zm0,32h0a6,6,0,0,1-6,6H208a6,6,0,0,1-6-6h0a6,6,0,0,1,6-6h23A6,6,0,0,1,237,192Zm0,32h0a6,6,0,0,1-6,6H208a6,6,0,0,1-6-6h0a6,6,0,0,1,6-6h23A6,6,0,0,1,237,224ZM97.69,230h37.62A13.73,13.73,0,0,0,149,216.31V183.69A13.73,13.73,0,0,0,135.31,170H97.69A13.73,13.73,0,0,0,84,183.69v32.62A13.73,13.73,0,0,0,97.69,230ZM97,183.69a.73.73,0,0,1,.69-.69h37.62a.73.73,0,0,1,.69.69v32.62a.73.73,0,0,1-.69.69H97.69a.73.73,0,0,1-.69-.69Z"/><path class="cls-2" d="M89,90h0a6,6,0,0,1-6,6H66.46a6,6,0,0,1-6-6h0a6,6,0,0,1,6-6H83A6,6,0,0,1,89,90ZM44.54,106H28a6,6,0,0,0-6,6h0a6,6,0,0,0,6,6H44.54a6,6,0,0,0,6-6h0A6,6,0,0,0,44.54,106ZM83,106H66.46a6,6,0,0,0-6,6h0a6,6,0,0,0,6,6H83a6,6,0,0,0,6-6h0A6,6,0,0,0,83,106Zm38-22H104.46a6,6,0,0,0-6,6h0a6,6,0,0,0,6,6H121a6,6,0,0,0,6-6h0A6,6,0,0,0,121,84Zm0,22H104.46a6,6,0,0,0-6,6h0a6,6,0,0,0,6,6H121a6,6,0,0,0,6-6h0A6,6,0,0,0,121,106Zm29-72.72v93.44A23.35,23.35,0,0,1,126.72,150H23.28A23.35,23.35,0,0,1,0,126.72V33.28A23.35,23.35,0,0,1,23.28,10H32V6a6,6,0,0,1,6-6h0a6,6,0,0,1,6,6v4h62V6a6,6,0,0,1,6-6h0a6,6,0,0,1,6,6v4h8.72A23.35,23.35,0,0,1,150,33.28Zm-138,0V52H138V33.28A11.29,11.29,0,0,0,126.72,22H118v4a6,6,0,0,1-6,6h0a6,6,0,0,1-6-6V22H44v4a6,6,0,0,1-6,6h0a6,6,0,0,1-6-6V22H23.28A11.29,11.29,0,0,0,12,33.28Zm126,93.44V64H12v62.72A11.29,11.29,0,0,0,23.28,138H126.72A11.29,11.29,0,0,0,138,126.72Z"/></g></g></g></svg>