<svg xmlns="http://www.w3.org/2000/svg" viewBox="0 0 260 260"><defs><style>.cls-1{fill:#0080ff;}.cls-2{fill:#0dccbe;fill-rule:evenodd;}</style></defs><title>RealTime0</title><g id="Layer_2" data-name="Layer 2"><g id="Final"><g id="RealTime"><path class="cls-1" d="M82,200a6,6,0,0,1,6-6h54.71a6,6,0,1,1,0,12H88A6,6,0,0,1,82,200Zm6,28h39a6,6,0,0,0,0-12H88a6,6,0,0,0,0,12Zm79.29-22H222a6,6,0,0,0,0-12H167.29a6,6,0,1,0,0,12Zm0,22H222a6,6,0,0,0,0-12H167.29a6,6,0,1,0,0,12ZM235.93,90H203v12h32.93A12.09,12.09,0,0,1,248,114.07V235.93A12.09,12.09,0,0,1,235.93,248H74.07A12.09,12.09,0,0,1,62,235.93V161H50v74.93A24.14,24.14,0,0,0,74.07,260H235.93A24.14,24.14,0,0,0,260,235.93V114.07A24.14,24.14,0,0,0,235.93,90Z"/><path class="cls-2" d="M185.93,0H24.07A24.14,24.14,0,0,0,0,24.07V145.93A24.14,24.14,0,0,0,24.07,170H185.93A24.14,24.14,0,0,0,210,145.93V24.07A24.14,24.14,0,0,0,185.93,0ZM198,145.93A12.09,12.09,0,0,1,185.93,158H24.07A12.09,12.09,0,0,1,12,145.93V24.07A12.09,12.09,0,0,1,24.07,12H185.93A12.09,12.09,0,0,1,198,24.07ZM105,66A17,17,0,1,0,88,49,17,17,0,0,0,105,66Zm0-22a5,5,0,1,1-5,5A5,5,0,0,1,105,44Zm73,38a6,6,0,0,1-6,6H38a6,6,0,0,1,0-12H172A6,6,0,0,1,178,82ZM98.71,110a6,6,0,0,1-6,6H38a6,6,0,0,1,0-12H92.71A6,6,0,0,1,98.71,110ZM83,132a6,6,0,0,1-6,6H38a6,6,0,0,1,0-12H77A6,6,0,0,1,83,132Zm95-22a6,6,0,0,1-6,6H117.29a6,6,0,0,1,0-12H172A6,6,0,0,1,178,110Zm0,22a6,6,0,0,1-6,6H117.29a6,6,0,0,1,0-12H172A6,6,0,0,1,178,132Z"/></g></g></g></svg>