<svg xmlns="http://www.w3.org/2000/svg" viewBox="0 0 260 260"><defs><style>.cls-1{fill:#0dccbe;}.cls-2{fill:#0080ff;}</style></defs><title>register0</title><g id="Layer_2" data-name="Layer 2"><g id="Final"><g id="register"><path class="cls-1" d="M28.5,55C13.09,53.72,0,64.52,0,77.9v100a5.48,5.48,0,0,0,1.29,3.51,5.64,5.64,0,0,0,1,1.65L20,202.3a6.49,6.49,0,0,0,3.13,1.86A7.17,7.17,0,0,0,31.74,203l18.2-19.85a5.46,5.46,0,0,0,1.28-2.43A5.4,5.4,0,0,0,52,177.9V78.48C52,66.53,42,56.14,28.5,55ZM26.15,190l-8.78-9.59L26,177.31l8.85,3.19Zm12.28-21.19-8-2.9a7.28,7.28,0,0,0-4.13-1.21,7.33,7.33,0,0,0-4.8,1.28l-7.9,2.85V90.9H38.43Zm0-89.93H13.57v-.63c0-5.75,4.81-10.81,11.29-11.32,7.37-.59,13.57,4.55,13.57,11Z"/><path class="cls-2" d="M260,24.1V235.9c0,13.26-12,24.1-26.73,24.1H46.73C32,260,20,249.16,20,235.9V223.65a6.66,6.66,0,0,1,13.31,0V235.9c0,6.67,6,12.1,13.42,12.1H233.27c7.4,0,13.42-5.43,13.42-12.1V24.1c0-6.67-6-12.1-13.42-12.1H46.73c-7.4,0-13.42,5.43-13.42,12.1V36.35a6.66,6.66,0,0,1-13.31,0V24.1C20,10.84,32,0,46.73,0H233.27C248,0,260,10.84,260,24.1ZM83,82H220a6,6,0,0,0,0-12H83a6,6,0,0,0,0,12Zm0,36h98a6,6,0,0,0,0-12H83a6,6,0,0,0,0,12Zm0,36h59a6,6,0,0,0,0-12H83a6,6,0,0,0,0,12Zm0,36h22a6,6,0,0,0,0-12H83a6,6,0,0,0,0,12Z"/></g></g></g></svg>