<svg xmlns="http://www.w3.org/2000/svg" viewBox="0 0 300 260.5"><defs><style>.cls-1{fill:#0080ff;}.cls-2{fill:#0dccbe;}</style></defs><title>Teams0</title><g id="Layer_2" data-name="Layer 2"><g id="Final"><g id="Teams"><path class="cls-1" d="M148.5,50.5a25.25,25.25,0,1,0-25.25-25.25A25.24,25.24,0,0,0,148.5,50.5Zm0-38.5a13.25,13.25,0,1,1-13.25,13.25A13.26,13.26,0,0,1,148.5,12Zm11,48.5h-22A36.6,36.6,0,0,0,101,97a14.54,14.54,0,0,0,14.5,14.5h66A14.54,14.54,0,0,0,196,97,36.6,36.6,0,0,0,159.5,60.5Zm22,39h-66A2.53,2.53,0,0,1,113,97a24.53,24.53,0,0,1,24.5-24.5h22A24.53,24.53,0,0,1,184,97,2.53,2.53,0,0,1,181.5,99.5Zm-134,100a25.25,25.25,0,1,0-25.25-25.25A25.24,25.24,0,0,0,47.5,199.5Zm0-38.5a13.25,13.25,0,1,1-13.25,13.25A13.26,13.26,0,0,1,47.5,161Zm11,48.5h-22A36.6,36.6,0,0,0,0,246H0a14.54,14.54,0,0,0,14.5,14.5h66A14.54,14.54,0,0,0,95,246h0A36.6,36.6,0,0,0,58.5,209.5Zm22,39h-66A2.53,2.53,0,0,1,12,246a24.53,24.53,0,0,1,24.5-24.5h22A24.53,24.53,0,0,1,83,246,2.53,2.53,0,0,1,80.5,248.5ZM260.24,120.43a6,6,0,0,1-6,6h0a6,6,0,0,1-6-6c0-40.86-14.72-57.87-29.16-69.11a6,6,0,0,1,7.37-9.47C256.45,65.19,260.26,96.11,260.24,120.43Zm-220.48,0c0-24.32,3.79-55.24,33.79-78.59a6,6,0,0,1,7.37,9.47c-25.74,20-29.18,46.18-29.16,69.11a6,6,0,0,1-6,6h0A6,6,0,0,1,39.76,120.43Zm152,79.23a6,6,0,0,1-3.87,7.55c-16.75,5.41-28.09,8.3-39.55,8.3-10.45,0-21-2.4-35.86-7.5a6,6,0,1,1,3.89-11.35c28.66,9.83,38.44,8.61,67.84-.87A6,6,0,0,1,191.71,199.66Z"/><path class="cls-2" d="M252.5,199.5a25.25,25.25,0,1,0-25.25-25.25A25.24,25.24,0,0,0,252.5,199.5Zm0-38.5a13.25,13.25,0,1,1-13.25,13.25A13.26,13.26,0,0,1,252.5,161Zm11,48.5h-22A36.6,36.6,0,0,0,205,246h0a14.54,14.54,0,0,0,14.5,14.5h66A14.54,14.54,0,0,0,300,246h0A36.61,36.61,0,0,0,263.5,209.5Zm22,39h-66A2.53,2.53,0,0,1,217,246a24.53,24.53,0,0,1,24.5-24.5h22A24.53,24.53,0,0,1,288,246,2.53,2.53,0,0,1,285.5,248.5Z"/></g></g></g></svg>