<svg xmlns="http://www.w3.org/2000/svg" viewBox="0 0 260 260"><defs><style>.cls-1{fill:#0080ff;}.cls-2{fill:#0dccbe;}</style></defs><title>Track0</title><g id="Layer_2" data-name="Layer 2"><g id="Final"><g id="Track"><path class="cls-1" d="M224,24.05V152H212V24.05A12.07,12.07,0,0,0,200,12H56.05A12.07,12.07,0,0,0,44,24.05V38H32V24.05a24.12,24.12,0,0,1,24-24H200A24.12,24.12,0,0,1,224,24.05ZM212,236A12.07,12.07,0,0,1,200,248H56.05A12.07,12.07,0,0,1,44,236V128H32V236a24.12,24.12,0,0,0,24,24.05H200A24.12,24.12,0,0,0,224,236V222H212ZM137,64h45a6,6,0,0,0,0-12H137a6,6,0,0,0,0,12Zm0,22h18a6,6,0,0,0,0-12H137a6,6,0,0,0,0,12Zm0,22h31a6,6,0,0,0,0-12H137a6,6,0,0,0,0,12ZM60,147a6,6,0,0,0,0,12h68a6,6,0,0,0,0-12Zm0,34H84a6,6,0,0,0,0-12H60a6,6,0,0,0,0,12Zm0,22h53a6,6,0,0,0,0-12H60a6,6,0,0,0,0,12Zm0,22h41a6,6,0,0,0,0-12H60a6,6,0,0,0,0,12Z"/><path class="cls-2" d="M87.4,32H23.6A23.67,23.67,0,0,0,0,55.6v50.8A23.67,23.67,0,0,0,23.6,130H87.4A23.67,23.67,0,0,0,111,106.4V55.6A23.67,23.67,0,0,0,87.4,32ZM99,106.4A11.62,11.62,0,0,1,87.4,118H23.6A11.62,11.62,0,0,1,12,106.4V55.6A11.62,11.62,0,0,1,23.6,44H87.4A11.62,11.62,0,0,1,99,55.6ZM32,70a6,6,0,0,1,6-6H52a6,6,0,0,1,0,12H38A6,6,0,0,1,32,70ZM80,92a6,6,0,0,1-6,6H38a6,6,0,0,1,0-12H74A6,6,0,0,1,80,92Z"/><path class="cls-2" d="M236.4,147H202.6A23.67,23.67,0,0,0,179,170.6v33.8A23.67,23.67,0,0,0,202.6,228h33.8A23.67,23.67,0,0,0,260,204.4V170.6A23.67,23.67,0,0,0,236.4,147ZM248,204.4A11.62,11.62,0,0,1,236.4,216H202.6A11.62,11.62,0,0,1,191,204.4V170.6A11.62,11.62,0,0,1,202.6,159h33.8A11.62,11.62,0,0,1,248,170.6Zm-9.25-30.65a6,6,0,0,1,0,8.49l-19.67,19.67a5.89,5.89,0,0,1-2.77,1.54,6,6,0,0,1-6.6-1.26l-9.9-9.9a6,6,0,0,1,8.48-8.48l6,5.95,16-16A6,6,0,0,1,238.75,173.75Z"/></g></g></g></svg>