<svg xmlns="http://www.w3.org/2000/svg" viewBox="0 0 436.14 510.85"><defs><style>.cls-1{fill:#0dccbe;}.cls-2{fill:#0080ff;}</style></defs><title>Asset 360</title><g id="Layer_2" data-name="Layer 2"><g id="Task_Final"><path class="cls-1" d="M350.67,191.66h0a15,15,0,0,0-21.21,0L175.79,345.33l-69.11-69.1a15,15,0,0,0-21.21,0h0a15,15,0,0,0,0,21.21l79.38,79.38a15.77,15.77,0,0,0,21.79.08l164-164A15,15,0,0,0,350.67,191.66Z"/><path class="cls-2" d="M397.9,57.7H346.81a36.07,36.07,0,0,0-35.33-29H268.16A36.9,36.9,0,0,0,232.23,0H203.91A36.9,36.9,0,0,0,168,28.67H124.66a36.07,36.07,0,0,0-35.33,29H38.24A38.29,38.29,0,0,0,0,96V472.6a38.29,38.29,0,0,0,38.24,38.25H397.9a38.29,38.29,0,0,0,38.24-38.25V96A38.29,38.29,0,0,0,397.9,57.7Zm-278.25,7a5.08,5.08,0,0,1,5-5h55.87a17.55,17.55,0,0,0,17.53-17.54V36.85A5.93,5.93,0,0,1,203.91,31h28.32a5.93,5.93,0,0,1,5.85,5.85v5.28a17.55,17.55,0,0,0,17.53,17.54h55.87a5.07,5.07,0,0,1,5,5v16.4a5.08,5.08,0,0,1-5,5H124.66a5.09,5.09,0,0,1-5-5ZM405.14,472.6a7.25,7.25,0,0,1-7.24,7.25H38.24A7.25,7.25,0,0,1,31,472.6V96a7.25,7.25,0,0,1,7.24-7.25H89.47a36.08,36.08,0,0,0,35.19,28.4H311.48a36.07,36.07,0,0,0,35.19-28.4H397.9A7.25,7.25,0,0,1,405.14,96Z"/></g></g></svg>