<svg xmlns="http://www.w3.org/2000/svg" viewBox="0 0 450.86 512.09"><defs><style>.cls-1{fill:#0dccbe;}.cls-2{fill:#0080ff;}</style></defs><title>Asset 340</title><g id="Layer_2" data-name="Layer 2"><g id="Notification_Final"><path class="cls-1" d="M163.87,108V61.56A61.74,61.74,0,0,1,225.43,0h0A61.74,61.74,0,0,1,287,61.56V108H257V61.56a31.56,31.56,0,0,0-63.11,0V108Z"/><path class="cls-2" d="M232.52,115.05A127.63,127.63,0,0,1,359.67,242.21V366.4l6.22,8.09L404,424H299.87a13.07,13.07,0,0,0-12.12,8.17l-4.28,10.58a63.17,63.17,0,0,1-22.77,28.34,62,62,0,0,1-70.54,0,63.1,63.1,0,0,1-22.77-28.34l-4.28-10.58A13.07,13.07,0,0,0,151,424H46.9L85,374.49l6.21-8.09V242.21A127.63,127.63,0,0,1,218.34,115.05h14.18m0-30H218.34c-86.44,0-157.16,70.72-157.16,157.16v114L2.85,432.07A13.63,13.63,0,0,0,13.65,454H139.58a92.86,92.86,0,0,0,85.85,58.09h0A92.87,92.87,0,0,0,311.28,454H437.2A13.63,13.63,0,0,0,448,432.07L389.67,356.2v-114c0-86.44-70.72-157.16-157.15-157.16Z"/></g></g></svg>