<svg xmlns="http://www.w3.org/2000/svg" viewBox="0 0 594 499"><defs><style>.cls-1{fill:#0dccbe;fill-rule:evenodd;}.cls-2{fill:#0080ff;}</style></defs><title>cards0</title><g id="Layer_2" data-name="Layer 2"><g id="cards"><path class="cls-1" d="M425.5,439h-20a15,15,0,0,1,0-30h20a15,15,0,0,1,0,30Zm-121-114H74.5a15,15,0,0,1,0-30h230a15,15,0,0,1,0,30Zm-160-76h-70a15,15,0,1,1,0-30h70a15,15,0,0,1,0,30Zm-70,160h110a15,15,0,0,1,0,30H74.5a15,15,0,0,1,0-30Z"/><path id="cards-2" data-name="cards" class="cls-2" d="M579,0H109A15,15,0,0,0,94,15V159H15A15,15,0,0,0,0,174V484a15,15,0,0,0,15,15H485a15,15,0,0,0,15-15V340h79a15,15,0,0,0,15-15V15A15,15,0,0,0,579,0ZM470,469H30V189H470Zm94-159H500V174a15,15,0,0,0-15-15H124V30H564Z"/></g></g></svg>