<svg xmlns="http://www.w3.org/2000/svg" viewBox="0 0 500 500"><defs><style>.cls-1{isolation:isolate;}.cls-2{fill:#0dccbe;fill-rule:evenodd;}.cls-3{fill:#0080ff;}</style></defs><title>phase0</title><g id="Layer_2" data-name="Layer 2"><g id="phase" class="cls-1"><path class="cls-2" d="M395,235H292.43A45.13,45.13,0,0,0,265,207.57V105a15,15,0,0,0-30,0V207.57A45,45,0,1,0,292.43,265H395a15,15,0,0,0,0-30ZM250,265a15,15,0,1,1,15-15A15,15,0,0,1,250,265Z"/><path id="phase-2" data-name="phase" class="cls-3" d="M250,0C111.93,0,0,111.93,0,250S111.93,500,250,500,500,388.07,500,250,388.07,0,250,0Zm0,470C128.5,470,30,371.5,30,250S128.5,30,250,30s220,98.5,220,220S371.5,470,250,470Z"/></g></g></svg>