<svg xmlns="http://www.w3.org/2000/svg" viewBox="0 0 320 499.99"><defs><style>.cls-1{isolation:isolate;}.cls-2{fill:#0080ff;}.cls-3{fill:#0dccbe;fill-rule:evenodd;}</style></defs><title>private-boards0</title><g id="Layer_2" data-name="Layer 2"><g id="private-boards" class="cls-1"><path id="private-boards-2" data-name="private-boards" class="cls-2" d="M305,60H240V15A15,15,0,0,0,225,0H95A15,15,0,0,0,80,15V60H15A15,15,0,0,0,0,75V345a15,15,0,0,0,15,15H75.81L8.52,476.55a15,15,0,1,0,26,15l76-131.55H210.73L287,492.47a15,15,0,1,0,26-15L245.36,360H305a15,15,0,0,0,15-15V75A15,15,0,0,0,305,60ZM110,30H210V60H110ZM290,330H30V90H290Z"/><path class="cls-3" d="M160,145a30,30,0,0,0-15,56v59a15,15,0,0,0,30,0V201a30,30,0,0,0-15-56Z"/></g></g></svg>