<svg xmlns="http://www.w3.org/2000/svg" viewBox="0 0 520 500"><defs><style>.cls-1{fill:#0dccbe;fill-rule:evenodd;}.cls-2{fill:#0080ff;}</style></defs><title>release0</title><g id="Layer_2" data-name="Layer 2"><g id="release"><path class="cls-1" d="M170,349V455a45,45,0,0,1-90,0V349h30V455a15,15,0,0,0,30,0V349Z"/><path id="release-2" data-name="release" class="cls-2" d="M460,0a60,60,0,0,0-51.86,29.84h-.36A222,222,0,0,1,211,149c-2.94,0-5.87-.08-8.79-.19-2.92.14-5.25.18-6.68.19H80a30,30,0,0,0-30,30v20a50,50,0,0,0,0,100v20a30,30,0,0,0,30,30H194.84l6.65,0c2.93,0,5.89,0,8.84,0A222.22,222.22,0,0,1,404.74,463.4,60,60,0,0,0,520,440V60A60,60,0,0,0,460,0ZM50,269a20,20,0,0,1,0-40Zm150,50H95a15,15,0,0,1-15-15V194a15,15,0,0,1,15-15H200Zm200,80a221.87,221.87,0,0,0-170-81V180A221.53,221.53,0,0,0,400,99.57Zm90,41a30,30,0,0,1-60,0V60a30,30,0,0,1,60,0Z"/></g></g></svg>