<svg xmlns="http://www.w3.org/2000/svg" viewBox="0 0 490.39 512"><defs><style>.cls-1{isolation:isolate;}.cls-2{fill:#0dccbe;fill-rule:evenodd;}.cls-3{fill:#0080ff;}</style></defs><title>role0</title><g id="Layer_2" data-name="Layer 2"><g id="role" class="cls-1"><path class="cls-2" d="M385.73,306.14l79.06-79.06A15,15,0,0,1,487.91,246L252.3,481.57a15,15,0,0,0-1.91,2.34l-10.61,10.61a14.67,14.67,0,0,1-1,1.1,14.83,14.83,0,0,1-2.59,2.06,15,15,0,0,1-18.9-1.9,15.33,15.33,0,0,1-1.93-2.36l-82.65-82.65a15,15,0,1,1,21.21-21.22l74.2,74.2L364.29,327.58l-.33-.24m0,0L385.4,305.9l.33.24"/><path id="role-2" data-name="role" class="cls-3" d="M336.75,277.26A239,239,0,0,0,240.23,257C108.61,257,1.76,363,.27,494.22A15,15,0,0,0,15,512a15.18,15.18,0,0,0,15.22-15c0-.1,0-.21,0-.3C30.39,380.88,124.35,287,240.23,287a209,209,0,0,1,87.43,19.05A15.76,15.76,0,0,0,334,307a15,15,0,0,0,2.75-29.74ZM480.22,496.75v0a238.85,238.85,0,0,0-39.34-131.38A15,15,0,0,0,412,371c0,4,1.13,7.91,3.65,10.59A208.93,208.93,0,0,1,450.2,494.67,14.9,14.9,0,0,0,465,512a15.17,15.17,0,0,0,15.23-15C480.23,496.94,480.22,496.85,480.22,496.75ZM241.5,0A113.5,113.5,0,1,0,355,113.5,113.51,113.51,0,0,0,241.5,0Zm0,197A83.5,83.5,0,1,1,325,113.5,83.5,83.5,0,0,1,241.5,197Z"/></g></g></svg>