<svg xmlns="http://www.w3.org/2000/svg" viewBox="0 0 423.7 511.35"><defs><style>.cls-1{fill:#0080ff;}.cls-2{fill:#0dccbe;}</style></defs><title>Asset 330</title><g id="Layer_2" data-name="Layer 2"><g id="Task_list"><path class="cls-1" d="M423.7,59V489.91a21.5,21.5,0,0,1-21.43,21.44H21.44A21.51,21.51,0,0,1,0,489.91V69.35A21.51,21.51,0,0,1,21.44,47.91h92.41v30H40.37A10.37,10.37,0,0,0,30,88.28V471a10.37,10.37,0,0,0,10.37,10.37h343A10.36,10.36,0,0,0,393.7,471V77.91H311.85v-30H412.63A11.1,11.1,0,0,1,423.7,59ZM202.22,218.67H328.48a14.74,14.74,0,0,0,14.7-14.7v-.59a14.75,14.75,0,0,0-14.7-14.71H202.22a14.75,14.75,0,0,0-14.7,14.71V204A14.74,14.74,0,0,0,202.22,218.67Zm-97.09-26.18A15,15,0,0,0,83.92,213.7l17.7,17.7c.23.27.46.54.71.79a15,15,0,0,0,21.21,0l35.83-35.83a15,15,0,0,0-21.21-21.21L113,200.33Zm97.09,208.18H328.48a14.74,14.74,0,0,0,14.7-14.7v-.59a14.75,14.75,0,0,0-14.7-14.71H202.22a14.75,14.75,0,0,0-14.7,14.71V386A14.74,14.74,0,0,0,202.22,400.67Zm-64.06-43.52L113,382.33l-7.85-7.84A15,15,0,0,0,83.92,395.7l17.7,17.7c.23.27.46.54.71.79a15,15,0,0,0,21.21,0l35.83-35.83a15,15,0,0,0-21.21-21.21Z"/><path class="cls-2" d="M118.44,108.68H305.27a17.31,17.31,0,0,0,17.25-17.26V36.25A17.3,17.3,0,0,0,305.27,19H272.51a4,4,0,0,1-4-4V11.17A11.21,11.21,0,0,0,257.35,0h-91a11.21,11.21,0,0,0-11.18,11.17V15a4,4,0,0,1-4,4H118.44a17.31,17.31,0,0,0-17.26,17.25V91.42A17.31,17.31,0,0,0,118.44,108.68ZM131.18,53a4,4,0,0,1,4-4h46a4,4,0,0,0,4-4V34a4,4,0,0,1,4-4h45.36a4,4,0,0,1,4,4V45a4,4,0,0,0,4,4h46a4,4,0,0,1,4,4v21.7a4,4,0,0,1-4,4H135.17a4,4,0,0,1-4-4Zm212,236.39V290a14.74,14.74,0,0,1-14.7,14.7H202.22a14.74,14.74,0,0,1-14.7-14.7v-.59a14.75,14.75,0,0,1,14.7-14.71H328.48A14.75,14.75,0,0,1,343.18,289.38ZM159.37,261.15a15,15,0,0,1,0,21.21l-35.83,35.83a15,15,0,0,1-21.21,0c-.25-.25-.48-.52-.71-.79l-17.7-17.7a15,15,0,0,1,21.21-21.21l7.85,7.84,25.18-25.18A15,15,0,0,1,159.37,261.15Z"/></g></g></svg>