<svg xmlns="http://www.w3.org/2000/svg" viewBox="0 0 667.85 512"><defs><style>.cls-1{isolation:isolate;}.cls-2{fill:#0dccbe;}.cls-3{fill:#0080ff;fill-rule:evenodd;}</style></defs><title>Asset 410</title><g id="Layer_2" data-name="Layer 2"><g id="team" class="cls-1"><path class="cls-2" d="M667.85,497.05a14.85,14.85,0,0,1-29.69,0,13.47,13.47,0,0,1,.16-2A161.66,161.66,0,0,0,411.05,349.49L389.8,327a191,191,0,0,1,278,169.78C667.85,496.85,667.85,497,667.85,497.05ZM385.94,196.66a91.91,91.91,0,1,1,91.91,91.9A92,92,0,0,1,385.94,196.66Zm29.5,0a62.41,62.41,0,1,0,62.4-62.41A62.47,62.47,0,0,0,415.44,196.66Z"/><path class="cls-3" d="M241.5,227A113.5,113.5,0,1,0,128,113.5,113.51,113.51,0,0,0,241.5,227Zm0-197A83.5,83.5,0,1,1,158,113.5,83.5,83.5,0,0,1,241.5,30ZM480.24,497A15.21,15.21,0,0,1,465,512a14.9,14.9,0,0,1-14.8-17.33C448.94,379.77,355.43,287,240.23,287c-115.88,0-209.84,93.87-210,209.71a2.64,2.64,0,0,1,0,.28A15.22,15.22,0,0,1,15,512,15,15,0,0,1,.27,494.22C1.76,363,108.61,257,240.23,257c132.45,0,239.84,107.3,240,239.72C480.23,496.81,480.24,496.91,480.24,497ZM316.12,437a15,15,0,0,1-15,15h-45v45a15,15,0,0,1-30,0V452h-45a15,15,0,0,1,0-30h45V377a15,15,0,0,1,30,0v45h45A15,15,0,0,1,316.12,437Z"/></g></g></svg>