<svg xmlns="http://www.w3.org/2000/svg" viewBox="0 0 531.55 511.98"><defs><style>.cls-1{fill:#0080ff;}.cls-2{fill:#0dccbe;}</style></defs><title>Asset 420</title><g id="Layer_2" data-name="Layer 2"><g id="Template_copy" data-name="Template copy"><path class="cls-1" d="M276.47,0H24.16A24.16,24.16,0,0,0,0,24.16V487.82A24.16,24.16,0,0,0,24.16,512H276.47a24.16,24.16,0,0,0,24.16-24.16V24.16A24.16,24.16,0,0,0,276.47,0Zm-5.84,482H30V30H270.63Z"/><path class="cls-2" d="M357,198.52H519A12.51,12.51,0,0,0,531.55,186V12.52A12.51,12.51,0,0,0,519,0H357a12.51,12.51,0,0,0-12.52,12.52V186A12.51,12.51,0,0,0,357,198.52ZM374.47,30H501.55V168.52H374.47ZM509.35,236.7H366.67a22.2,22.2,0,0,0-22.2,22.21v230.5a22.2,22.2,0,0,0,22.2,22.2H509.35a22.2,22.2,0,0,0,22.2-22.2V258.91A22.2,22.2,0,0,0,509.35,236.7Zm-7.8,244.91H374.47V266.7H501.55Z"/></g></g></svg>