<svg xmlns="http://www.w3.org/2000/svg" viewBox="0 0 500.17 511.02"><defs><style>.cls-1{fill:#0dccbe;}.cls-2{fill:#0080ff;}</style></defs><title>Asset 300</title><g id="Layer_2" data-name="Layer 2"><g id="Workspace_copy_3" data-name="Workspace copy 3"><path class="cls-1" d="M279.83,329H106.1a15,15,0,0,0,0,30H279.83a15,15,0,0,0,0-30Z"/><path class="cls-1" d="M392.47,90.39H108.79A17.69,17.69,0,0,0,91.1,108.08v92.29a17.69,17.69,0,0,0,17.69,17.7H392.47a17.7,17.7,0,0,0,17.7-17.7V108.08A17.7,17.7,0,0,0,392.47,90.39Zm-12.3,97.68H121.1V120.39H380.17Z"/><path class="cls-2" d="M484.36,0H15.81A15.81,15.81,0,0,0,0,15.81V415.23A15.81,15.81,0,0,0,15.81,431H205.08v50H184.93a15,15,0,0,0,0,30h130.3a15,15,0,0,0,0-30H295.08V431H484.36a15.81,15.81,0,0,0,15.81-15.8V15.81A15.81,15.81,0,0,0,484.36,0ZM265.08,481h-30V431h30Zm205.09-80H30V30H470.17Z"/><path class="cls-2" d="M106.1,299H395.17a15,15,0,1,0,0-30H106.1a15,15,0,0,0,0,30Z"/></g></g></svg>