<?xml version="1.0" encoding="utf-8"?>
<!-- Generator: Adobe Illustrator 22.1.0, SVG Export Plug-In . SVG Version: 6.00 Build 0)  -->
<svg version="1.1" id="Layer_1" xmlns="http://www.w3.org/2000/svg" xmlns:xlink="http://www.w3.org/1999/xlink" x="0px" y="0px"
	 viewBox="0 0 436.1 509.9" style="enable-background:new 0 0 436.1 509.9;" xml:space="preserve">
<title>Asset 350</title>
<path id="Layer_2_1_" d="M308.2,224L308.2,224c0,8.3-6.7,15-15,15l0,0H142.9c-8.3,0-15-6.7-15-15l0,0l0,0c0-8.3,6.7-15,15-15l0,0
	h150.3C301.5,209,308.2,215.7,308.2,224L308.2,224z M262.9,279h-89.7c-8.3,0-15,6.7-15,15l0,0l0,0c0,8.3,6.7,15,15,15l0,0h89.7
	c8.3,0,15-6.7,15-15l0,0l0,0C277.9,285.7,271.2,279,262.9,279L262.9,279z M341,139H95.1c-8.3,0-15,6.7-15,15l0,0l0,0
	c0,8.3,6.7,15,15,15l0,0H341c8.3,0,15-6.7,15-15l0,0l0,0C356,145.7,349.3,139,341,139L341,139z M399.3,0H36.8C16.5,0,0,16.5,0,36.8
	v374.3C0,431.5,16.5,448,36.8,448h112.9l57.4,57.4c6.1,6,15.9,6,21.9,0l0.5-0.5l56.8-56.8h113c20.3,0,36.8-16.5,36.9-36.9V36.8
	C436.2,16.5,419.7,0,399.3,0z M405.1,411.2c0,3.2-2.6,5.9-5.9,5.9l0,0H281.2c-4.6,0.2-9.1,1.9-12.6,4.9l-50.5,50.5L167.6,422
	c-3.2-3-7.4-4.8-11.8-5h-119c-3.2,0-5.8-2.6-5.8-5.8V36.8c0-3.2,2.6-5.8,5.8-5.8h362.4c3.2,0,5.9,2.6,5.9,5.8v0V411.2z"/>
</svg>
