<?xml version="1.0" encoding="utf-8"?>
<!-- Generator: Adobe Illustrator 22.1.0, SVG Export Plug-In . SVG Version: 6.00 Build 0)  -->
<svg version="1.1" id="Layer_1" xmlns="http://www.w3.org/2000/svg" xmlns:xlink="http://www.w3.org/1999/xlink" x="0px" y="0px"
	 viewBox="0 0 450.9 512.1" style="enable-background:new 0 0 450.9 512.1;" xml:space="preserve">
<title>Asset 340</title>
<path d="M448,432.1l-58.3-75.9v-114c0-67.3-42.9-125.1-102.7-147.4V61.6c-0.1-34-27.6-61.5-61.6-61.6c-34,0.1-61.5,27.6-61.6,61.6
	v33.3c-59.8,22.3-102.7,80-102.7,147.4v114L2.8,432.1c-4.6,6-3.5,14.5,2.5,19.1c2.4,1.8,5.3,2.8,8.3,2.8h125.9
	c14.1,35,48.1,58,85.8,58.1C263.1,512,297,489,311.2,454h125.9c7.5,0,13.6-6.1,13.6-13.6C450.8,437.4,449.8,434.4,448,432.1z
	 M193.9,61.6c0.3-17,14-30.7,31-31c17.4-0.3,31.8,13.6,32.1,31V87c-8-1.3-16.2-1.9-24.5-1.9l0,0h-14.2c-8.3,0-16.5,0.7-24.5,1.9
	L193.9,61.6L193.9,61.6z M299.9,424c-5.3,0-10.1,3.2-12.1,8.2l-4.3,10.6c-4.6,11.5-12.6,21.3-22.8,28.3c-21.2,14.7-49.3,14.7-70.5,0
	c-10.2-7-18.1-16.9-22.8-28.3l-4.3-10.6c-2-4.9-6.8-8.2-12.1-8.2H46.9L85,374.5l6.2-8.1V242.2c0.3-70.1,57-126.9,127.1-127.2h14.2
	c70.1,0.3,126.9,57,127.2,127.2v124.2l6.2,8.1L404,424H299.9z"/>
</svg>
