<?xml version="1.0" encoding="utf-8"?>
<!-- Generator: Adobe Illustrator 22.1.0, SVG Export Plug-In . SVG Version: 6.00 Build 0)  -->
<svg version="1.1" id="Layer_1" xmlns="http://www.w3.org/2000/svg" xmlns:xlink="http://www.w3.org/1999/xlink" x="0px" y="0px"
	 viewBox="0 0 594 499" style="enable-background:new 0 0 594 499;" xml:space="preserve">
<title>cards0</title>
<g id="Layer_2_1_">
	<g id="cards">
		<path d="M425.5,439h-20c-8.3,0-15-6.7-15-15s6.7-15,15-15h20c8.3,0,15,6.7,15,15S433.8,439,425.5,439z M304.5,325h-230
			c-8.3,0-15-6.7-15-15s6.7-15,15-15h230c8.3,0,15,6.7,15,15S312.8,325,304.5,325z M144.5,249h-70c-8.3,0-15-6.7-15-15s6.7-15,15-15
			h70c8.3,0,15,6.7,15,15S152.8,249,144.5,249z M74.5,409h110c8.3,0,15,6.7,15,15s-6.7,15-15,15h-110c-8.3,0-15-6.7-15-15
			S66.2,409,74.5,409z"/>
		<path id="cards-2" d="M579,0H109c-8.3,0-15,6.7-15,15v144H15c-8.3,0-15,6.7-15,15l0,0v310c0,8.3,6.7,15,15,15h470
			c8.3,0,15-6.7,15-15V340h79c8.3,0,15-6.7,15-15V15C594,6.7,587.3,0,579,0z M470,469H30V189h440V469z M564,310h-64V174
			c0-8.3-6.7-15-15-15l0,0H124V30h440V310z"/>
	</g>
</g>
</svg>
