<?xml version="1.0" encoding="utf-8"?>
<!-- Generator: Adobe Illustrator 22.1.0, SVG Export Plug-In . SVG Version: 6.00 Build 0)  -->
<svg version="1.1" id="Layer_1" xmlns="http://www.w3.org/2000/svg" xmlns:xlink="http://www.w3.org/1999/xlink" x="0px" y="0px"
	 viewBox="0 0 500 500" style="enable-background:new 0 0 500 500;" xml:space="preserve">
<title>phase0</title>
<g id="Layer_2_1_">
	<g id="phase">
		<path d="M395,235H292.4c-4.5-12.8-14.6-22.9-27.4-27.4V105c0-8.3-6.7-15-15-15s-15,6.7-15,15v102.6c-23.4,8.3-35.7,34-27.4,57.4
			s34,35.7,57.4,27.4c12.8-4.5,22.9-14.6,27.4-27.4H395c8.3,0,15-6.7,15-15S403.3,235,395,235z M250,265c-8.3,0-15-6.7-15-15
			s6.7-15,15-15s15,6.7,15,15S258.3,265,250,265L250,265z"/>
		<path id="phase-2" d="M250,0C111.9,0,0,111.9,0,250s111.9,250,250,250s250-111.9,250-250S388.1,0,250,0z M250,470
			c-121.5,0-220-98.5-220-220S128.5,30,250,30s220,98.5,220,220S371.5,470,250,470z"/>
	</g>
</g>
</svg>
