<?xml version="1.0" encoding="utf-8"?>
<!-- Generator: Adobe Illustrator 22.1.0, SVG Export Plug-In . SVG Version: 6.00 Build 0)  -->
<svg version="1.1" id="Layer_1" xmlns="http://www.w3.org/2000/svg" xmlns:xlink="http://www.w3.org/1999/xlink" x="0px" y="0px"
	 viewBox="0 0 320 500" style="enable-background:new 0 0 320 500;" xml:space="preserve">
<title>private-boards0</title>
<g id="Layer_2_1_">
	<g id="private-boards">
		<path id="private-boards-2" d="M305,60h-65V15c0-8.3-6.7-15-15-15H95c-8.3,0-15,6.7-15,15v45H15C6.7,60,0,66.7,0,75l0,0v270
			c0,8.3,6.7,15,15,15h60.8L8.5,476.5c-4.1,7.2-1.7,16.4,5.5,20.5c7.2,4.1,16.4,1.7,20.5-5.5l76-131.5h100.2L287,492.5
			c4.1,7.2,13.3,9.6,20.5,5.5c7.2-4.1,9.6-13.3,5.5-20.5l0,0L245.4,360H305c8.3,0,15-6.7,15-15V75C320,66.7,313.3,60,305,60L305,60z
			 M110,30h100v30H110V30z M290,330H30V90h260V330z"/>
		<path d="M160,145c-16.6,0-30,13.4-30,30c0,10.7,5.7,20.7,15,26v59c0,8.3,6.7,15,15,15s15-6.7,15-15v-59c14.4-8.3,19.3-26.6,11-41
			C180.7,150.7,170.7,145,160,145z"/>
	</g>
</g>
</svg>
