<?xml version="1.0" encoding="utf-8"?>
<!-- Generator: Adobe Illustrator 22.1.0, SVG Export Plug-In . SVG Version: 6.00 Build 0)  -->
<svg version="1.1" id="Layer_1" xmlns="http://www.w3.org/2000/svg" xmlns:xlink="http://www.w3.org/1999/xlink" x="0px" y="0px"
	 viewBox="0 0 520 500" style="enable-background:new 0 0 520 500;" xml:space="preserve">
<title>release0</title>
<g id="Layer_2_1_">
	<g id="release">
		<path d="M170,349v106c0,24.9-20.1,45-45,45s-45-20.1-45-45V349h30v106c0,8.3,6.7,15,15,15s15-6.7,15-15V349H170z"/>
		<path id="release-2" d="M460,0c-21.4,0-41.1,11.4-51.9,29.8h-0.4C369.5,103.1,293.7,149,211,149c-2.9,0-5.9-0.1-8.8-0.2
			c-2.9,0.1-5.2,0.2-6.7,0.2H80c-16.6,0-30,13.4-30,30l0,0v20c-27.6,0-50,22.4-50,50s22.4,50,50,50v20c0,16.6,13.4,30,30,30l0,0
			h114.8h6.6c2.9,0,5.9,0,8.8,0c80.8,0,155.2,43.8,194.4,114.4c12.9,30.5,48.1,44.8,78.6,31.9c22.2-9.4,36.6-31.2,36.6-55.3V60
			C520,26.9,493.1,0,460,0z M50,269c-11,0-20-9-20-20c0-11,9-20,20-20V269z M200,319H95c-8.3,0-15-6.7-15-15l0,0V194
			c0-8.3,6.7-15,15-15l0,0h105V319z M400,399c-41.8-50.9-104.1-80.6-170-81V180c65.8-0.2,128.1-29.7,170-80.4V399z M490,440
			c0,16.6-13.4,30-30,30s-30-13.4-30-30V60c0-16.6,13.4-30,30-30s30,13.4,30,30V440z"/>
	</g>
</g>
</svg>
