<?xml version="1.0" encoding="utf-8"?>
<!-- Generator: Adobe Illustrator 22.1.0, SVG Export Plug-In . SVG Version: 6.00 Build 0)  -->
<svg version="1.1" id="Layer_1" xmlns="http://www.w3.org/2000/svg" xmlns:xlink="http://www.w3.org/1999/xlink" x="0px" y="0px"
	 viewBox="0 0 423.7 511.4" style="enable-background:new 0 0 423.7 511.4;" xml:space="preserve">
<title>Asset 330</title>
<g id="Layer_2_1_">
	<g id="Task_list">
		<path d="M423.7,59v430.9c0,11.8-9.6,21.4-21.4,21.4H21.4C9.6,511.3,0,501.7,0,489.9V69.3c0-11.8,9.6-21.4,21.4-21.4h92.4v30H40.4
			c-5.7,0-10.4,4.6-10.4,10.4V471c0,5.7,4.6,10.4,10.4,10.4h343c5.7,0,10.3-4.7,10.3-10.4V77.9h-81.9v-30h100.8
			C418.7,47.9,423.7,52.9,423.7,59z M202.2,218.7h126.3c8.1,0,14.7-6.6,14.7-14.7v-0.6c0-8.1-6.6-14.7-14.7-14.7H202.2
			c-8.1,0-14.7,6.6-14.7,14.7v0.6C187.6,212.1,194.1,218.6,202.2,218.7z M105.1,192.5c-6-5.8-15.5-5.6-21.2,0.4
			c-5.6,5.8-5.6,15,0,20.8l17.7,17.7c0.2,0.3,0.5,0.5,0.7,0.8c5.9,5.9,15.4,5.9,21.2,0l35.8-35.8c5.8-6,5.6-15.5-0.4-21.2
			c-5.8-5.6-15-5.6-20.8,0L113,200.3L105.1,192.5z M202.2,400.7h126.3c8.1,0,14.7-6.6,14.7-14.7v-0.6c0-8.1-6.6-14.7-14.7-14.7
			H202.2c-8.1,0-14.7,6.6-14.7,14.7v0.6C187.6,394.1,194.1,400.6,202.2,400.7L202.2,400.7z M138.2,357.1L113,382.3l-7.8-7.8
			c-5.9-5.9-15.4-5.9-21.2,0c-5.9,5.9-5.9,15.4,0,21.2l0,0l17.7,17.7c0.2,0.3,0.5,0.5,0.7,0.8c5.9,5.9,15.4,5.9,21.2,0l35.8-35.8
			c5.8-6,5.6-15.5-0.4-21.2C153.2,351.5,144,351.5,138.2,357.1L138.2,357.1z"/>
		<path d="M118.4,108.7h186.8c9.5,0,17.2-7.7,17.2-17.3V36.2c0-9.5-7.7-17.2-17.2-17.2h-32.8c-2.2,0-4-1.8-4-4v-3.8
			c0-6.2-5-11.1-11.2-11.2h-91c-6.2,0-11.2,5-11.2,11.2V15c0,2.2-1.8,4-4,4h-32.7c-9.5,0-17.2,7.7-17.3,17.2v55.2
			C101.2,100.9,108.9,108.7,118.4,108.7z M131.2,53c0-2.2,1.8-4,4-4h46c2.2,0,4-1.8,4-4V34c0-2.2,1.8-4,4-4h45.4c2.2,0,4,1.8,4,4v11
			c0,2.2,1.8,4,4,4h46c2.2,0,4,1.8,4,4v21.7c0,2.2-1.8,4-4,4H135.2c-2.2,0-4-1.8-4-4L131.2,53z M343.2,289.4v0.6
			c0,8.1-6.6,14.7-14.7,14.7H202.2c-8.1,0-14.7-6.6-14.7-14.7v-0.6c0-8.1,6.6-14.7,14.7-14.7h126.3
			C336.6,274.7,343.1,281.3,343.2,289.4L343.2,289.4z M159.4,261.1c5.9,5.9,5.9,15.4,0,21.2l-35.8,35.8c-5.9,5.9-15.4,5.9-21.2,0
			c-0.2-0.2-0.5-0.5-0.7-0.8l-17.7-17.7c-5.8-6-5.6-15.5,0.4-21.2c5.8-5.6,15-5.6,20.8,0l7.8,7.8l25.2-25.2
			C144,255.3,153.5,255.3,159.4,261.1z"/>
	</g>
</g>
</svg>
