<?xml version="1.0" encoding="utf-8"?>
<!-- Generator: Adobe Illustrator 22.1.0, SVG Export Plug-In . SVG Version: 6.00 Build 0)  -->
<svg version="1.1" id="Layer_1" xmlns="http://www.w3.org/2000/svg" xmlns:xlink="http://www.w3.org/1999/xlink" x="0px" y="0px"
	 viewBox="0 0 667.8 512" style="enable-background:new 0 0 667.8 512;" xml:space="preserve">
<title>Asset 410</title>
<g id="Layer_2_1_">
	<g id="team">
		<path d="M667.8,497c-0.2,8.2-7,14.7-15.2,14.5c-7.9-0.2-14.3-6.6-14.5-14.5c0-0.7,0.1-1.3,0.2-2c-1.2-89.3-74.6-160.7-163.8-159.5
			c-21.9,0.3-43.5,5-63.4,13.9L389.8,327c93.9-48,209-10.9,257,83c13.7,26.9,20.9,56.6,21,86.7C667.8,496.9,667.8,497,667.8,497z
			 M385.9,196.7c0-50.8,41.1-91.9,91.9-91.9s91.9,41.1,91.9,91.9s-41.1,91.9-91.9,91.9c0,0,0,0,0,0
			C427.1,288.5,386,247.4,385.9,196.7z M415.4,196.7c0,34.5,27.9,62.4,62.4,62.4s62.4-27.9,62.4-62.4s-27.9-62.4-62.4-62.4
			c0,0,0,0,0,0C443.4,134.3,415.5,162.2,415.4,196.7z"/>
		<path d="M241.5,227c62.7,0,113.5-50.8,113.5-113.5S304.2,0,241.5,0S128,50.8,128,113.5C128,176.2,178.8,227,241.5,227z M241.5,30
			c46.1,0,83.5,37.4,83.5,83.5S287.6,197,241.5,197S158,159.6,158,113.5S195.4,30,241.5,30z M480.2,497c-0.1,8.3-6.9,15-15.2,15
			c-8.2,0.1-14.9-6.6-15-14.8c0-0.8,0.1-1.7,0.2-2.5c-1.3-114.9-94.8-207.7-210-207.7c-115.9,0-209.8,93.9-210,209.7
			c0,0.1,0,0.2,0,0.3c-0.1,8.3-6.9,15-15.2,15c-8.3,0-15-6.7-15-15c0-0.9,0.1-1.9,0.3-2.8C1.8,363,108.6,257,240.2,257
			c132.4,0,239.8,107.3,240,239.7C480.2,496.8,480.2,496.9,480.2,497z M316.1,437c0,8.3-6.7,15-15,15h-45v45c0,8.3-6.7,15-15,15
			s-15-6.7-15-15v-45h-45c-8.3,0-15-6.7-15-15s6.7-15,15-15h45v-45c0-8.3,6.7-15,15-15s15,6.7,15,15v45h45
			C309.4,422,316.1,428.7,316.1,437z"/>
	</g>
</g>
</svg>
