<?xml version="1.0" encoding="UTF-8"?>
<svg width="70px" height="54px" viewBox="0 0 70 54" version="1.1" xmlns="http://www.w3.org/2000/svg" xmlns:xlink="http://www.w3.org/1999/xlink">
    <!-- Generator: Sketch 52.4 (67378) - http://www.bohemiancoding.com/sketch -->
    <title>back</title>
    <desc>Created with Sketch.</desc>
    <g id="Page-1" stroke="none" stroke-width="1" fill="none" fill-rule="evenodd">
        <g id="Icons" transform="translate(-1094.000000, -502.000000)" fill="#000000" fill-rule="nonzero">
            <g id="Icons-(final)" transform="translate(230.000000, 472.000000)">
                <path d="M901.166,44.3619253 L901.166,33 C901.166,30.4086058 904.230213,29.0362643 906.163586,30.7617756 L932.997586,54.7107756 C934.346972,55.9150852 934.33184,58.030688 932.965364,59.2155711 L906.131364,82.4835711 C904.188813,84.167974 901.166,82.7881312 901.166,80.217 L901.166,65.6714106 C896.284149,64.1278794 889.755114,63.5010297 884.125856,64.2877499 C876.742146,65.3196647 871.69149,68.506421 869.83091,73.8109503 C868.694976,77.0495058 863.890962,76.1515374 864.001558,72.7213253 C864.467793,58.2606847 870.750019,49.418566 881.212292,45.7343231 C887.344433,43.5749171 894.241668,43.3549093 901.166,44.3619253 Z M907.166,39.698506 L907.166,47.932 C907.166,49.8300356 905.425568,51.2510401 903.565894,50.8713661 C896.424402,49.4133473 889.169461,49.2933918 883.205208,51.3936769 C877.944841,53.2460916 874.107822,56.7027332 871.959308,62.1952022 C875.099453,60.2304722 878.941662,58.9539585 883.295394,58.3455001 C890.723228,57.3074188 899.33097,58.3647284 905.293102,60.781777 C906.425239,61.2407451 907.166,62.3403679 907.166,63.562 L907.166,73.6449177 L926.458162,56.9165125 L907.166,39.698506 Z" id="back" transform="translate(898.999840, 56.608473) scale(-1, 1) translate(-898.999840, -56.608473) "></path>
            </g>
        </g>
    </g>
</svg>