<?xml version="1.0" encoding="UTF-8"?>
<svg width="68px" height="68px" viewBox="0 0 68 68" version="1.1" xmlns="http://www.w3.org/2000/svg" xmlns:xlink="http://www.w3.org/1999/xlink">
    <!-- Generator: Sketch 52.4 (67378) - http://www.bohemiancoding.com/sketch -->
    <title>boards</title>
    <desc>Created with Sketch.</desc>
    <g id="Page-1" stroke="none" stroke-width="1" fill="none" fill-rule="evenodd">
        <g id="Icons" transform="translate(-3387.000000, -244.000000)" fill="#000000" fill-rule="nonzero">
            <g id="Icons-(final)" transform="translate(230.000000, 244.000000)">
                <g id="boards" transform="translate(3157.000000, 0.000000)">
                    <path d="M47.0183588,49.5220595 L47.0034022,49.532799 L55.0621949,63.5290652 C55.5944091,64.4516096 55.5940449,65.5880151 55.0612397,66.5102182 C54.5284263,67.4324356 53.5440993,68.0003412 52.4790447,67.9999998 C51.4139901,67.9996585 50.4300273,67.4311222 49.8973665,66.5078025 L40.1181978,49.5220595 L28.0368404,49.5220595 L18.3028349,66.3871183 C17.480088,67.8132746 15.6570147,68.302413 14.2309013,67.4796196 C12.8048133,66.6568409 12.3157128,64.8337511 13.1386047,63.4073434 L21.1542864,49.5231379 L21.1330823,49.5220595 L10.9,49.5220595 C9.25418174,49.5220595 7.92,48.1878199 7.92,46.5419736 L7.92,13.8805149 L2.98,13.8805149 C1.33418174,13.8805149 -2.81996648e-14,12.5462753 -2.84217094e-14,10.9004291 L-2.84217094e-14,2.98008581 C-2.81996648e-14,1.33423957 1.33418174,0 2.98,0 L65.02,0 C66.6658183,1.11022302e-16 68,1.33423957 68,2.98008581 L68,10.9004291 C68,12.5462753 66.6658183,13.8805149 65.02,13.8805149 L60.08,13.8805149 L60.08,46.5419736 C60.08,48.1878199 58.7458183,49.5220595 57.1,49.5220595 L47.0183588,49.5220595 Z M47.9782609,36 L21.0217391,36 C19.3552842,36 18,34.6592887 18,33 C18,31.3407113 19.3552842,30 21.0217391,30 L47.9782609,30 C49.6447158,30 51,31.3407113 51,33 C51,34.6592887 49.6447158,36 47.9782609,36 Z M39.2173913,28 L29.7826087,28 C28.1161538,28 26.7608696,26.6592887 26.7608696,25 C26.7608696,23.3407113 28.1161538,22 29.7826087,22 L39.2173913,22 C40.8838462,22 42.2391304,23.3407113 42.2391304,25 C42.2391304,26.6592887 40.8838462,28 39.2173913,28 Z M55.12,44.5618878 L55.12,15.0095471 L12.88,15.0095471 L12.88,44.5618878 L55.12,44.5618878 Z M63.04,9.98485937 L63.04,4.96017162 L4.96,4.96017162 L4.96,9.98485937 L63.04,9.98485937 Z" id="Combined-Shape"></path>
                </g>
            </g>
        </g>
    </g>
</svg>