<?xml version="1.0" encoding="UTF-8"?>
<svg width="70px" height="70px" viewBox="0 0 70 70" version="1.1" xmlns="http://www.w3.org/2000/svg" xmlns:xlink="http://www.w3.org/1999/xlink">
    <!-- Generator: Sketch 52.5 (67469) - http://www.bohemiancoding.com/sketch -->
    <title>calendar</title>
    <desc>Created with Sketch.</desc>
    <g id="Page-1" stroke="none" stroke-width="1" fill="none" fill-rule="evenodd">
        <g id="Icons" transform="translate(-4231.000000, -492.000000)" fill="#000000" fill-rule="nonzero">
            <g id="calendar" transform="translate(4231.000000, 492.000000)">
                <path d="M50.0006,6.00081715 L50.0006,3.00000857 C50.0006,1.34314959 51.3437458,0 53.0006,0 C54.6574542,0 56.0006,1.34314959 56.0006,3.00000857 L56.0006,6.00081715 L67,6.00081715 C68.6568542,6.00081715 70,7.34396673 70,9.00082572 L70,66.9999914 C70,68.6568504 68.6568542,70 67,70 L3,70 C1.34314575,70 0,68.6568504 0,66.9999914 L0,9.00082572 C0,7.34396673 1.34314575,6.00081715 3,6.00081715 L13.9986,6.00081715 L13.9986,3.00000857 C13.9986,1.34314959 15.3417458,0 16.9986,0 C18.6554542,0 19.9986,1.34314959 19.9986,3.00000857 L19.9986,6.00081715 L31.9996,6.00081715 L31.9996,3.00000857 C31.9996,1.34314959 33.3427458,0 34.9996,0 C36.6564542,0 37.9996,1.34314959 37.9996,3.00000857 L37.9996,6.00081715 L50.0006,6.00081715 Z M50.0006,12.0008343 L37.9996,12.0008343 L37.9996,14.9080426 C37.9996,16.5649016 36.6564542,17.9080512 34.9996,17.9080512 C33.3427458,17.9080512 31.9996,16.5649016 31.9996,14.9080426 L31.9996,12.0008343 L19.9986,12.0008343 L19.9986,14.9080426 C19.9986,16.5649016 18.6554542,17.9080512 16.9986,17.9080512 C15.3417458,17.9080512 13.9986,16.5649016 13.9986,14.9080426 L13.9986,12.0008343 L6,12.0008343 L6,63.9999829 L64,63.9999829 L64,12.0008343 L56.0006,12.0008343 L56.0006,14.9080426 C56.0006,16.5649016 54.6574542,17.9080512 53.0006,17.9080512 C51.3437458,17.9080512 50.0006,16.5649016 50.0006,14.9080426 L50.0006,12.0008343 Z M20.5787,35.7374021 C18.9218458,35.7374021 17.5787,34.3942525 17.5787,32.7373935 C17.5787,31.0805346 18.9218458,29.737385 20.5787,29.737385 L49.4207,29.737385 C51.0775542,29.737385 52.4207,31.0805346 52.4207,32.7373935 C52.4207,34.3942525 51.0775542,35.7374021 49.4207,35.7374021 L20.5787,35.7374021 Z M20.5787,50.738345 C18.9218458,50.738345 17.5787,49.3951954 17.5787,47.7383364 C17.5787,46.0814774 18.9218458,44.7383278 20.5787,44.7383278 L49.4207,44.7383278 C51.0775542,44.7383278 52.4207,46.0814774 52.4207,47.7383364 C52.4207,49.3951954 51.0775542,50.738345 49.4207,50.738345 L20.5787,50.738345 Z" id="Combined-Shape"></path>
            </g>
        </g>
    </g>
</svg>