<?xml version="1.0" encoding="UTF-8"?>
<svg width="69px" height="68px" viewBox="0 0 69 68" version="1.1" xmlns="http://www.w3.org/2000/svg" xmlns:xlink="http://www.w3.org/1999/xlink">
    <!-- Generator: Sketch 52.4 (67378) - http://www.bohemiancoding.com/sketch -->
    <title>close_1</title>
    <desc>Created with Sketch.</desc>
    <g id="Page-1" stroke="none" stroke-width="1" fill="none" fill-rule="evenodd">
        <g id="Icons" transform="translate(-2941.000000, -495.000000)" fill="#000000" fill-rule="nonzero">
            <g id="Icons-(final)" transform="translate(230.000000, 472.000000)">
                <g id="close_1" transform="translate(2711.366486, 23.000000)">
                    <path d="M39.1845807,33.9999813 L66.926347,61.7416412 C68.3578209,63.1732899 68.3578757,65.4943489 66.9265197,66.9262343 C66.2304428,67.6224823 65.2993619,68 64.3341968,68 C63.3689992,68 62.4379262,67.6224578 61.7418326,66.9261929 L34.0000771,39.1844849 L6.25858617,66.9259759 C5.56229112,67.6224433 4.63134615,68 3.66613704,68 C2.7008146,68 1.76974263,67.6225043 1.07377544,66.9261923 C-0.357925145,65.4944918 -0.357925145,63.1732986 1.07377619,61.7415973 L28.8155079,33.9999245 L1.07377737,6.25824144 C-0.357933088,4.82653343 -0.357933088,2.50530559 1.0737336,1.07381861 C2.50531693,-0.357939536 4.82670846,-0.357939536 6.25824726,1.07377408 L34.0000115,28.8154319 L61.7417269,1.07377544 C63.1734275,-0.357925145 65.4946207,-0.357925145 66.926365,1.07381921 C68.3578856,2.50551707 68.3578856,4.82667646 66.9263212,6.25824084 L39.1845807,33.9999813 Z" id="Combined-Shape"></path>
                </g>
            </g>
        </g>
    </g>
</svg>