<?xml version="1.0" encoding="UTF-8"?>
<svg width="64px" height="68px" viewBox="0 0 64 68" version="1.1" xmlns="http://www.w3.org/2000/svg" xmlns:xlink="http://www.w3.org/1999/xlink">
    <!-- Generator: Sketch 52.4 (67378) - http://www.bohemiancoding.com/sketch -->
    <title>customer_service</title>
    <desc>Created with Sketch.</desc>
    <g id="Page-1" stroke="none" stroke-width="1" fill="none" fill-rule="evenodd">
        <g id="Icons" transform="translate(-984.000000, -494.000000)" fill="#000000" fill-rule="nonzero">
            <g id="Icons-(final)" transform="translate(230.000000, 472.000000)">
                <g id="customer_service" transform="translate(754.000000, 22.000000)">
                    <path d="M62.9958854,64.1176471 L63.31662,63.3761125 L63.1048539,61.8540872 L64,61.8311142 L64,64.578125 C64,66.4679744 62.4679744,68 60.578125,68 C58.6882756,68 57.15625,66.4679744 57.15625,64.578125 L57.15625,62.0067525 L58.1664658,61.9808262 L58.4534271,64.1176471 L57.15625,64.1176471 L57.15625,63.1176471 C57.15625,56.1745154 54.3328658,49.6206643 49.3712596,44.8838421 C47.4621531,48.0353206 44.0277705,50.0441176 40.234375,50.0441176 L37.9477438,50.0441176 C36.8635767,51.5472894 35.1175928,52.4705882 33.2109375,52.4705882 C29.9832859,52.4705882 27.3671875,49.8495257 27.3671875,46.6176471 C27.3671875,43.3857684 29.9832859,40.7647059 33.2109375,40.7647059 C35.1175928,40.7647059 36.8635767,41.6880048 37.9477438,43.1911765 L40.234375,43.1911765 C42.3523503,43.1911765 44.078125,41.4621271 44.078125,39.3382353 L44.078125,33.536902 C40.7239128,36.3318924 36.4840655,37.9117647 32,37.9117647 C18.1302549,37.9117647 6.8437501,49.2196859 6.84375,63.1176469 L6.84375,64.578125 C6.84375,66.4679744 5.31172438,68 3.421875,68 C1.53202562,68 -2.54241073e-13,66.4679744 -2.54463117e-13,64.578125 L-2.55795385e-13,62.138945 L0.0146148481,62.1364275 C0.259031619,53.9418309 3.56182159,46.270375 9.37188945,40.4492825 C12.3962342,37.4191988 15.9391966,35.0540712 19.8242801,33.4541264 C18.555373,32.38308 17.4289655,31.1484828 16.4771239,29.7830882 L10.4453125,29.7830882 C7.22191806,29.7830882 4.6015625,27.1577605 4.6015625,23.9301471 L4.6015625,16.6507353 C4.6015625,13.4231219 7.22191806,10.7977941 10.4453125,10.7977941 L14.9226422,10.7977941 C18.0370256,4.27536032 24.6361976,-8.52651283e-14 32,-8.52651283e-14 C39.3638024,-8.52651283e-14 45.9629744,4.27536032 49.0773578,10.7977941 L53.5546875,10.7977941 C56.7780819,10.7977941 59.3984375,13.4231219 59.3984375,16.6507353 L59.3984375,23.9301471 C59.3984375,27.1577605 56.7780819,29.7830882 53.5546875,29.7830882 L50.921875,29.7830882 L50.921875,37.261632 C59.1544208,43.3087425 64,52.8578975 64,63.1176471 L64,64.1176471 L62.9958854,64.1176471 Z M50.4298991,17.7759104 C50.4789468,18.169294 50.5036151,18.5646589 50.5036151,18.9615313 L50.5036151,22.6778711 L55.4524802,22.6778711 L55.4524802,17.7759104 L50.4298991,17.7759104 Z M14.1800222,22.6778711 C13.6961412,21.4690802 13.4479981,20.2248414 13.4479981,18.9615313 C13.4479981,18.5646631 13.472512,18.1692992 13.521254,17.7759104 L8.54751984,17.7759104 L8.54751984,22.6778711 L14.1800222,22.6778711 Z M32,31.5518207 C38.7729817,31.5518207 44.2857143,26.0286276 44.2857143,19.2408964 C44.2857143,12.4531651 38.7729817,6.92997199 32,6.92997199 C25.2270183,6.92997199 19.7142857,12.4531651 19.7142857,19.2408964 C19.7142857,26.0286276 25.2270183,31.5518207 32,31.5518207 Z" id="Combined-Shape"></path>
                </g>
            </g>
        </g>
    </g>
</svg>