<?xml version="1.0" encoding="UTF-8"?>
<svg width="69px" height="68px" viewBox="0 0 69 68" version="1.1" xmlns="http://www.w3.org/2000/svg" xmlns:xlink="http://www.w3.org/1999/xlink">
    <!-- Generator: Sketch 52.4 (67378) - http://www.bohemiancoding.com/sketch -->
    <title>delete</title>
    <desc>Created with Sketch.</desc>
    <g id="Page-1" stroke="none" stroke-width="1" fill="none" fill-rule="evenodd">
        <g id="Icons" transform="translate(-3343.000000, -495.000000)" fill="#000000" fill-rule="nonzero">
            <g id="Icons-(final)" transform="translate(50.000000, 244.000000)">
                <path d="M3306.05379,319 C3304.39694,319 3303.05379,317.656854 3303.05379,316 L3303.05379,266.85725 C3303.05379,265.200396 3304.39694,263.85725 3306.05379,263.85725 L3348.67879,263.85725 C3350.33565,263.85725 3351.67879,265.200396 3351.67879,266.85725 L3351.67879,316 C3351.67879,317.656854 3350.33565,319 3348.67879,319 L3306.05379,319 Z M3345.67879,313 L3345.67879,269.85725 L3309.05379,269.85725 L3309.05379,313 L3345.67879,313 Z M3358.36649,263.857444 C3360.02334,263.857444 3361.36649,265.20059 3361.36649,266.857444 C3361.36649,268.514298 3360.02334,269.857444 3358.36649,269.857444 L3296.36649,269.857444 C3294.70963,269.857444 3293.36649,268.514298 3293.36649,266.857444 C3293.36649,265.20059 3294.70963,263.857444 3296.36649,263.857444 L3358.36649,263.857444 Z M3317.20992,269.85725 C3315.55306,269.85725 3314.20992,268.514104 3314.20992,266.85725 L3314.20992,254 C3314.20992,252.343146 3315.55306,251 3317.20992,251 L3337.52461,251 C3339.18146,251 3340.52461,252.343146 3340.52461,254 L3340.52461,266.85725 C3340.52461,268.514104 3339.18146,269.85725 3337.52461,269.85725 L3317.20992,269.85725 Z M3334.52461,263.85725 L3334.52461,257 L3320.20992,257 L3320.20992,263.85725 L3334.52461,263.85725 Z M3317.10086,281.123741 C3317.10086,279.466886 3318.44401,278.123741 3320.10086,278.123741 C3321.75772,278.123741 3323.10086,279.466886 3323.10086,281.123741 L3323.10086,301.727116 C3323.10086,303.38397 3321.75772,304.727116 3320.10086,304.727116 C3318.44401,304.727116 3317.10086,303.38397 3317.10086,301.727116 L3317.10086,281.123741 Z M3331.63308,281.123741 C3331.63308,279.466886 3332.97623,278.123741 3334.63308,278.123741 C3336.28993,278.123741 3337.63308,279.466886 3337.63308,281.123741 L3337.63308,301.727116 C3337.63308,303.38397 3336.28993,304.727116 3334.63308,304.727116 C3332.97623,304.727116 3331.63308,303.38397 3331.63308,301.727116 L3331.63308,281.123741 Z" id="delete"></path>
            </g>
        </g>
    </g>
</svg>