<?xml version="1.0" encoding="UTF-8"?>
<svg width="51px" height="67px" viewBox="0 0 51 67" version="1.1" xmlns="http://www.w3.org/2000/svg" xmlns:xlink="http://www.w3.org/1999/xlink">
    <!-- Generator: Sketch 52.4 (67378) - http://www.bohemiancoding.com/sketch -->
    <title>download</title>
    <desc>Created with Sketch.</desc>
    <g id="Page-1" stroke="none" stroke-width="1" fill="none" fill-rule="evenodd">
        <g id="Icons" transform="translate(-1766.000000, -495.000000)" fill="#000000" fill-rule="nonzero">
            <g id="Icons-(final)" transform="translate(230.000000, 472.000000)">
                <path d="M1558.7126,26 C1558.7126,24.3431458 1560.05575,23 1561.7126,23 C1563.36945,23 1564.7126,24.3431458 1564.7126,26 L1564.7126,67.9379851 C1564.7126,69.5948394 1563.36945,70.9379851 1561.7126,70.9379851 C1560.05575,70.9379851 1558.7126,69.5948394 1558.7126,67.9379851 L1558.7126,26 Z M1583.6427,83.5387173 C1585.29956,83.5387173 1586.6427,84.881863 1586.6427,86.5387173 C1586.6427,88.1955715 1585.29956,89.5387173 1583.6427,89.5387173 L1539.7825,89.5387173 C1538.12564,89.5387173 1536.7825,88.1955715 1536.7825,86.5387173 C1536.7825,84.881863 1538.12564,83.5387173 1539.7825,83.5387173 L1583.6427,83.5387173 Z M1570.37755,55.0307726 C1571.54913,53.8591997 1573.44862,53.8591997 1574.62019,55.0307726 C1575.79177,56.2023455 1575.79177,58.1018404 1574.62019,59.2734133 L1563.83344,70.0601636 C1562.66183,71.2317731 1560.76227,71.2317311 1559.59071,70.0600698 L1548.80491,59.2733195 C1547.63339,58.1016949 1547.63348,56.2021999 1548.8051,55.0306789 C1549.97672,53.8591578 1551.87622,53.8592417 1553.04774,55.0308664 L1561.71222,63.6961088 L1570.37755,55.0307726 Z" id="download"></path>
            </g>
        </g>
    </g>
</svg>