<?xml version="1.0" encoding="UTF-8"?>
<svg width="11px" height="20px" viewBox="0 0 11 20" version="1.1" xmlns="http://www.w3.org/2000/svg" xmlns:xlink="http://www.w3.org/1999/xlink">
    <!-- Generator: Sketch 52.6 (67491) - http://www.bohemiancoding.com/sketch -->
    <title>Combined Shape</title>
    <desc>Created with Sketch.</desc>
    <g id="New-Application-Design" stroke="none" stroke-width="1" fill="none" fill-rule="evenodd">
        <g id="Card-SV-[Change-assigned-member]" transform="translate(-1298.000000, -438.000000)" fill="#000000">
            <g id="tasks" transform="translate(1268.000000, 291.000000)">
                <g id="Member-Copy" transform="translate(30.000000, 141.000000)">
                    <g id="task">
                        <path d="M2,10 C0.8954305,10 0,9.1045695 0,8 C0,6.8954305 0.8954305,6 2,6 C3.1045695,6 4,6.8954305 4,8 C4,9.1045695 3.1045695,10 2,10 Z M2,18 C0.8954305,18 0,17.1045695 0,16 C0,14.8954305 0.8954305,14 2,14 C3.1045695,14 4,14.8954305 4,16 C4,17.1045695 3.1045695,18 2,18 Z M2,26 C0.8954305,26 0,25.1045695 0,24 C0,22.8954305 0.8954305,22 2,22 C3.1045695,22 4,22.8954305 4,24 C4,25.1045695 3.1045695,26 2,26 Z M9,10 C7.8954305,10 7,9.1045695 7,8 C7,6.8954305 7.8954305,6 9,6 C10.1045695,6 11,6.8954305 11,8 C11,9.1045695 10.1045695,10 9,10 Z M9,18 C7.8954305,18 7,17.1045695 7,16 C7,14.8954305 7.8954305,14 9,14 C10.1045695,14 11,14.8954305 11,16 C11,17.1045695 10.1045695,18 9,18 Z M9,26 C7.8954305,26 7,25.1045695 7,24 C7,22.8954305 7.8954305,22 9,22 C10.1045695,22 11,22.8954305 11,24 C11,25.1045695 10.1045695,26 9,26 Z" id="Combined-Shape"></path>
                    </g>
                </g>
            </g>
        </g>
    </g>
</svg>