<?xml version="1.0" encoding="UTF-8"?>
<svg width="67px" height="67px" viewBox="0 0 67 67" version="1.1" xmlns="http://www.w3.org/2000/svg" xmlns:xlink="http://www.w3.org/1999/xlink">
    <!-- Generator: Sketch 52.4 (67378) - http://www.bohemiancoding.com/sketch -->
    <title>edit</title>
    <desc>Created with Sketch.</desc>
    <g id="Page-1" stroke="none" stroke-width="1" fill="none" fill-rule="evenodd">
        <g id="Icons" transform="translate(-1432.000000, -494.000000)" fill="#000000" fill-rule="nonzero">
            <g id="Icons-(final)" transform="translate(230.000000, 472.000000)">
                <g id="edit" transform="translate(1202.000000, 22.000000)">
                    <path d="M35.3660445,14.0600146 L52.5732454,31.2672155 L59.056376,24.7840849 L41.8487199,7.5771816 L35.3660445,14.0600146 Z M31.1234554,18.3027068 L6.25854919,43.1682173 L6.54387467,60.0897499 L23.4653858,60.3750751 L48.3306047,35.5098562 L31.1234554,18.3027068 Z M54.7088254,37.6169168 C54.7041071,37.6216976 54.6993695,37.6264665 54.6946127,37.6312234 C54.6898558,37.6359803 54.6850869,37.6407179 54.6803061,37.6454362 L26.8083219,65.5174203 C26.2333087,66.0924335 25.4494996,66.4093834 24.6364237,66.3956736 L3.54262369,66.0399967 C1.92536842,66.0127271 0.620897564,64.7082562 0.593627922,63.0910009 L0.237950999,41.9972009 C0.224241386,41.1841377 0.541181238,40.4003397 1.11617849,39.8253285 L39.7273016,1.21326697 C40.8988522,0.0416879167 42.7983312,0.0416555988 43.9699216,1.21319479 L65.420337,22.6626717 C66.5919536,23.8342371 66.5919744,25.7337678 65.4203834,26.9053588 L54.7088254,37.6169168 Z" id="Combined-Shape"></path>
                </g>
            </g>
        </g>
    </g>
</svg>