<?xml version="1.0" encoding="UTF-8"?>
<svg width="81px" height="68px" viewBox="0 0 81 68" version="1.1" xmlns="http://www.w3.org/2000/svg" xmlns:xlink="http://www.w3.org/1999/xlink">
    <!-- Generator: Sketch 52.4 (67378) - http://www.bohemiancoding.com/sketch -->
    <title>logout</title>
    <desc>Created with Sketch.</desc>
    <g id="Page-1" stroke="none" stroke-width="1" fill="none" fill-rule="evenodd">
        <g id="Icons" transform="translate(-652.000000, -494.000000)" fill="#000000" fill-rule="nonzero">
            <g id="Icons-(final)" transform="translate(230.000000, 472.000000)">
                <path d="M457,28 L457,32.1823234 C457,33.8391777 455.656854,35.1823234 454,35.1823234 C452.343146,35.1823234 451,33.8391777 451,32.1823234 L451,25 C451,23.3431458 452.343146,22 454,22 L500,22 C501.656854,22 503,23.3431458 503,25 L503,87 C503,88.6568542 501.656854,90 500,90 L454,90 C452.343146,90 451,88.6568542 451,87 L451,79.2787639 C451,77.6219096 452.343146,76.2787639 454,76.2787639 C455.656854,76.2787639 457,77.6219096 457,79.2787639 L457,84 L497,84 L497,28 L457,28 Z M429.164814,55.4994953 L440.161007,66.9191227 C441.310243,68.1126136 441.274368,70.0117698 440.080877,71.1610066 C438.887386,72.3102434 436.98823,72.2743683 435.838993,71.0808773 L422.838993,57.5802807 C421.7203,56.4185091 421.720341,54.5801526 422.839085,53.4184305 L435.839085,39.9190272 C436.988375,38.725587 438.887533,38.6897958 440.080973,39.8390853 C441.274413,40.9883748 441.310204,42.8875326 440.160915,44.0809728 L429.164814,55.4994953 Z M478,53 C479.656854,53 481,54.3431458 481,56 C481,57.6568542 479.656854,59 478,59 L425,59 C423.343146,59 422,57.6568542 422,56 C422,54.3431458 423.343146,53 425,53 L478,53 Z M476,50 C476,48.3431458 477.343146,47 479,47 C480.656854,47 482,48.3431458 482,50 L482,63 C482,64.6568542 480.656854,66 479,66 C477.343146,66 476,64.6568542 476,63 L476,50 Z" id="logout"></path>
            </g>
        </g>
    </g>
</svg>