<?xml version="1.0" encoding="UTF-8"?>
<svg width="69px" height="68px" viewBox="0 0 69 68" version="1.1" xmlns="http://www.w3.org/2000/svg" xmlns:xlink="http://www.w3.org/1999/xlink">
    <!-- Generator: Sketch 52.4 (67378) - http://www.bohemiancoding.com/sketch -->
    <title>manual_guide</title>
    <desc>Created with Sketch.</desc>
    <g id="Page-1" stroke="none" stroke-width="1" fill="none" fill-rule="evenodd">
        <g id="Icons" transform="translate(-427.000000, -494.000000)" fill="#000000" fill-rule="nonzero">
            <g id="Icons-(final)" transform="translate(230.000000, 472.000000)">
                <path d="M242.691442,74.5502307 C241.079195,74.9321035 239.462642,73.9346885 239.080769,72.3224419 C238.698896,70.7101953 239.696312,69.0936421 241.308558,68.7117693 C242.774776,68.3644845 244.261477,68.1301705 245.759429,68.0096613 C247.410948,67.8767977 248.857475,69.1079107 248.990339,70.7594292 C249.123202,72.4109477 247.892089,73.8574751 246.240571,73.9903387 C245.046169,74.0864276 243.860925,74.2732299 242.691442,74.5502307 Z M229.000006,82.8882937 L229,30.0021347 C220.546931,27.3326055 211.45383,27.3326182 203,30.0021942 L202.999994,82.8882937 C211.504588,80.5570203 220.495957,80.5569863 229.000006,82.8882937 Z M197,87 L197,27.8594458 C197,26.6036853 197.782121,25.480802 198.960011,25.0454765 C209.947167,20.9848357 222.053898,20.9848357 233.040077,25.0455092 C234.217922,25.4808599 235,26.60372 235,27.8594458 L235,87 C235,89.0887047 232.918786,90.538152 230.959686,89.8138491 C221.316008,86.2484648 210.684927,86.2484648 201.040225,89.8138819 C199.08114,90.5381091 197,89.0886645 197,87 Z M210.619143,42.649666 C208.997959,42.9916095 207.406528,41.9545794 207.064585,40.3333945 C206.722641,38.7122095 207.759672,37.1207795 209.380857,36.778836 C213.681714,35.8716906 218.119189,35.7562704 222.463932,36.4363403 C224.100855,36.692563 225.220133,38.2272606 224.963911,39.8641833 C224.707688,41.501106 223.17299,42.6203845 221.536068,42.3641617 C217.91025,41.796623 214.206797,41.8929511 210.619143,42.649666 Z M210.619143,58.649666 C208.997959,58.9916095 207.406528,57.9545794 207.064585,56.3333945 C206.722641,54.7122095 207.759672,53.1207795 209.380857,52.778836 C213.681714,51.8716906 218.119189,51.7562704 222.463932,52.4363403 C224.100855,52.692563 225.220133,54.2272606 224.963911,55.8641833 C224.707688,57.501106 223.17299,58.6203845 221.536068,58.3641617 C217.91025,57.796623 214.206797,57.8929511 210.619143,58.649666 Z M210.619143,74.649666 C208.997959,74.9916095 207.406528,73.9545794 207.064585,72.3333945 C206.722641,70.7122095 207.759672,69.1207795 209.380857,68.778836 C213.681714,67.8716906 218.119189,67.7562704 222.463932,68.4363403 C224.100855,68.692563 225.220133,70.2272606 224.963911,71.8641833 C224.707688,73.501106 223.17299,74.6203845 221.536068,74.3641617 C217.91025,73.796623 214.206797,73.8929511 210.619143,74.649666 Z M260.000006,82.854891 L260,29.9809334 C251.869835,27.3396724 243.130898,27.3396852 235,29.9809937 L234.999994,82.854891 C243.180482,80.5681551 251.820033,80.5681205 260.000006,82.854891 Z M229,87 L229,27.8594458 C229,26.6151541 229.768105,25.5000166 230.930667,25.056496 C241.612988,20.9811622 253.388047,20.9811622 264.069423,25.0565305 C265.231938,25.5000761 266,26.6151895 266,27.8594458 L266,87 C266,89.1020237 263.894202,90.5523099 261.930335,89.8028232 C252.626543,86.2521398 242.374359,86.2521398 233.069574,89.8028577 C231.105721,90.5522664 229,89.1019825 229,87 Z M241.619143,42.649666 C239.997959,42.9916095 238.406528,41.9545794 238.064585,40.3333945 C237.722641,38.7122095 238.759672,37.1207795 240.380857,36.778836 C244.681714,35.8716906 249.119189,35.7562704 253.463932,36.4363403 C255.100855,36.692563 256.220133,38.2272606 255.963911,39.8641833 C255.707688,41.501106 254.17299,42.6203845 252.536068,42.3641617 C248.91025,41.796623 245.206797,41.8929511 241.619143,42.649666 Z M241.619143,58.650086 C239.997959,58.9920295 238.406528,57.9549994 238.064585,56.3338145 C237.722641,54.7126295 238.759672,53.1211995 240.380857,52.779256 C244.68379,51.8716728 249.121551,51.755969 253.464659,52.4368741 C255.101519,52.6934983 256.220421,54.2284703 255.963797,55.8653301 C255.707173,57.5021899 254.172201,58.621092 252.535341,58.3644679 C248.911989,57.7964049 245.208757,57.8929577 241.619143,58.650086 Z" id="manual_guide"></path>
            </g>
        </g>
    </g>
</svg>