<?xml version="1.0" encoding="UTF-8"?>
<svg width="66px" height="61px" viewBox="0 0 66 61" version="1.1" xmlns="http://www.w3.org/2000/svg" xmlns:xlink="http://www.w3.org/1999/xlink">
    <!-- Generator: Sketch 52.4 (67378) - http://www.bohemiancoding.com/sketch -->
    <title>post</title>
    <desc>Created with Sketch.</desc>
    <g id="Page-1" stroke="none" stroke-width="1" fill="none" fill-rule="evenodd">
        <g id="Icons" transform="translate(-1323.000000, -498.000000)" fill="#000000" fill-rule="nonzero">
            <g id="Icons-(final)" transform="translate(230.000000, 472.000000)">
                <g id="post" transform="translate(1113.207107, 56.500000) rotate(45.000000) translate(-1113.207107, -56.500000) translate(1079.207107, 22.500000)">
                    <path d="M31.866577,31.8907823 L52.2821845,11.4751748 L12.4726227,26.0199714 L31.866577,31.8907823 Z M36.1086947,36.133946 L41.9791809,55.5274497 L56.5245113,15.7181293 L36.1086947,36.133946 Z M29.3436593,37.3959427 L2.13081112,29.1582475 C-0.627499045,28.3232699 -0.736424447,24.4580985 1.97048389,23.4691042 L62.9704839,1.1821823 C65.3672719,0.306493326 67.6935255,2.63277899 66.8178035,5.02955496 L44.5299285,66.029555 C43.5408994,68.7364427 39.6757426,68.6274738 38.8407917,65.8691633 L30.6032379,38.6559096 C30.3425917,38.5187304 30.0978933,38.3405339 29.8786797,38.1213203 C29.6592363,37.901877 29.4808962,37.6568955 29.3436593,37.3959427 Z" id="Combined-Shape"></path>
                </g>
            </g>
        </g>
    </g>
</svg>