<?xml version="1.0" encoding="UTF-8"?>
<svg width="45px" height="69px" viewBox="0 0 45 69" version="1.1" xmlns="http://www.w3.org/2000/svg" xmlns:xlink="http://www.w3.org/1999/xlink">
    <!-- Generator: Sketch 52.4 (67378) - http://www.bohemiancoding.com/sketch -->
    <title>private_boards</title>
    <desc>Created with Sketch.</desc>
    <g id="Page-1" stroke="none" stroke-width="1" fill="none" fill-rule="evenodd">
        <g id="Icons" transform="translate(-891.000000, -494.000000)" fill="#000000" fill-rule="nonzero">
            <g id="Icons-(final)" transform="translate(230.000000, 472.000000)">
                <g id="private_boards" transform="translate(661.000000, 22.000000)">
                    <path d="M41.984375,8.04034845 C43.6492437,8.04034845 45,9.38739353 45,11.0504356 L45,47.2320036 C45,48.8950456 43.6492437,50.2420907 41.984375,50.2420907 L35.7023648,50.2420907 L43.9249644,64.4829986 C44.4643502,65.4153651 44.463981,66.5642453 43.9239966,67.4962661 C43.3845393,68.4273772 42.3886605,69.0003441 41.3115342,68.9999998 C40.234407,68.9996556 39.2388951,68.4260515 38.6995955,67.4938329 L28.739488,50.2420907 L16.4274923,50.2420907 L6.50421447,67.371309 C5.9653549,68.3027661 4.96984304,68.8763703 3.89271585,68.8767146 C2.81558943,68.8770588 1.81971059,68.3040919 1.28025331,67.3729808 C0.740268925,66.4409599 0.739899784,65.2920798 1.27944572,64.3594365 L9.45253343,50.2420907 L3.015625,50.2420907 C1.35075625,50.2420907 4.54747351e-13,48.8950456 4.54747351e-13,47.2320036 L4.54747351e-13,11.0504356 C4.54747351e-13,9.38739353 1.35075625,8.04034845 3.015625,8.04034845 L10.75,8.04034845 L10.75,3.01008711 C10.75,1.34704508 12.1007563,-9.23705556e-14 13.765625,-9.23705556e-14 L31.234375,-9.23705556e-14 C32.8992437,-9.23705556e-14 34.25,1.34704508 34.25,3.01008711 L34.25,8.04034845 L41.984375,8.04034845 Z M16.78125,8.04034845 L28.21875,8.04034845 L28.21875,4.02017423 L16.78125,4.02017423 L16.78125,8.04034845 Z M38.96875,14.0605227 L6.03125,14.0605227 L6.03125,44.2219165 L38.96875,44.2219165 L38.96875,14.0605227 Z M27.8025395,22.61466 C28.4183501,24.6213526 27.5615042,26.7138084 25.7472936,27.8997471 L25.7472936,35.0384618 C25.7472936,36.7066039 24.2654765,38 22.5,38 C20.7345235,38 19.2527064,36.7066039 19.2527064,35.0384618 L19.2527064,27.8997471 C17.4384958,26.7138084 16.5816499,24.6213526 17.1974605,22.61466 C17.8590781,20.4586996 20.042003,18.9979988 22.5,19.0000021 C24.957997,18.9979988 27.1409219,20.4586996 27.8025395,22.61466 Z" id="Combined-Shape"></path>
                </g>
            </g>
        </g>
    </g>
</svg>