<?xml version="1.0" encoding="UTF-8"?>
<svg width="75px" height="68px" viewBox="0 0 75 68" version="1.1" xmlns="http://www.w3.org/2000/svg" xmlns:xlink="http://www.w3.org/1999/xlink">
    <!-- Generator: Sketch 52.4 (67378) - http://www.bohemiancoding.com/sketch -->
    <title>reset</title>
    <desc>Created with Sketch.</desc>
    <g id="Page-1" stroke="none" stroke-width="1" fill="none" fill-rule="evenodd">
        <g id="Icons" transform="translate(-2340.000000, -494.000000)" fill="#000000" fill-rule="nonzero">
            <g id="Icons-(final)" transform="translate(230.000000, 472.000000)">
                <g id="reset" transform="translate(2146.729708, 52.729708) rotate(45.000000) translate(-2146.729708, -52.729708) translate(2107.729708, 18.229708)">
                    <path d="M13.353323,49.6284108 C11.0175452,44.9641135 9.77771053,39.7922908 9.77771053,34.4418632 C9.77771053,15.681249 24.9861951,0.472389474 43.7460789,0.472389474 C62.5068806,0.472389474 77.7155526,15.6810615 77.7155526,34.4418632 C77.7155526,53.2024871 62.5070583,68.4102316 43.7460789,68.4102316 C42.0892247,68.4102316 40.7460789,67.0670858 40.7460789,65.4102316 C40.7460789,63.7533773 42.0892247,62.4102316 43.7460789,62.4102316 C59.193416,62.4102316 71.7155526,49.8887123 71.7155526,34.4418632 C71.7155526,18.99477 59.1931721,6.47238947 43.7460789,6.47238947 C28.2999367,6.47238947 15.7777105,18.9949244 15.7777105,34.4418632 C15.7777105,38.9469003 16.8411603,43.288057 18.8436581,47.1891968 L22.9514825,41.0226997 C23.8700485,39.6437861 25.7325237,39.2706007 27.1114372,40.1891667 C28.4903507,41.1077327 28.8635361,42.9702079 27.9449701,44.3491214 L19.3614964,57.2342793 C18.4430333,58.6130384 16.5808418,58.9863203 15.2019373,58.0680757 L2.31567413,49.4868125 C0.936615111,48.5684649 0.563134683,46.7060489 1.48148224,45.3269899 C2.3998298,43.9479309 4.26224581,43.5744505 5.64130482,44.492798 L13.353323,49.6284108 Z" id="Combined-Shape"></path>
                </g>
            </g>
        </g>
    </g>
</svg>