<?xml version="1.0" encoding="UTF-8"?>
<svg width="63px" height="68px" viewBox="0 0 63 68" version="1.1" xmlns="http://www.w3.org/2000/svg" xmlns:xlink="http://www.w3.org/1999/xlink">
    <!-- Generator: Sketch 52.5 (67469) - http://www.bohemiancoding.com/sketch -->
    <title>Return</title>
    <desc>Created with Sketch.</desc>
    <g id="Page-1" stroke="none" stroke-width="1" fill="none" fill-rule="evenodd">
        <g id="Icons" transform="translate(-3456.000000, -495.000000)" fill="#000000" fill-rule="nonzero">
            <g id="Icons-(final)" transform="translate(50.000000, 244.000000)">
                <path d="M3422.08741,313.845302 C3423.27742,314.998146 3423.30754,316.897402 3422.1547,318.087409 C3421.00185,319.277416 3419.1026,319.307542 3417.91259,318.154698 L3406.91259,307.498221 C3405.74832,306.370313 3405.69062,304.521532 3406.78227,303.323207 L3417.11603,291.979685 C3418.23182,290.754866 3420.12926,290.666481 3421.35408,291.78227 C3422.5789,292.898059 3422.66728,294.795497 3421.55149,296.020315 L3413.17698,305.21314 L3422.08741,313.845302 Z M3413.57222,257 C3411.91537,257 3410.57222,255.656854 3410.57222,254 C3410.57222,252.343146 3411.91537,251 3413.57222,251 L3440.00229,251 C3456.00461,251 3469,263.746126 3469,279.499031 C3469,295.253539 3456.00495,308 3440.00229,308 L3412,308 C3410.34315,308 3409,306.656854 3409,305 C3409,303.343146 3410.34315,302 3412,302 L3440.00229,302 C3452.7169,302 3463,291.913614 3463,279.499031 C3463,267.086122 3452.71663,257 3440.00229,257 L3413.57222,257 Z" id="Return" transform="translate(3437.499996, 285.000001) scale(-1, 1) rotate(180.000000) translate(-3437.499996, -285.000001) "></path>
            </g>
        </g>
    </g>
</svg>