<?xml version="1.0" encoding="UTF-8"?>
<svg width="69px" height="68px" viewBox="0 0 69 68" version="1.1" xmlns="http://www.w3.org/2000/svg" xmlns:xlink="http://www.w3.org/1999/xlink">
    <!-- Generator: Sketch 52.4 (67378) - http://www.bohemiancoding.com/sketch -->
    <title>settings</title>
    <desc>Created with Sketch.</desc>
    <g id="Page-1" stroke="none" stroke-width="1" fill="none" fill-rule="evenodd">
        <g id="Icons" transform="translate(-2213.000000, -494.000000)" fill="#000000" fill-rule="nonzero">
            <g id="Icons-(final)" transform="translate(230.000000, 472.000000)">
                <g id="settings" transform="translate(1983.000000, 22.000000)">
                    <path d="M53.3198489,18.7720238 C56.0817142,22.2050776 57.9300652,26.4041224 58.4956982,31 L65.6875,31 C67.3443542,31 68.6875,32.3431458 68.6875,34 C68.6875,35.6568542 67.3443542,37 65.6875,37 L58.4956982,37 C57.9346547,41.5585864 56.1116249,45.7267538 53.386898,49.1442573 L58.9713516,54.7287109 C60.1429245,55.9002838 60.1429245,57.7997787 58.9713516,58.9713516 C57.7997787,60.1429245 55.9002838,60.1429245 54.7287109,58.9713516 L49.0989436,53.3415843 C45.6676821,55.9592446 41.5192531,57.6846498 37,58.171499 L37,65.1314741 C37,66.7157172 35.6568542,68 34,68 C32.3431458,68 31,66.7157172 31,65.1314741 L31,58.0812998 C26.5474841,57.4645301 22.4802916,55.6419417 19.1387799,52.9538921 L14.1213203,57.9713516 C12.9497475,59.1429245 11.0502525,59.1429245 9.87867966,57.9713516 C8.70710678,56.7997787 8.70710678,54.9002838 9.87867966,53.7287109 L14.9599969,48.6473937 C12.4491986,45.3260603 10.771347,41.3399908 10.2372566,37 L3,37 C1.34314575,37 0,35.6568542 0,34 C0,32.3431458 1.34314575,31 3,31 L10.2372566,31 C10.775946,26.622638 12.478179,22.6053188 15.0250426,19.2669555 L9.87882967,14.1214704 C8.70717395,12.9499803 8.70703963,11.0504854 9.87852965,9.87882967 C11.0500197,8.70717395 12.9495146,8.70703963 14.1211703,9.87852965 L19.2224579,14.9790958 C22.5480961,12.3277694 26.5845836,10.5303308 31,9.91870016 L31,3 C31,1.34314575 32.3431458,0 34,0 C35.6568542,0 37,1.34314575 37,3 L37,9.82850099 C41.4816946,10.3113041 45.5987031,12.012162 49.0132458,14.5933364 L54.7288609,8.87852965 C55.9005166,7.70703963 57.8000116,7.70717395 58.9715016,8.87882967 C60.1429916,10.0504854 60.1428573,11.9499803 58.9712016,13.1214704 L53.3198489,18.7720238 Z M52.6789863,34 C52.6789863,23.8868974 44.4793315,15.6875 34.3664863,15.6875 C24.2530281,15.6875 16.0539863,23.8865417 16.0539863,34 C16.0539863,44.1134583 24.2530281,52.3125 34.3664863,52.3125 C44.4793315,52.3125 52.6789863,44.1131026 52.6789863,34 Z" id="Combined-Shape"></path>
                </g>
            </g>
        </g>
    </g>
</svg>