<?xml version="1.0" encoding="UTF-8"?>
<svg width="70px" height="70px" viewBox="0 0 70 70" version="1.1" xmlns="http://www.w3.org/2000/svg" xmlns:xlink="http://www.w3.org/1999/xlink">
    <!-- Generator: Sketch 52.5 (67469) - http://www.bohemiancoding.com/sketch -->
    <title>task</title>
    <desc>Created with Sketch.</desc>
    <g id="Page-1" stroke="none" stroke-width="1" fill="none" fill-rule="evenodd">
        <g id="Icons" transform="translate(-4010.000000, -492.000000)" fill="#000000" fill-rule="nonzero">
            <g id="Icons-(final)" transform="translate(50.000000, 244.000000)">
                <path d="M4024,283 C4024,266.983854 4011.01615,254 3995,254 C3978.98385,254 3966,266.983854 3966,283 C3966,299.016146 3978.98385,312 3995,312 C4011.01615,312 4024,299.016146 4024,283 Z M4030,283 C4030,302.329854 4014.32985,318 3995,318 C3975.67015,318 3960,302.329854 3960,283 C3960,263.670146 3975.67015,248 3995,248 C4014.32985,248 4030,263.670146 4030,283 Z M3991.58883,286.346194 L4005.05635,272.87868 C4006.22792,271.707107 4008.12742,271.707107 4009.29899,272.87868 C4010.47056,274.050253 4010.47056,275.949747 4009.29899,277.12132 L3993.74264,292.67767 C3992.77352,293.64679 3991.30632,293.814258 3990.16505,293.180072 C3989.87574,293.038304 3989.60451,292.847147 3989.36396,292.606602 L3980.87868,284.12132 C3979.70711,282.949747 3979.70711,281.050253 3980.87868,279.87868 C3982.05025,278.707107 3983.94975,278.707107 3985.12132,279.87868 L3991.58883,286.346194 Z" id="task"></path>
            </g>
        </g>
    </g>
</svg>