<?xml version="1.0" encoding="UTF-8"?>
<svg width="68px" height="68px" viewBox="0 0 68 68" version="1.1" xmlns="http://www.w3.org/2000/svg" xmlns:xlink="http://www.w3.org/1999/xlink">
    <!-- Generator: Sketch 52.4 (67378) - http://www.bohemiancoding.com/sketch -->
    <title>team</title>
    <desc>Created with Sketch.</desc>
    <g id="Page-1" stroke="none" stroke-width="1" fill="none" fill-rule="evenodd">
        <g id="Icons" transform="translate(-777.000000, -494.000000)" fill="#000000" fill-rule="nonzero">
            <g id="Icons-(final)" transform="translate(230.000000, 472.000000)">
                <g id="team" transform="translate(547.000000, 22.000000)">
                    <path d="M43.8714497,41.0027045 C43.9140758,41.0009075 43.9569319,41 44,41 C50.0275268,41 55,35.9119874 55,29.6746988 L55,17.3253012 C55,11.0880126 50.0275268,6 44,6 C37.9718734,6 33,11.0876408 33,17.3253012 C33,18.9821555 31.6568542,20.3253012 30,20.3253012 C28.3431458,20.3253012 27,18.9821555 27,17.3253012 C27,7.80444888 34.6268614,0 44,0 C53.3724732,0 61,7.80475845 61,17.3253012 L61,29.6746988 C61,35.2703376 58.3651271,40.2732714 54.2897317,43.4472452 C62.4057351,47.3533555 68,55.52958 68,65 C68,66.6568542 66.6568542,68 65,68 L30,68 L3,68 C1.34314575,68 0,66.6568542 0,65 C0,58.8389828 3.58218177,53.5115194 8.81925475,50.8361886 C6.47385722,48.6947185 5,45.6469491 5,42.2649022 L5,34.7350978 C5,28.2537108 10.4129257,23 16.9995171,23 C23.5868765,23 29,28.2535141 29,34.7350978 L29,42.2649022 C29,45.8264265 27.3656033,49.0171569 24.8000703,51.1692446 C28.8486459,53.4580368 31.8066314,57.3712155 32.7109208,62 L61.7439595,62 C60.2767723,53.4978549 52.6792241,47 43.5,47 C42.1309862,47 40.7813698,47.1448788 39.4699785,47.4288613 C37.8506576,47.779526 36.2536686,46.7510769 35.9030039,45.131756 C35.5523392,43.5124351 36.5807882,41.9154462 38.2001092,41.5647815 C39.928142,41.1905751 41.7034413,41 43.5,41 C43.6240319,41 43.7478506,41.0009036 43.8714497,41.0027045 Z M22,62 L26.5182795,62 C25.1826174,57.955207 21.217847,55 16.5,55 C11.782153,55 7.81738258,57.955207 6.48172052,62 L22,62 Z M16.9995171,48 C20.3126889,48 23,45.391926 23,42.2649022 L23,34.7350978 C23,31.608074 20.3126889,29 16.9995171,29 C13.6872092,29 11,31.6081681 11,34.7350978 L11,42.2649022 C11,45.3918319 13.6872092,48 16.9995171,48 Z" id="Combined-Shape"></path>
                </g>
            </g>
        </g>
    </g>
</svg>