<?xml version="1.0" encoding="UTF-8"?>
<svg width="67px" height="67px" viewBox="0 0 67 67" version="1.1" xmlns="http://www.w3.org/2000/svg" xmlns:xlink="http://www.w3.org/1999/xlink">
    <!-- Generator: Sketch 52.4 (67378) - http://www.bohemiancoding.com/sketch -->
    <title>user</title>
    <desc>Created with Sketch.</desc>
    <g id="Page-1" stroke="none" stroke-width="1" fill="none" fill-rule="evenodd">
        <g id="Icons" transform="translate(-1861.000000, -495.000000)" fill="#000000" fill-rule="nonzero">
            <g id="Icons-(final)" transform="translate(230.000000, 472.000000)">
                <g id="user" transform="translate(1631.000000, 23.000000)">
                    <path d="M63.76698,66.1056462 L3.70544154,66.1056462 C2.04858729,66.1056462 0.705441538,64.7625004 0.705441538,63.1056462 C0.705441538,44.8624227 15.4929873,30.0748769 33.7362108,30.0748769 C51.9788054,30.0748769 66.76698,44.8627323 66.76698,63.1056462 C66.76698,64.7625004 65.4238342,66.1056462 63.76698,66.1056462 Z M33.7362108,36.0748769 C19.8207115,36.0748769 8.36232804,46.5881168 6.87001091,60.1056462 L60.6023963,60.1056462 C59.1099837,46.5883799 47.6511304,36.0748769 33.7362108,36.0748769 Z M51.5637154,18.2473723 C51.5637154,28.0932419 43.5818927,36.0750646 33.7360231,36.0750646 C23.8901534,36.0750646 15.9083308,28.0932419 15.9083308,18.2473723 C15.9083308,8.40085897 23.8898587,0.41968 33.7360231,0.41968 C43.5821875,0.41968 51.5637154,8.40085897 51.5637154,18.2473723 Z M45.5637154,18.2473723 C45.5637154,11.7146262 40.2685377,6.41968 33.7360231,6.41968 C27.2035085,6.41968 21.9083308,11.7146262 21.9083308,18.2473723 C21.9083308,24.7795334 27.2038619,30.0750646 33.7360231,30.0750646 C40.2681842,30.0750646 45.5637154,24.7795334 45.5637154,18.2473723 Z" id="Stroke-1216"></path>
                </g>
            </g>
        </g>
    </g>
</svg>