<?xml version="1.0" encoding="UTF-8"?>
<svg width="68px" height="68px" viewBox="0 0 68 68" version="1.1" xmlns="http://www.w3.org/2000/svg" xmlns:xlink="http://www.w3.org/1999/xlink">
    <!-- Generator: Sketch 52.4 (67378) - http://www.bohemiancoding.com/sketch -->
    <title>user_guide</title>
    <desc>Created with Sketch.</desc>
    <g id="Page-1" stroke="none" stroke-width="1" fill="none" fill-rule="evenodd">
        <g id="Icons" transform="translate(-540.000000, -494.000000)" fill="#000000" fill-rule="nonzero">
            <g id="Icons-(final)" transform="translate(230.000000, 472.000000)">
                <g id="user_guide" transform="translate(310.000000, 22.000000)">
                    <path d="M6,30 L6,62 L62,62 L62,30 L6,30 Z M6,24 L62,24 L62,6 L6,6 L6,24 Z M3,68 C1.34314575,68 0,66.6568542 0,65 L0,3 C0,1.34314575 1.34314575,0 3,0 L65,0 C66.6568542,0 68,1.34314575 68,3 L68,65 C68,66.6568542 66.6568542,68 65,68 L3,68 Z M47,37 C48.6568542,37 50,38.3431458 50,40 C50,41.6568542 48.6568542,43 47,43 L21,43 C19.3431458,43 18,41.6568542 18,40 C18,38.3431458 19.3431458,37 21,37 L47,37 Z M24,46 C25.6568542,46 27,47.3431458 27,49 C27,50.6568542 25.6568542,52 24,52 L21,52 C19.3431458,52 18,50.6568542 18,49 C18,47.3431458 19.3431458,46 21,46 L24,46 Z M47,46 C48.6568542,46 50,47.3431458 50,49 C50,50.6568542 48.6568542,52 47,52 L34,52 C32.3431458,52 31,50.6568542 31,49 C31,47.3431458 32.3431458,46 34,46 L47,46 Z M57,14 C57,15.657 55.657,17 54,17 C52.343,17 51,15.657 51,14 C51,12.344 52.343,11 54,11 C55.657,11 57,12.344 57,14 Z M47,14 C47,15.657 45.657,17 44,17 C42.344,17 41,15.657 41,14 C41,12.344 42.344,11 44,11 C45.657,11 47,12.344 47,14 Z M36,14 C36,15.657 34.656,17 33,17 C31.343,17 30,15.657 30,14 C30,12.344 31.343,11 33,11 C34.656,11 36,12.344 36,14 Z" id="Combined-Shape"></path>
                </g>
            </g>
        </g>
    </g>
</svg>