<?xml version="1.0" encoding="UTF-8"?>
<svg width="160px" height="18px" viewBox="0 0 160 18" version="1.1" xmlns="http://www.w3.org/2000/svg" xmlns:xlink="http://www.w3.org/1999/xlink">
    <!-- Generator: Sketch 52.3 (67297) - http://www.bohemiancoding.com/sketch -->
    <title>kanbansi-logo</title>
    <desc>Created with Sketch.</desc>
    <g id="Landing-page" stroke="none" stroke-width="1" fill="none" fill-rule="evenodd">
        <g id="Tour" transform="translate(-50.000000, -36.000000)" fill="#354052">
            <g id="Navigation">
                <g id="kanbansi-logo" transform="translate(50.000000, 36.000000)">
                    <path d="M156.967634,0.251212531 L160,0.251212531 L160,17.7491139 L156.967634,17.7491139 L156.967634,0.251212531 Z M-1.56319402e-13,0.251212531 L3.03236609,0.251212531 L3.03236609,9.05048707 L11.3110199,0.251212531 L15.064677,0.251212531 L7.83115903,7.77462927 L15.3885219,17.7491139 L11.6849136,17.7491139 L5.74088726,9.87491027 L3.03236609,12.6738048 L3.03236609,17.7491139 L-1.56319402e-13,17.7491139 L-1.56319402e-13,0.251212531 Z M45.1910869,0.251212531 L48.0203139,0.251212531 L57.3220233,12.34966 L57.3220233,0.251212531 L60.3529174,0.251212531 L60.3529174,17.7491139 L57.8004306,17.7491139 L48.224925,5.29987956 L48.224925,17.7491139 L45.1910869,17.7491139 L45.1910869,0.251212531 Z M68.5962427,0.251212531 L76.3979612,0.251212531 C78.397949,0.251212531 79.9116787,0.76777213 80.9391503,1.80089133 C81.7066927,2.56558582 82.1272847,3.61428017 82.102048,4.7004336 L82.102048,4.75075746 C82.1107747,5.22994925 82.0396241,5.70722699 81.8915488,6.1627857 C81.7660057,6.54587763 81.5844278,6.90803664 81.3527886,7.23734808 C81.1292298,7.54525274 80.8624751,7.81895769 80.5608405,8.04993037 C80.2702003,8.2728913 79.9614643,8.47093467 79.6378825,8.64197576 C80.1204392,8.81382677 80.5873331,9.02726282 81.0333597,9.27990466 C81.4378296,9.5090947 81.8043379,9.8002178 82.1197122,10.1428108 C82.4305023,10.482394 82.669835,10.8816284 82.8233389,11.3165408 C82.9985419,11.8224864 83.0827797,12.3557507 83.0721107,12.8913815 L83.0721107,12.9417054 C83.0862207,13.6594353 82.9287146,14.370078 82.6128397,15.0138642 C82.3075211,15.613106 81.860718,16.1279243 81.3115719,16.5132192 C80.6935283,16.9380403 80.0044041,17.2473939 79.277237,17.4264492 C78.4165601,17.6419559 77.532186,17.7468936 76.645261,17.7387531 L68.5962427,17.7387531 L68.5962427,0.251212531 Z M75.7929601,7.62513781 C76.7841218,7.62513781 77.5770512,7.42778935 78.1717482,7.03309242 C78.7605572,6.64234247 79.0623217,6.04585674 79.0623217,5.24659547 L79.0623217,5.19627161 C79.0910165,4.55406828 78.7988553,3.93987849 78.2836219,3.55926612 C77.761054,3.16703605 77.0073785,2.96722074 76.0122914,2.96722074 L71.6286088,2.96722074 L71.6286088,7.62513781 L75.7929601,7.62513781 Z M76.6835336,15.0257051 C77.7286695,15.0257051 78.5441699,14.8258898 79.141811,14.4336597 C79.739452,14.0414297 80.0323845,13.433103 80.0323845,12.6338418 L80.0323845,12.5820378 C80.0592848,11.887631 79.7246404,11.2292442 79.1491711,10.8443846 C78.5603621,10.4358733 77.6639005,10.2316176 76.4597862,10.2316176 L71.6286088,10.2316176 L71.6286088,15.024225 L76.6835336,15.0257051 Z M113.713728,0.251212531 L116.544427,0.251212531 L125.846137,12.34966 L125.846137,0.251212531 L128.878503,0.251212531 L128.878503,17.7491139 L126.3216,17.7491139 L116.753455,5.29987956 L116.753455,17.7491139 L113.713728,17.7491139 L113.713728,0.251212531 Z M143.227777,17.9992531 C141.914953,18.005844 140.61163,17.7752303 139.379911,17.3184009 C138.120469,16.8401469 136.964103,16.1231183 135.973651,15.206279 L137.813679,13.0068304 C138.582646,13.6897532 139.445238,14.2580056 140.374998,14.6941597 C141.299371,15.100765 142.299915,15.3026804 143.308738,15.2862051 C144.252795,15.2862051 145.002545,15.0888566 145.557988,14.6941597 C146.089445,14.33908 146.40368,13.7356258 146.391153,13.0941571 L146.391153,13.0260718 C146.396714,12.7384515 146.341525,12.4529173 146.229231,12.1883276 C146.094248,11.9127744 145.891589,11.6763981 145.640422,11.501555 C145.271144,11.2455188 144.867751,11.0432119 144.442196,10.9006289 C143.793398,10.6791045 143.132322,10.4957535 142.462325,10.3515068 C141.619839,10.1596757 140.790781,9.91245895 139.980496,9.61145008 C139.326264,9.37442736 138.71251,9.03690427 138.161076,8.61089337 C137.678394,8.22841313 137.293364,7.7357275 137.037923,7.1737032 C136.76536,6.52588415 136.633858,5.8269081 136.652253,5.12374605 L136.652253,5.0734222 C136.633807,3.66541974 137.242304,2.32284458 138.311222,1.4131016 C138.863605,0.952781922 139.497335,0.601285297 140.179219,0.377022176 C140.947432,0.119862574 141.752797,-0.00718324116 142.562423,0.00107335575 C143.73405,-0.0161592668 144.899539,0.174229953 146.005483,0.563516472 C147.044492,0.949519819 148.014382,1.50236168 148.877399,2.20052196 L147.236094,4.52578021 C146.510131,3.98349096 145.718748,3.53589135 144.880858,3.1936781 C144.129355,2.89124851 143.327717,2.73455952 142.518262,2.7318827 C141.623273,2.7318827 140.927006,2.93169801 140.429463,3.33132865 C139.959833,3.67634381 139.682915,4.22662072 139.684619,4.81144211 L139.684619,4.86028586 C139.678667,5.16539442 139.7379,5.46823478 139.858318,5.74835394 C140.000987,6.03646509 140.220686,6.27889806 140.492759,6.4484476 C140.889832,6.69957033 141.31725,6.89853667 141.764587,7.04049299 C142.307763,7.22402706 142.990781,7.4149617 143.825418,7.61477701 C144.650466,7.81990339 145.461313,8.07898104 146.252783,8.39035647 C146.892574,8.63356355 147.486826,8.98386768 148.010378,9.42643589 C148.463233,9.81716753 148.825068,10.3032761 149.070234,10.850305 C149.318377,11.4448658 149.438768,12.0854398 149.423519,12.7300491 L149.423519,12.780373 C149.435128,13.5382849 149.279796,14.2893895 148.968664,14.9798216 C148.671107,15.6180114 148.236185,16.1817151 147.695365,16.6301481 C147.119707,17.0990049 146.456537,17.4472587 145.744935,17.6543866 C144.927549,17.8942897 144.0792,18.0105188 143.227777,17.9992531 Z"></path>
                    <path d="M32.29981,16.9985891 L39,16.9985891 L30.8684911,0 L28.1892816,0 L20,16.9985891 L23.3840365,16.9985891 C27.2187001,9.3909868 26.0733561,11.6371483 29.5021665,4.28774172 C32.1019384,9.86081833 32.3214747,10.3221844 34.1673128,14.3743049 L31.1472444,14.3743049 L30.9002661,13.8099427 L29.5007222,10.6212964 L28.0997339,13.8099427 L26.70019,17 L32.29981,17 L32.29981,16.9985891 Z" id="Path"></path>
                    <path d="M100.29981,16.9985891 L107,16.9985891 L98.8641581,0 L96.1979475,0 L88,16.9985891 L91.3840365,16.9985891 C95.2187001,9.3909868 94.0733561,11.6371483 97.5021665,4.28774172 C100.101938,9.86081833 100.321475,10.3221844 102.167313,14.3743049 L99.1486887,14.3743049 L98.9002661,13.8099427 L97.4978335,10.6198855 L96.1011783,13.8099427 L94.7016344,17 L100.29981,17 L100.29981,16.9985891 Z" id="Path"></path>
                </g>
            </g>
        </g>
    </g>
</svg>