<?xml version="1.0" encoding="UTF-8"?>
<svg width="58px" height="68px" viewBox="0 0 58 68" version="1.1" xmlns="http://www.w3.org/2000/svg" xmlns:xlink="http://www.w3.org/1999/xlink">
    <!-- Generator: Sketch 52.4 (67378) - http://www.bohemiancoding.com/sketch -->
    <title>account</title>
    <desc>Created with Sketch.</desc>
    <g id="Page-1" stroke="none" stroke-width="1" fill="none" fill-rule="evenodd">
        <g id="Icons" transform="translate(-325.000000, -494.000000)" fill="#000000" fill-rule="nonzero">
            <g id="Icons-(final)" transform="translate(230.000000, 472.000000)">
                <g id="account" transform="translate(95.000000, 22.000000)">
                    <path d="M26.1112582,41.187741 C15.7305235,42.546784 7.47546882,51.1332335 6.17779051,62 L51.8222279,62 C50.5246419,51.1329378 42.2699201,42.5466691 31.8887354,41.1877184 C31.9612289,41.4460577 32,41.7185011 32,42 L32,48 C32,49.6568542 30.6568542,51 29,51 C27.3431458,51 26,49.6568542 26,48 L26,42 C26,41.7185093 26.0387688,41.4460736 26.1112582,41.187741 Z M18.7712372,36.918289 C15.2399262,33.8097885 13,29.204943 13,24.0955095 L13,16.9044905 C13,7.61900381 20.397714,0 29.5,0 C38.602929,0 46,7.61870401 46,16.9044905 L46,24.0955095 C46,29.3580211 43.6242073,34.0850989 39.9085461,37.1934187 C50.5286225,41.6553676 58,52.4373798 58,65 C58,66.6568542 56.6568542,68 55,68 L3,68 C1.34314575,68 0,66.6568542 0,65 C0,52.1713543 7.7918546,41.1992054 18.7712372,36.918289 Z M29.5,35 C35.2489331,35 40,30.1065804 40,24.0955095 L40,16.9044905 C40,10.8934196 35.2489331,6 29.5,6 C23.7516439,6 19,10.8937811 19,16.9044905 L19,24.0955095 C19,30.1062189 23.7516439,35 29.5,35 Z" id="Combined-Shape"></path>
                </g>
            </g>
        </g>
    </g>
</svg>