<?xml version="1.0" encoding="UTF-8"?>
<svg width="68px" height="67px" viewBox="0 0 68 67" version="1.1" xmlns="http://www.w3.org/2000/svg" xmlns:xlink="http://www.w3.org/1999/xlink">
    <!-- Generator: Sketch 52.4 (67378) - http://www.bohemiancoding.com/sketch -->
    <title>add_user</title>
    <desc>Created with Sketch.</desc>
    <g id="Page-1" stroke="none" stroke-width="1" fill="none" fill-rule="evenodd">
        <g id="Icons" transform="translate(-1208.000000, -495.000000)" fill="#000000" fill-rule="nonzero">
            <g id="Icons-(final)" transform="translate(230.000000, 472.000000)">
                <g id="add_user" transform="translate(978.000000, 23.000000)">
                    <path d="M11,40 L11,32 C11,30.3431458 12.3431458,29 14,29 C15.6568542,29 17,30.3431458 17,32 L17,40 L24,40 C25.6568542,40 27,41.3431458 27,43 C27,44.6568542 25.6568542,46 24,46 L17,46 L17,53 C17,54.6568542 15.6568542,56 14,56 C12.3431458,56 11,54.6568542 11,53 L11,46 L3,46 C1.34314575,46 0,44.6568542 0,43 C0,41.3431458 1.34314575,40 3,40 L11,40 Z M42.7072003,40.0141064 C42.8035395,40.0047749 42.9012121,40 43,40 C49.0449022,40 54,35.0531955 54,29.0240964 L54,16.9759036 C54,10.9468045 49.0449022,6 43,6 C36.9556985,6 32,10.9471689 32,16.9759036 L32,22.2761446 C32,23.9329988 30.6568542,25.2761446 29,25.2761446 C27.3431458,25.2761446 26,23.9329988 26,22.2761446 L26,16.9759036 C26,7.63114439 33.6443015,0 43,0 C52.3563629,0 60,7.63084401 60,16.9759036 L60,29.0240964 C60,34.3137946 57.5509497,39.0542517 53.7284915,42.1724156 C62.1455004,45.9604495 68,54.3025032 68,64 C68,65.6568542 66.6568542,67 65,67 L26,67 C24.3431458,67 23,65.6568542 23,64 C23,62.3431458 24.3431458,61 26,61 L61.7446751,61 C60.2813998,52.4968772 52.7034201,46 43.5510714,46 C42.1867109,46 40.8422359,46.1446998 39.5334189,46.4286279 C37.9142269,46.7798872 36.3168604,45.7520246 35.9656012,44.1328326 C35.6143419,42.5136405 36.6422045,40.9162741 38.2613965,40.5650148 C39.7160132,40.2494577 41.2025311,40.0644724 42.7072003,40.0141064 Z" id="Combined-Shape"></path>
                </g>
            </g>
        </g>
    </g>
</svg>