<?xml version="1.0" encoding="UTF-8"?>
<svg width="71px" height="65px" viewBox="0 0 71 65" version="1.1" xmlns="http://www.w3.org/2000/svg" xmlns:xlink="http://www.w3.org/1999/xlink">
    <!-- Generator: Sketch 52.5 (67469) - http://www.bohemiancoding.com/sketch -->
    <title>archive</title>
    <desc>Created with Sketch.</desc>
    <g id="Page-1" stroke="none" stroke-width="1" fill="none" fill-rule="evenodd">
        <g id="Icons" transform="translate(-3104.000000, -496.000000)" fill="#000000" fill-rule="nonzero">
            <g id="Icons-(final)" transform="translate(50.000000, 244.000000)">
                <path d="M3091.76255,263 L3097.92178,255.962411 C3098.45704,255.350814 3099.23032,255 3100.04317,255 L3121.81468,255 C3123.37148,255 3124.63351,256.261762 3124.63351,257.818225 L3124.63351,314.181775 C3124.63351,315.738238 3123.37148,317 3121.81468,317 C3120.25788,317 3118.99584,315.738238 3118.99584,314.181775 L3118.99584,260.63645 L3101.32227,260.63645 L3095.11746,267.726118 C3095.06973,267.780655 3095.02011,267.833117 3094.96874,267.883442 C3094.41879,268.564449 3093.57701,269 3092.63351,269 L3087.63351,269 C3085.97666,269 3084.63351,267.656854 3084.63351,266 C3084.63351,264.343146 3085.97666,263 3087.63351,263 L3091.76255,263 Z M3061.55693,286.855197 L3061.8226,287.6602 L3061.85524,287.684283 L3063.19034,291.804597 L3064.71217,296.415929 L3064.68731,296.424496 L3069.73421,312 L3117.63351,312 L3109.53281,287 L3101.7746,287 L3095.63351,287 C3093.97666,287 3092.63351,285.656854 3092.63351,284 C3092.63351,282.343146 3093.97666,281 3095.63351,281 L3101.88208,281 L3111.75758,281 C3112.96957,281 3114.04561,281.779856 3114.42894,282.936074 L3124.4868,313.272681 C3125.09473,315.106324 3123.73753,317 3121.81544,317 L3067.50945,317 C3066.29745,317 3065.22142,316.220144 3064.83809,315.063926 L3054.78023,284.727319 C3054.24192,283.103675 3055.2444,281.432961 3056.81553,281.071578 C3057.16779,280.980874 3057.52352,280.959634 3057.86724,281 L3057.96075,281 C3057.96387,281.004657 3057.967,281.009315 3057.97013,281.013973 C3058.02271,281.022083 3058.07496,281.031638 3058.12684,281.042607 C3058.29154,281.014591 3058.46082,281 3058.63351,281 L3060.63351,281 C3062.29037,281 3063.63351,282.343146 3063.63351,284 C3063.63351,285.334661 3062.76195,286.465759 3061.55693,286.855197 Z M3075.56949,281 L3075.63352,281 L3075.63352,254.923077 C3075.63352,253.308706 3076.97667,252 3078.63352,252 C3080.29037,252 3081.63352,253.308706 3081.63352,254.923077 L3081.63352,280.804799 L3090.91617,271.841842 C3092.10809,270.690973 3094.00729,270.724251 3095.15816,271.916169 C3096.30903,273.108087 3096.27575,275.00729 3095.08383,276.158158 L3080.58447,290.158158 C3079.42202,291.280578 3077.57941,291.280619 3076.41691,290.15825 L3061.91627,276.15825 C3060.7243,275.007435 3060.69094,273.108233 3061.84175,271.916264 C3062.99257,270.724295 3064.89177,270.690934 3066.08374,271.84175 L3075.56949,281 Z" id="archive"></path>
            </g>
        </g>
    </g>
</svg>