<?xml version="1.0" encoding="UTF-8"?>
<svg width="92px" height="70px" viewBox="0 0 92 70" version="1.1" xmlns="http://www.w3.org/2000/svg" xmlns:xlink="http://www.w3.org/1999/xlink">
    <!-- Generator: Sketch 52.5 (67469) - http://www.bohemiancoding.com/sketch -->
    <title>arrow_3</title>
    <desc>Created with Sketch.</desc>
    <g id="Page-1" stroke="none" stroke-width="1" fill="none" fill-rule="evenodd">
        <g id="Icons" transform="translate(-3749.000000, -492.000000)" fill="#000000" fill-rule="nonzero">
            <g id="Icons-(final)" transform="translate(50.000000, 244.000000)">
                <path d="M3779.68343,285.000017 L3702.5,285.000017 C3700.567,285.000017 3699,283.433015 3699,281.500019 C3699,279.567023 3700.567,278.000021 3702.5,278.000021 L3779.99702,278.000021 L3751.94379,253.249646 C3750.70136,252.153497 3750.58278,250.257708 3751.67893,249.015282 C3752.77508,247.772857 3754.67087,247.654275 3755.91329,248.750424 L3789.91328,278.747408 C3791.21091,279.89226 3791.27351,281.894564 3790.04994,283.118245 L3756.04996,317.121227 C3754.87843,318.292851 3752.97894,318.292935 3751.80732,317.121414 C3750.63569,315.949894 3750.63561,314.0504 3751.80713,312.878776 L3779.68343,285.000017 Z" id="arrow_3"></path>
            </g>
        </g>
    </g>
</svg>