<?xml version="1.0" encoding="UTF-8"?>
<svg width="68px" height="68px" viewBox="0 0 68 68" version="1.1" xmlns="http://www.w3.org/2000/svg" xmlns:xlink="http://www.w3.org/1999/xlink">
    <!-- Generator: Sketch 52.4 (67378) - http://www.bohemiancoding.com/sketch -->
    <title>checkbox</title>
    <desc>Created with Sketch.</desc>
    <g id="Page-1" stroke="none" stroke-width="1" fill="none" fill-rule="evenodd">
        <g id="Icons" transform="translate(-2585.000000, -494.000000)" fill="#000000" fill-rule="nonzero">
            <g id="Icons-(final)" transform="translate(230.000000, 472.000000)">
                <path d="M2417,56 C2417,40.5361355 2404.46386,28 2389,28 C2373.53552,28 2361,40.5357864 2361,56 C2361,71.4642136 2373.53552,84 2389,84 C2404.46386,84 2417,71.4638645 2417,56 Z M2423,56 C2423,74.777573 2407.77757,90 2389,90 C2370.22178,90 2355,74.7778931 2355,56 C2355,37.2221069 2370.22178,22 2389,22 C2407.77757,22 2423,37.222427 2423,56 Z M2398.62019,48.127046 C2399.7918,46.9555107 2401.6913,46.9555716 2402.86283,48.127182 C2404.03437,49.2987925 2404.03431,51.1982874 2402.8627,52.3698227 L2387.75407,67.477479 C2386.58254,68.6489345 2384.6832,68.6489651 2383.51163,67.4775473 L2375.97573,59.9426098 C2374.80408,58.7711123 2374.80396,56.8716173 2375.97546,55.6999691 C2377.14695,54.528321 2379.04645,54.5281989 2380.2181,55.6996964 L2385.63275,61.1136543 L2398.62019,48.127046 Z" id="checkbox"></path>
            </g>
        </g>
    </g>
</svg>