<?xml version="1.0" encoding="UTF-8"?>
<svg width="68px" height="67px" viewBox="0 0 68 67" version="1.1" xmlns="http://www.w3.org/2000/svg" xmlns:xlink="http://www.w3.org/1999/xlink">
    <!-- Generator: Sketch 52.4 (67378) - http://www.bohemiancoding.com/sketch -->
    <title>close_2</title>
    <desc>Created with Sketch.</desc>
    <g id="Page-1" stroke="none" stroke-width="1" fill="none" fill-rule="evenodd">
        <g id="Icons" transform="translate(-1972.000000, -494.000000)" fill="#000000" fill-rule="nonzero">
            <g id="Icons-(final)" transform="translate(230.000000, 472.000000)">
                <g id="close_2" transform="translate(1742.000000, 22.000000)">
                    <path d="M29.6241385,33.4999523 L24.3128606,28.1890149 C23.1412501,27.0174796 23.1411892,25.1179847 24.3127246,23.9463742 C25.4842599,22.7747638 27.3837548,22.7747029 28.5553652,23.9462382 L33.8669152,29.2574477 L39.1787512,23.9459523 C40.3503616,22.774417 42.2498566,22.7744779 43.4213919,23.9460883 C44.5929272,25.1176987 44.5928663,27.0171937 43.4212559,28.188729 L38.109692,33.4999523 L43.4212559,38.8111757 C44.5928663,39.982711 44.5929272,41.882206 43.4213919,43.0538164 C42.2498566,44.2254268 40.3503616,44.2254877 39.1787512,43.0539524 L33.8669152,37.742457 L28.5553652,43.0536665 C27.3837548,44.2252018 25.4842599,44.2251409 24.3127246,43.0535305 C23.1411892,41.88192 23.1412501,39.9824251 24.3128606,38.8108898 L29.6241385,33.4999523 Z M61.3664863,33.5 C61.3664863,18.3119324 49.0548197,6 33.8664863,6 C18.6787625,6 6.36648635,18.3122761 6.36648635,33.5 C6.36648635,48.6877239 18.6787625,61 33.8664863,61 C49.0548197,61 61.3664863,48.6880676 61.3664863,33.5 Z M67.3664863,33.5 C67.3664863,52.0017471 52.3685572,67 33.8664863,67 C15.365054,67 0.366486348,52.0014324 0.366486348,33.5 C0.366486348,14.9985676 15.365054,0 33.8664863,0 C52.3685572,0 67.3664863,14.9982529 67.3664863,33.5 Z" id="Combined-Shape"></path>
                </g>
            </g>
        </g>
    </g>
</svg>