<?xml version="1.0" encoding="UTF-8"?>
<svg width="85px" height="68px" viewBox="0 0 85 68" version="1.1" xmlns="http://www.w3.org/2000/svg" xmlns:xlink="http://www.w3.org/1999/xlink">
    <!-- Generator: Sketch 52.4 (67378) - http://www.bohemiancoding.com/sketch -->
    <title>eye</title>
    <desc>Created with Sketch.</desc>
    <g id="Page-1" stroke="none" stroke-width="1" fill="none" fill-rule="evenodd">
        <g id="Icons" transform="translate(-2084.000000, -494.000000)" fill="#000000" fill-rule="nonzero">
            <g id="Icons-(final)" transform="translate(230.000000, 472.000000)">
                <g id="eye" transform="translate(1854.000000, 22.000000)">
                    <path d="M76.4240558,30.8562827 C74.0014715,27.3338859 71.2481454,23.811181 68.2254426,20.5339591 C59.8033284,11.402682 51.0182965,6 42.5,6 C33.9811577,6 25.1960384,11.4026696 16.7741164,20.5339353 C13.7514884,23.8111469 10.9982688,27.3338411 8.57580888,30.856227 C7.79734987,31.9881479 7.10601568,33.0439865 6.50728741,34 C7.10601568,34.9560135 7.79734987,36.0118521 8.57580888,37.143773 C10.9982688,40.6661589 13.7514884,44.1888531 16.7741164,47.4660647 C25.1960384,56.5973304 33.9811577,62 42.5,62 C51.0182965,62 59.8033284,56.597318 68.2254426,47.4660409 C71.2481454,44.188819 74.0014715,40.6661141 76.4240558,37.1437173 C77.2025368,36.011819 77.8938964,34.9559996 78.4926524,34 C77.8938964,33.0440004 77.2025368,31.988181 76.4240558,30.8562827 Z M83.7463514,36.9142227 C83.0645871,38.0125217 82.2696426,39.2323641 81.3676937,40.5437827 C78.7932291,44.2870109 75.8677841,48.029931 72.6358895,51.5339591 C63.1877254,61.777682 53.0699242,68 42.5,68 C31.9295415,68 21.8115964,61.7776696 12.3636258,51.5339353 C9.13179141,48.0298969 6.20644237,44.2869661 3.63209444,40.543727 C2.73018614,39.2323043 1.93528194,38.0124578 1.25355579,36.9141547 C0.838802087,36.2459608 0.550220559,35.7600506 0.394162199,35.4864755 C-0.1313874,34.5651707 -0.1313874,33.4348293 0.394162199,32.5135245 C0.550220559,32.2399494 0.838802087,31.7540392 1.25355579,31.0858453 C1.93528194,29.9875422 2.73018614,28.7676957 3.63209444,27.456273 C6.20644237,23.7130339 9.13179141,19.9701031 12.3636258,16.4660647 C21.8115964,6.22233041 31.9295415,0 42.5,0 C53.0699242,0 63.1877254,6.222318 72.6358895,16.4660409 C75.8677841,19.970069 78.7932291,23.7129891 81.3676937,27.4562173 C82.2696426,28.7676359 83.0645871,29.9874783 83.7463514,31.0857773 C84.1611276,31.7539677 84.4497258,32.2398744 84.6057931,32.5134462 C85.1314023,33.4347911 85.1314023,34.5652089 84.6057931,35.4865538 C84.4497258,35.7601256 84.1611276,36.2460323 83.7463514,36.9142227 Z M49,35 C49,31.1001528 46.0546006,28 42.5,28 C38.9446832,28 36,31.0996665 36,35 C36,38.8995698 38.9451544,42 42.5,42 C46.0541293,42 49,38.8990835 49,35 Z M55,35 C55,42.1459165 49.4386207,48 42.5,48 C35.5605408,48 30,42.1462937 30,35 C30,27.8528335 35.5601918,22 42.5,22 C49.4389697,22 55,27.8532107 55,35 Z" id="Combined-Shape"></path>
                </g>
            </g>
        </g>
    </g>
</svg>