<?xml version="1.0" encoding="UTF-8"?>
<svg width="87px" height="67px" viewBox="0 0 87 67" version="1.1" xmlns="http://www.w3.org/2000/svg" xmlns:xlink="http://www.w3.org/1999/xlink">
    <!-- Generator: Sketch 52.5 (67469) - http://www.bohemiancoding.com/sketch -->
    <title>image_upload</title>
    <desc>Created with Sketch.</desc>
    <g id="Page-1" stroke="none" stroke-width="1" fill="none" fill-rule="evenodd">
        <g id="Icons" transform="translate(-2517.000000, -495.000000)" fill="#000000" fill-rule="nonzero">
            <g id="Icons-(final)" transform="translate(50.000000, 244.000000)">
                <path d="M2513,315 C2513,316.656854 2511.65685,318 2510,318 C2508.34315,318 2507,316.656854 2507,315 L2507,282 C2507,280.343146 2508.34315,279 2510,279 C2511.65685,279 2513,280.343146 2513,282 L2513,315 Z M2554,297.175655 C2554,308.672257 2544.72706,318 2533.28125,318 L2528.6845,318 C2527.02765,318 2525.6845,316.656854 2525.6845,315 C2525.6845,313.343146 2527.02765,312 2528.6845,312 L2533.28125,312 C2541.40541,312 2548,305.366437 2548,297.175655 C2548,289.781447 2542.58147,283.560034 2535.37989,282.523123 C2533.90343,282.310535 2532.80744,281.045438 2532.80744,279.553744 C2532.80966,279.477763 2532.81115,279.426604 2532.81238,279.389875 C2532.77303,267.013165 2522.79492,257 2510.5,257 C2498.20277,257 2488.22322,267.01693 2488.1876,279.396854 C2488.18851,279.42638 2488.18949,279.471126 2488.1913,279.553744 C2488.1913,281.045414 2487.09534,282.310499 2485.6189,282.523114 C2478.41837,283.560027 2473,289.78162 2473,297.175655 C2473,305.367382 2479.593,312 2487.71875,312 L2492.92933,312 C2494.58618,312 2495.92933,313.343146 2495.92933,315 C2495.92933,316.656854 2494.58618,318 2492.92933,318 L2487.71875,318 C2476.27122,318 2467,308.67307 2467,297.175655 C2467,287.656469 2473.40089,279.513848 2482.28389,277.097832 C2483.47961,262.487676 2495.65179,251 2510.5,251 C2525.3483,251 2537.52054,262.487819 2538.71613,277.098105 C2547.59941,279.514419 2554,287.656617 2554,297.175655 Z M2497.58383,298.158158 C2496.39192,299.309027 2494.49271,299.275749 2493.34184,298.083831 C2492.19098,296.891913 2492.22425,294.99271 2493.41617,293.841842 L2507.91553,279.841842 C2509.07799,278.719422 2510.92059,278.719381 2512.0831,279.84175 L2526.58374,293.84175 C2527.77571,294.992565 2527.80907,296.891767 2526.65825,298.083736 C2525.50744,299.275705 2523.60824,299.309066 2522.41627,298.15825 L2509.99945,286.170133 L2497.58383,298.158158 Z" id="image_upload"></path>
            </g>
        </g>
    </g>
</svg>