<?xml version="1.0" encoding="UTF-8"?>
<svg width="82px" height="70px" viewBox="0 0 82 70" version="1.1" xmlns="http://www.w3.org/2000/svg" xmlns:xlink="http://www.w3.org/1999/xlink">
    <!-- Generator: Sketch 52.5 (67469) - http://www.bohemiancoding.com/sketch -->
    <title>minimize</title>
    <desc>Created with Sketch.</desc>
    <g id="Page-1" stroke="none" stroke-width="1" fill="none" fill-rule="evenodd">
        <g id="Icons" transform="translate(-4109.000000, -492.000000)" fill="#000000">
            <path d="M4150,492 C4151.65685,492 4153,493.343146 4153,495 L4153,559 C4153,560.656854 4151.65685,562 4150,562 C4148.34315,562 4147,560.656854 4147,559 L4147,495 C4147,493.343146 4148.34315,492 4150,492 Z M4129.71751,526.960155 L4109.87868,507.12132 C4108.70711,505.949747 4108.70711,504.050253 4109.87868,502.87868 C4111.05025,501.707107 4112.94975,501.707107 4114.12132,502.87868 L4136.04163,524.79899 C4136.63755,525.39491 4136.93036,526.179161 4136.92005,526.960155 C4136.93036,527.741149 4136.63755,528.5254 4136.04163,529.12132 L4114.12132,551.041631 C4112.94975,552.213203 4111.05025,552.213203 4109.87868,551.041631 C4108.70711,549.870058 4108.70711,547.970563 4109.87868,546.79899 L4129.71751,526.960155 Z M4170.2028,526.960155 L4190.04163,546.79899 C4191.2132,547.970563 4191.2132,549.870058 4190.04163,551.041631 C4188.87006,552.213203 4186.97056,552.213203 4185.79899,551.041631 L4163.87868,529.12132 C4163.28276,528.5254 4162.98995,527.741149 4163.00026,526.960155 C4162.98995,526.179161 4163.28276,525.39491 4163.87868,524.79899 L4185.79899,502.87868 C4186.97056,501.707107 4188.87006,501.707107 4190.04163,502.87868 C4191.2132,504.050253 4191.2132,505.949747 4190.04163,507.12132 L4170.2028,526.960155 Z" id="minimize"></path>
        </g>
    </g>
</svg>