<?xml version="1.0" encoding="UTF-8"?>
<svg width="62px" height="70px" viewBox="0 0 62 70" version="1.1" xmlns="http://www.w3.org/2000/svg" xmlns:xlink="http://www.w3.org/1999/xlink">
    <!-- Generator: Sketch 52.5 (67469) - http://www.bohemiancoding.com/sketch -->
    <title>notification</title>
    <desc>Created with Sketch.</desc>
    <g id="Page-1" stroke="none" stroke-width="1" fill="none" fill-rule="evenodd">
        <g id="Icons" transform="translate(-3663.000000, -494.000000)" fill="#000000" fill-rule="nonzero">
            <g id="Icons-(final)" transform="translate(50.000000, 244.000000)">
                <g id="notification" transform="translate(3613.076118, 250.000000)">
                    <path d="M21.9715597,13.057111 L21.9715616,9.15854427 C21.9858689,4.24365375 25.966115,0.264306565 30.8836214,0.250002834 C35.7981301,0.263514066 39.7785737,4.24377306 39.792885,9.16 L39.792885,13.0566114 C47.9665346,16.3290884 53.4021637,24.2781362 53.4021637,33.1044834 L53.4021637,47.9606124 L60.9789214,57.8157233 C61.5715521,58.5876722 61.6745359,59.6291317 61.2445711,60.5021991 C60.8145776,61.3753247 59.9261989,61.9285216 58.9524366,61.9293372 L42.7565547,61.9293372 C40.6575625,66.5957399 36.0164675,69.6149127 30.8795008,69.6293734 C25.7460932,69.6152831 21.105114,66.5956582 19.0065271,61.9293372 L2.80872829,61.929337 C1.83552955,61.9285215 0.94718711,61.3752665 0.517222309,60.5021991 C0.0872314871,59.6290788 0.190277135,58.5876255 0.783219476,57.815271 L8.35962963,47.9619113 L8.35962963,33.105809 C8.35962963,24.2784938 13.796398,16.3289705 21.9715597,13.057111 Z M30.8835478,5.80107158 C29.012451,5.80107158 27.4840454,7.29997577 27.4508187,9.16 L27.4508187,11.6676141 C28.2752676,11.5717763 29.1065411,11.5236842 29.9417544,11.5236842 L31.3207018,11.5236851 L31.8213645,11.5223587 C32.6579238,11.5223587 33.4905348,11.5706167 34.3162971,11.6667841 L34.316356,9.17116046 C34.2818768,7.30009087 32.7552039,5.80107158 30.8835478,5.80107158 Z M13.8402144,33.105809 L13.8402144,49.7374189 L13.7885252,49.8896451 L13.6851468,50.02432 L12.8614353,51.0973991 L8.74028657,56.4527291 L21.0159802,56.4527291 C22.0271737,56.4532491 22.9370086,57.0670559 23.3160832,58.0044319 L23.8833492,59.4066921 C24.4439822,60.7916569 25.3996093,61.9808559 26.633047,62.8278583 C29.1895844,64.5962101 32.5738803,64.595971 35.1319599,62.8265566 C36.3632406,61.9804365 37.3188012,60.7911587 37.8797062,59.406849 L38.4470026,58.0045138 C38.826359,57.0664411 39.7371233,56.4524751 40.7488499,56.452729 L53.0278906,56.452729 L48.9054617,51.097141 L47.9773631,49.890016 L47.9255556,49.7376356 L47.9255556,49.5676413 L47.9255606,33.1085656 C47.892915,24.2266025 40.7013818,17.0341277 31.8204181,17.0002924 L29.9441999,17.0002886 C21.0633916,17.0352821 13.8728477,24.2271272 13.8402144,33.105809 Z" id="Combined-Shape"></path>
                </g>
            </g>
        </g>
    </g>
</svg>