<?xml version="1.0" encoding="UTF-8"?>
<svg width="88px" height="70px" viewBox="0 0 88 70" version="1.1" xmlns="http://www.w3.org/2000/svg" xmlns:xlink="http://www.w3.org/1999/xlink">
    <!-- Generator: Sketch 52.6 (67491) - http://www.bohemiancoding.com/sketch -->
    <title>preview</title>
    <desc>Created with Sketch.</desc>
    <g id="Page-1" stroke="none" stroke-width="1" fill="none" fill-rule="evenodd">
        <g id="Icons" transform="translate(-4341.000000, -489.000000)" fill="#000000" fill-rule="nonzero">
            <g id="calendar" transform="translate(4231.000000, 489.000000)">
                <g id="preview" transform="translate(110.000000, 0.000000)">
                    <path d="M77.5213301,32.248788 C75.0865016,28.7246478 72.3191702,25.2000852 69.2834585,21.9236894 C60.8762435,12.849915 52.1373714,7.5 43.75,7.5 C35.3620745,7.5 26.6231206,12.8498996 18.2161002,21.9236598 C15.180466,25.2000427 12.4132437,28.7245919 9.97854217,32.2487184 C9.30178297,33.2282985 8.69077956,34.150572 8.14918035,35 C8.69077956,35.849428 9.30178297,36.7717015 9.97854217,37.7512816 C12.4132437,41.2754081 15.180466,44.7999573 18.2161002,48.0763402 C26.6231206,57.1501004 35.3620745,62.5 43.75,62.5 C52.1373714,62.5 60.8762435,57.150085 69.2834585,48.0763106 C72.3191702,44.7999148 75.0865016,41.2753522 77.5213301,37.751212 C78.1981031,36.7716593 78.8091239,35.8494094 79.3507436,35 C78.8091239,34.1505906 78.1981031,33.2283407 77.5213301,32.248788 Z M87.0035947,36.8645701 C86.8411764,37.1479831 86.5443107,37.6455421 86.1193673,38.3270061 C85.4231126,39.4435607 84.6118854,40.6827421 83.6918339,42.014413 C81.0663597,45.8144915 78.0830368,49.6141477 74.784979,53.1736894 C65.0957097,63.631165 54.6924724,70 43.75,70 C32.806988,70 22.4035982,63.6311496 12.7145248,53.1736598 C9.41652621,49.6141052 6.43329923,45.8144356 3.80794221,42.0143434 C2.88793156,40.6826673 2.07674479,39.4434807 1.38052832,38.326921 C0.955607523,37.6454527 0.658758598,37.1478894 0.49634915,36.8644721 C-0.165449717,35.7095809 -0.165449717,34.2904191 0.49634915,33.1355279 C0.658758598,32.8521106 0.955607523,32.3545473 1.38052832,31.673079 C2.07674479,30.5565193 2.88793156,29.3173327 3.80794221,27.9856566 C6.43329923,24.1855644 9.41652621,20.3858948 12.7145248,16.8263402 C22.4035982,6.36885042 32.806988,0 43.75,0 C54.6924724,0 65.0957097,6.36883504 74.784979,16.8263106 C78.0830368,20.3858523 81.0663597,24.1855085 83.6918339,27.985587 C84.6118854,29.3172579 85.4231126,30.5564393 86.1193673,31.6729939 C86.5443107,32.3544579 86.8411764,32.8520169 87.0035947,33.1354299 C87.6654684,34.2903712 87.6654684,35.7096288 87.0035947,36.8645701 Z M50,35 C50,31.547822 47.2019364,28.75 43.75,28.75 C40.2973178,28.75 37.5,31.5473178 37.5,35 C37.5,38.4519364 40.297822,41.25 43.75,41.25 C47.2014322,41.25 50,38.4514322 50,35 Z M57.5,35 C57.5,42.5935678 51.3435678,48.75 43.75,48.75 C36.1555414,48.75 30,42.5939271 30,35 C30,27.4051822 36.1551822,21.25 43.75,21.25 C51.3439271,21.25 57.5,27.4055414 57.5,35 Z"></path>
                </g>
            </g>
        </g>
    </g>
</svg>