<?xml version="1.0" encoding="UTF-8"?>
<svg width="68px" height="68px" viewBox="0 0 68 68" version="1.1" xmlns="http://www.w3.org/2000/svg" xmlns:xlink="http://www.w3.org/1999/xlink">
    <!-- Generator: Sketch 52.4 (67378) - http://www.bohemiancoding.com/sketch -->
    <title>order</title>
    <desc>Created with Sketch.</desc>
    <g id="Page-1" stroke="none" stroke-width="1" fill="none" fill-rule="evenodd">
        <g id="Icons" transform="translate(-1543.000000, -495.000000)" fill="#000000" fill-rule="nonzero">
            <g id="Icons-(final)" transform="translate(230.000000, 472.000000)">
                <g id="order" transform="translate(1313.000000, 23.000000)">
                    <path d="M3,67.0507642 C1.34314575,67.0507642 2.27373675e-13,65.7076185 2.27373675e-13,64.0507642 L2.27373675e-13,3.00248001 C2.27373675e-13,1.34562576 1.34314575,0.00248000905 3,0.00248000905 L25.8923912,0.00248000905 C27.5492454,0.00248000905 28.8923912,1.34562576 28.8923912,3.00248001 L28.8923912,64.0507642 C28.8923912,65.7076185 27.5492454,67.0507642 25.8923912,67.0507642 L3,67.0507642 Z M6,61.0507642 L22.8923912,61.0507642 L22.8923912,6.00248001 L6,6.00248001 L6,61.0507642 Z M41.157133,67.0510504 C39.5002788,67.0510504 38.157133,65.7079046 38.157133,64.0510504 C38.157133,62.3941961 39.5002788,61.0510504 41.157133,61.0510504 L64.0495242,61.0510504 C65.7063785,61.0510504 67.0495242,62.3941961 67.0495242,64.0510504 C67.0495242,65.7079046 65.7063785,67.0510504 64.0495242,67.0510504 L41.157133,67.0510504 Z M41.157133,6 C39.5002788,6 38.157133,4.65685425 38.157133,3 C38.157133,1.34314575 39.5002788,0 41.157133,0 L64.0495242,0 C65.7063785,0 67.0495242,1.34314575 67.0495242,3 C67.0495242,4.65685425 65.7063785,6 64.0495242,6 L41.157133,6 Z M41.157133,26.3503819 C39.5002788,26.3503819 38.157133,25.0072362 38.157133,23.3503819 C38.157133,21.6935277 39.5002788,20.3503819 41.157133,20.3503819 L64.0495242,20.3503819 C65.7063785,20.3503819 67.0495242,21.6935277 67.0495242,23.3503819 C67.0495242,25.0072362 65.7063785,26.3503819 64.0495242,26.3503819 L41.157133,26.3503819 Z M41.157133,46.7006684 C39.5002788,46.7006684 38.157133,45.3575227 38.157133,43.7006684 C38.157133,42.0438142 39.5002788,40.7006684 41.157133,40.7006684 L64.0495242,40.7006684 C65.7063785,40.7006684 67.0495242,42.0438142 67.0495242,43.7006684 C67.0495242,45.3575227 65.7063785,46.7006684 64.0495242,46.7006684 L41.157133,46.7006684 Z" id="Combined-Shape"></path>
                </g>
            </g>
        </g>
    </g>
</svg>