<?xml version="1.0" encoding="UTF-8"?>
<svg width="50px" height="70px" viewBox="0 0 50 70" version="1.1" xmlns="http://www.w3.org/2000/svg" xmlns:xlink="http://www.w3.org/1999/xlink">
    <!-- Generator: Sketch 52.4 (67378) - http://www.bohemiancoding.com/sketch -->
    <title>reorder</title>
    <desc>Created with Sketch.</desc>
    <g id="Page-1" stroke="none" stroke-width="1" fill="none" fill-rule="evenodd">
        <g id="Icons" transform="translate(-3188.000000, -243.000000)" fill="#000000" fill-rule="nonzero">
            <g id="Icons-with-stroke" transform="translate(233.000000, 227.000000)">
                <path d="M2988.5,72.6730769 C2988.5,74.2343434 2987.15685,75.5 2985.5,75.5 C2983.84315,75.5 2982.5,74.2343434 2982.5,72.6730769 L2982.5,29.3269231 C2982.5,27.7656566 2983.84315,26.5 2985.5,26.5 C2987.15685,26.5 2988.5,27.7656566 2988.5,29.3269231 L2988.5,72.6730769 Z M2978.5,72.6730769 C2978.5,74.2343434 2977.15685,75.5 2975.5,75.5 C2973.84315,75.5 2972.5,74.2343434 2972.5,72.6730769 L2972.5,29.3269231 C2972.5,27.7656566 2973.84315,26.5 2975.5,26.5 C2977.15685,26.5 2978.5,27.7656566 2978.5,29.3269231 L2978.5,72.6730769 Z M2997.41355,42.9727689 C2996.19548,41.9495611 2996.19548,40.2906136 2997.41355,39.2674058 C2998.63161,38.2441981 3000.60648,38.2441981 3001.82454,39.2674058 L3013.58645,49.1477552 C3014.80455,50.1709949 3014.80451,51.8300056 3013.58636,52.8532001 L3001.82444,62.7326761 C3000.60633,63.7558386 2998.63146,63.7557653 2997.41345,62.7325123 C2996.19544,61.7092593 2996.19553,60.0503118 2997.41364,59.0271493 L3006.96987,51.0003548 L2997.41355,42.9727689 Z M2962.58645,60.0272311 C2963.80452,61.0504389 2963.80452,62.7093864 2962.58645,63.7325942 C2961.36839,64.7558019 2959.39352,64.7558019 2958.17546,63.7325942 L2946.41355,53.8522448 C2945.19545,52.8290051 2945.19549,51.1699944 2946.41364,50.1467999 L2958.17556,40.2673239 C2959.39367,39.2441614 2961.36854,39.2442347 2962.58655,40.2674877 C2963.80456,41.2907407 2963.80447,42.9496882 2962.58636,43.9728507 L2953.03013,51.9996452 L2962.58645,60.0272311 Z" id="reorder" transform="translate(2980.000000, 51.000000) rotate(90.000000) translate(-2980.000000, -51.000000) "></path>
            </g>
        </g>
    </g>
</svg>