<?xml version="1.0" encoding="UTF-8"?>
<svg width="69px" height="68px" viewBox="0 0 69 68" version="1.1" xmlns="http://www.w3.org/2000/svg" xmlns:xlink="http://www.w3.org/1999/xlink">
    <!-- Generator: Sketch 52.4 (67378) - http://www.bohemiancoding.com/sketch -->
    <title>search</title>
    <desc>Created with Sketch.</desc>
    <g id="Page-1" stroke="none" stroke-width="1" fill="none" fill-rule="evenodd">
        <g id="Icons" transform="translate(-2827.000000, -494.000000)" fill="#000000" fill-rule="nonzero">
            <g id="Icons-(final)" transform="translate(230.000000, 472.000000)">
                <g id="search" transform="translate(2597.000000, 22.000000)">
                    <path d="M51.8846594,47.2755324 L67.4878067,62.8786797 C68.6593796,64.0502525 68.6593796,65.9497475 67.4878067,67.1213203 C66.3162338,68.2928932 64.4167389,68.2928932 63.245166,67.1213203 L47.6420187,51.5181731 C42.654413,55.5709966 36.2941745,58 29.3664863,58 C13.3499284,58 0.366486348,45.016558 0.366486348,29 C0.366486348,12.9840896 13.3502438,0 29.3664863,0 C45.3827289,0 58.3664863,12.9840896 58.3664863,29 C58.3664863,35.9276881 55.937483,42.2879267 51.8846594,47.2755324 Z M52.3664863,29 C52.3664863,16.2977637 42.068986,6 29.3664863,6 C16.6639866,6 6.36648635,16.2977637 6.36648635,29 C6.36648635,41.7028495 16.6636369,52 29.3664863,52 C42.0693358,52 52.3664863,41.7028495 52.3664863,29 Z" id="Combined-Shape"></path>
                </g>
            </g>
        </g>
    </g>
</svg>