<?xml version="1.0" encoding="UTF-8"?>
<svg width="67px" height="68px" viewBox="0 0 67 68" version="1.1" xmlns="http://www.w3.org/2000/svg" xmlns:xlink="http://www.w3.org/1999/xlink">
    <!-- Generator: Sketch 52.4 (67378) - http://www.bohemiancoding.com/sketch -->
    <title>share</title>
    <desc>Created with Sketch.</desc>
    <g id="Page-1" stroke="none" stroke-width="1" fill="none" fill-rule="evenodd">
        <g id="Icons" transform="translate(-1655.000000, -494.000000)" fill="#000000" fill-rule="nonzero">
            <g id="Icons-(final)" transform="translate(230.000000, 472.000000)">
                <g id="share" transform="translate(1424.416011, 22.000000)">
                    <path d="M24.7122378,44.9027948 C22.1999719,47.6748036 18.5709247,49.4159292 14.5353385,49.4159292 C6.95223806,49.4159292 0.804569231,43.2682604 0.804569231,35.68516 C0.804569231,28.1013939 6.95194984,21.9543908 14.5353385,21.9543908 C18.8395388,21.9543908 22.681129,23.9346487 25.1986493,27.033912 L40.2528415,18.1817455 C39.8761943,16.9284178 39.6738,15.5996604 39.6738,14.2236215 C39.6738,6.63956729 45.820515,0.492852308 53.4045692,0.492852308 C60.9879578,0.492852308 67.1353385,6.63985548 67.1353385,14.2236215 C67.1353385,21.8067219 60.9876696,27.9543908 53.4045692,27.9543908 C49.3533374,27.9543908 45.7121108,26.2001288 43.1989311,23.4098191 L27.875618,32.4202342 C28.1308171,33.4666705 28.2661077,34.5601052 28.2661077,35.68516 C28.2661077,37.0763389 28.0591971,38.4192058 27.674472,39.6846646 L41.2335728,47.2008553 C43.5277951,42.8209238 48.116958,39.83252 53.4045692,39.83252 C60.9876696,39.83252 67.1353385,45.9801888 67.1353385,53.5632892 C67.1353385,61.1463896 60.9876696,67.2940585 53.4045692,67.2940585 C45.8208032,67.2940585 39.6738,61.1466778 39.6738,53.5632892 C39.6738,53.4414954 39.6753856,53.3200721 39.6785372,53.1990386 L24.7122378,44.9027948 Z M46.585938,17.8700055 C46.5961364,17.8866129 46.6061978,17.9033536 46.6161197,17.9202271 C46.649953,17.9777646 46.6816491,18.0359683 46.711232,18.0947458 C48.0486354,20.4023564 50.5451701,21.9543908 53.4045692,21.9543908 C57.6739611,21.9543908 61.1353385,18.4930134 61.1353385,14.2236215 C61.1353385,9.95364645 57.6743318,6.49285231 53.4045692,6.49285231 C49.1342235,6.49285231 45.6738,9.95327579 45.6738,14.2236215 C45.6738,15.5422609 46.0038809,16.7837634 46.585938,17.8700055 Z M21.6176651,32.5808091 C21.5392908,32.44411 21.4728649,32.303767 21.4180704,32.1610014 C20.1367027,29.6632825 17.5356968,27.9543908 14.5353385,27.9543908 C10.2655759,27.9543908 6.80456923,31.4151849 6.80456923,35.68516 C6.80456923,39.9545519 10.2659466,43.4159292 14.5353385,43.4159292 C18.8047304,43.4159292 22.2661077,39.9545519 22.2661077,35.68516 C22.2661077,34.5809833 22.0346728,33.530916 21.6176651,32.5808091 Z M61.1353385,53.5632892 C61.1353385,49.2938973 57.6739611,45.83252 53.4045692,45.83252 C49.1345941,45.83252 45.6738,49.2935266 45.6738,53.5632892 C45.6738,57.8330518 49.1345941,61.2940585 53.4045692,61.2940585 C57.6739611,61.2940585 61.1353385,57.8326811 61.1353385,53.5632892 Z" id="Combined-Shape"></path>
                </g>
            </g>
        </g>
    </g>
</svg>