<?xml version="1.0" encoding="UTF-8"?>
<svg width="58px" height="70px" viewBox="0 0 58 70" version="1.1" xmlns="http://www.w3.org/2000/svg" xmlns:xlink="http://www.w3.org/1999/xlink">
    <!-- Generator: Sketch 52.5 (67469) - http://www.bohemiancoding.com/sketch -->
    <title>task_list</title>
    <desc>Created with Sketch.</desc>
    <g id="Page-1" stroke="none" stroke-width="1" fill="none" fill-rule="evenodd">
        <g id="Icons" transform="translate(-3562.000000, -494.000000)" fill="#000000" fill-rule="nonzero">
            <g id="Icons-(final)" transform="translate(50.000000, 244.000000)">
                <g id="task_list" transform="translate(3512.076118, 250.000000)">
                    <path d="M12.4212901,51.1746176 C12.2789318,51.3405636 12.1789444,51.5303645 12.1213312,51.7298167 L12.4212902,51.1746174 Z M28.8379949,39.0098808 L28.8333779,39 L28.8420582,38.9843129 C29.0261609,37.8595029 29.875898,36.9878874 30.9362593,36.9835936 L44.9493564,36.9835977 C46.1443611,36.9884301 47.073312,38.0987158 47.0785939,39.4332811 L47.0785926,39.5167572 C47.0755712,40.8511105 46.1456375,41.9640849 44.9473344,41.9679686 L30.9346378,41.967966 C29.7379563,41.9640849 28.8080227,40.8511105 28.805,39.515625 L28.8050013,39.436135 C28.8053293,39.2910559 28.8166088,39.1485911 28.8379949,39.0098808 Z M13.9379697,6.86304689 L13.9379717,5.81272208 C13.9432995,4.27382546 15.1899718,3.02787549 16.7303125,3.0234375 L21.0772656,3.0234375 C21.0945245,3.0234375 21.1085156,3.00944641 21.1085156,2.9921875 L21.1085188,2.48173328 C21.112417,1.38817993 21.9984681,0.5029214 23.0933594,0.5 L35.1815239,0.500004959 C36.2736946,0.504869506 37.1575948,1.38956179 37.1614845,2.48351563 L37.1614845,2.9921875 C37.1614845,3.00944641 37.1754755,3.0234375 37.1927345,3.0234375 L41.545115,3.02343958 C43.0839089,3.02788057 44.3302446,4.27421621 44.3346875,5.81445311 L44.3346875,6.86304697 L55.8037731,6.86304872 C56.8913257,6.8659876 57.7716801,7.74793261 57.7726561,8.8359375 L57.7726541,66.0675646 C57.7675145,67.9128252 56.2733684,69.4076687 54.4264845,69.413672 L3.84587547,69.4136693 C2.00049014,69.4076735 0.505998369,67.9131818 0.5,66.066172 L0.500002639,10.2089224 C0.505998369,8.36353704 2.00049015,6.86904526 3.8475,6.86304689 L13.9379697,6.86304689 Z M13.9379688,11.8474219 L6.36164061,11.8474219 C5.87714018,11.8474219 5.484375,12.2401871 5.484375,12.7246875 L5.484375,63.5546875 C5.484375,64.039188 5.87714012,64.431953 6.36164061,64.431953 L51.9148804,64.4319551 C52.3979866,64.4305564 52.7887497,64.0382802 52.7882811,63.5546875 L52.7882817,11.8474219 L44.3346869,11.8474219 L44.3346854,13.14316 C44.3302496,14.6820594 43.0842996,15.9287317 41.543672,15.9340625 L16.7288703,15.9340604 C15.1893422,15.9296199 13.9424114,14.6826891 13.9379688,13.1417188 L13.9379688,11.8474219 Z M30.9362593,30.5421094 C29.739635,30.5382416 28.8102873,29.4282382 28.805,28.09375 L28.8050013,28.0102757 C28.8080185,26.6758435 29.7375544,25.5625882 30.9362593,25.5577344 L44.9493608,25.5577385 C46.1460393,25.5625882 47.075575,26.6758433 47.0785939,28.0114063 L47.0785926,28.0908978 C47.0755712,29.425251 46.1456376,30.5382253 44.9473344,30.5421094 L30.9362593,30.5421094 Z M11.7859809,29.7293872 C10.8415111,28.7515054 10.8550183,27.1971134 11.8163393,26.2357924 C12.7776602,25.2744715 14.3320523,25.2609642 15.309934,26.205434 L15.3154557,26.2108503 L16.0070034,26.8997618 L19.0020191,23.9024653 C19.9799008,22.9579955 21.5342929,22.9715027 22.4956138,23.9328237 C23.4569348,24.8941446 23.470442,26.4485367 22.5198815,27.4326159 L17.7611562,32.1913412 C16.7879574,33.1642461 15.210402,33.1642461 14.2371498,32.1912878 C14.2002879,32.154426 14.1748022,32.1260804 14.1288939,32.0724063 L11.7859809,29.7293872 Z M30.9362593,54.7139845 C29.739635,54.7101165 28.8102873,53.600113 28.805,52.265625 L28.8050013,52.1821509 C28.8080185,50.8477185 29.7375543,49.7344634 30.9362593,49.7296095 L44.9493608,49.7296136 C46.1460394,49.7344634 47.075575,50.8477183 47.0785939,52.1832814 L47.0785926,52.2627727 C47.0755712,53.597126 46.1456377,54.7101003 44.9473344,54.7139845 L30.9362593,54.7139845 Z M18.9956812,48.0805716 L19.002019,48.0743404 C19.9799007,47.1298704 21.5342928,47.1433775 22.4956138,48.1046986 C23.4569348,49.0660195 23.470442,50.6204117 22.5198815,51.6044909 L17.7611562,56.3632162 C16.7879574,57.3361212 15.210402,57.3361212 14.2371503,56.3631634 C14.2002891,56.3263023 14.1748039,56.2979574 14.1288974,56.2442855 L11.791905,53.9072931 C10.8188548,52.933325 10.8195986,51.3549554 11.7935664,50.3819051 C12.7675341,49.4088547 14.3459041,49.4095985 15.3185624,50.3831744 L16.0074468,51.0711812 L18.9956812,48.0805716 Z M18.9223438,8.0390625 L18.9210156,10.9210938 C18.9210156,10.9383526 18.9350067,10.9523438 18.9522656,10.9523438 L39.3217186,10.9523438 C39.3389775,10.9523438 39.3529686,10.9383527 39.3529686,10.9210938 L39.3529686,8.0390625 C39.3529686,8.02180359 39.3389775,8.0078125 39.3217186,8.0078125 L33.2123438,8.0078125 C32.6428001,8.0078125 32.1810938,7.54610614 32.1810938,6.9765625 L32.1810938,5.515625 C32.1810938,5.49836611 32.1671026,5.484375 32.1498438,5.484375 L26.1254688,5.484375 C26.1082099,5.484375 26.0942188,5.49836611 26.0942188,5.515625 L26.0942188,6.9765625 C26.0942188,7.54610614 25.6325124,8.0078125 25.0629688,8.0078125 L18.9535938,8.0078125 C18.9363349,8.0078125 18.9223438,8.02180361 18.9223438,8.0390625 Z M18.995875,35.3303777 C19.9690738,34.3574726 21.5466293,34.3574726 22.5198281,35.3303777 C23.4928399,36.3036833 23.4928399,37.8812387 22.5198815,38.8544909 L17.7611562,43.6132162 C16.7879574,44.5861212 15.210402,44.5861212 14.2371483,43.6131614 C14.1969214,43.5729342 14.1702384,43.5428449 14.1428528,43.5082409 L11.7859809,41.151262 C10.8415111,40.1733802 10.8550183,38.6189885 11.8163393,37.6576675 C12.7776602,36.6963465 14.3320522,36.6828392 15.3159061,37.6331744 L16.004931,38.3213215 L18.995875,35.3303777 Z" id="Combined-Shape"></path>
                </g>
            </g>
        </g>
    </g>
</svg>