<?xml version="1.0" encoding="UTF-8"?>
<svg width="70px" height="67px" viewBox="0 0 70 67" version="1.1" xmlns="http://www.w3.org/2000/svg" xmlns:xlink="http://www.w3.org/1999/xlink">
    <!-- Generator: Sketch 52.5 (67469) - http://www.bohemiancoding.com/sketch -->
    <title>template</title>
    <desc>Created with Sketch.</desc>
    <g id="Page-1" stroke="none" stroke-width="1" fill="none" fill-rule="evenodd">
        <g id="Icons" transform="translate(-2879.000000, -495.000000)" fill="#000000">
            <g id="Icons-(final)" transform="translate(50.000000, 244.000000)">
                <path d="M2893,312 L2893,288 L2880,288 L2880,312 L2893,312 Z M2899,315 C2899,316.656854 2897.65685,318 2896,318 L2877,318 C2875.34315,318 2874,316.656854 2874,315 L2874,285 C2874,283.343146 2875.34315,282 2877,282 L2896,282 C2897.65685,282 2899,283.343146 2899,285 L2899,315 Z M2899,254 L2899,274 C2899,275.656854 2897.65685,277 2896,277 L2877,277 C2875.34315,277 2874,275.656854 2874,274 L2874,254 C2874,252.343146 2875.34315,251 2877,251 L2896,251 C2897.65685,251 2899,252.343146 2899,254 Z M2893,257 L2880,257 L2880,271 L2893,271 L2893,257 Z M2835,312 L2862,312 L2862,257 L2835,257 L2835,312 Z M2832,318 C2830.34315,318 2829,316.656854 2829,315 L2829,254 C2829,252.343146 2830.34315,251 2832,251 L2865,251 C2866.65685,251 2868,252.343146 2868,254 L2868,315 C2868,316.656854 2866.65685,318 2865,318 L2832,318 Z" id="template"></path>
            </g>
        </g>
    </g>
</svg>