<?xml version="1.0" encoding="UTF-8"?>
<svg width="70px" height="70px" viewBox="0 0 70 70" version="1.1" xmlns="http://www.w3.org/2000/svg" xmlns:xlink="http://www.w3.org/1999/xlink">
    <!-- Generator: Sketch 52.5 (67469) - http://www.bohemiancoding.com/sketch -->
    <title>time</title>
    <desc>Created with Sketch.</desc>
    <g id="Page-1" stroke="none" stroke-width="1" fill="none" fill-rule="evenodd">
        <g id="Icons" transform="translate(-3900.000000, -492.000000)" fill="#000000" fill-rule="nonzero">
            <g id="Icons-(final)" transform="translate(50.000000, 244.000000)">
                <path d="M3888,283.757359 L3897.26346,293.020815 C3898.43503,294.192388 3898.43503,296.091883 3897.26346,297.263456 C3896.09188,298.435029 3894.19239,298.435029 3893.02082,297.263456 L3883.12132,287.363961 C3883.08048,287.323125 3883.04107,287.281405 3883.00308,287.238862 C3882.38754,286.689457 3882,285.889986 3882,285 L3882,269 C3882,267.343146 3883.34315,266 3885,266 C3886.65685,266 3888,267.343146 3888,269 L3888,283.757359 Z M3914,283 C3914,266.983854 3901.01615,254 3885,254 C3868.98385,254 3856,266.983854 3856,283 C3856,299.016146 3868.98385,312 3885,312 C3901.01615,312 3914,299.016146 3914,283 Z M3920,283 C3920,302.329854 3904.32985,318 3885,318 C3865.67015,318 3850,302.329854 3850,283 C3850,263.670146 3865.67015,248 3885,248 C3904.32985,248 3920,263.670146 3920,283 Z" id="time"></path>
            </g>
        </g>
    </g>
</svg>