<?xml version="1.0" encoding="UTF-8"?>
<svg width="53px" height="70px" viewBox="0 0 53 70" version="1.1" xmlns="http://www.w3.org/2000/svg" xmlns:xlink="http://www.w3.org/1999/xlink">
    <!-- Generator: Sketch 52.5 (67469) - http://www.bohemiancoding.com/sketch -->
    <title>upload</title>
    <desc>Created with Sketch.</desc>
    <g id="Page-1" stroke="none" stroke-width="1" fill="none" fill-rule="evenodd">
        <g id="Icons" transform="translate(-50.000000, -493.000000)" fill="#000000" fill-rule="nonzero">
            <g id="Icons-(final)" transform="translate(50.000000, 244.000000)">
                <path d="M22.6287719,259.410476 L16.4678196,265.571156 C15.263533,266.775389 13.3110419,266.775346 12.1068086,265.571059 C10.9025753,264.366773 10.9026184,262.414282 12.1069049,261.210048 L23.4143063,249.903147 C24.6185929,248.698913 26.571084,248.698957 27.7753173,249.903243 L39.0817192,261.210145 C40.2859525,262.414431 40.2859093,264.366922 39.0816228,265.571156 C37.8773362,266.775389 35.9248451,266.775346 34.7206118,265.571059 L28.7961728,259.646359 L28.7961728,296.638032 C28.7961728,298.341113 27.4155531,299.721733 25.7124724,299.721733 C24.0093917,299.721733 22.6287719,298.341113 22.6287719,296.638032 L22.6287719,259.410476 Z M49.9041023,312.832599 C51.6071831,312.832599 52.9878028,314.213219 52.9878028,315.9163 C52.9878028,317.61938 51.6071831,319 49.9041023,319 L3.64859573,319 C1.945515,319 0.56489529,317.61938 0.56489529,315.9163 C0.56489529,314.213219 1.945515,312.832599 3.64859573,312.832599 L49.9041023,312.832599 Z" id="upload"></path>
            </g>
        </g>
    </g>
</svg>