<?xml version="1.0" encoding="UTF-8"?>
<svg width="25px" height="18px" viewBox="0 0 25 18" version="1.1" xmlns="http://www.w3.org/2000/svg" xmlns:xlink="http://www.w3.org/1999/xlink">
    <!-- Generator: Sketch 52.2 (67145) - http://www.bohemiancoding.com/sketch -->
    <title>arrow</title>
    <desc>Created with Sketch.</desc>
    <g id="Landing-page" stroke="none" stroke-width="1" fill="none" fill-rule="evenodd">
        <g id="Home" transform="translate(-751.000000, -875.000000)" fill="#D7DDE2">
            <g id="Header">
                <g id="Manage" transform="translate(405.000000, 689.000000)">
                    <path d="M365.577426,196.379209 L347.5,196.379209 C346.671573,196.379209 346,195.707636 346,194.879209 C346,194.050782 346.671573,193.379209 347.5,193.379209 L365.850821,193.379209 L360.632667,188.186189 C360.132667,187.688598 360.130714,186.87989 360.628306,186.37989 C360.629756,186.378433 360.63121,186.376979 360.632667,186.375529 C361.135796,185.874824 361.948962,185.874824 362.452091,186.375529 L369.729787,193.61817 C370.036797,193.923702 370.156033,194.346532 370.087147,194.74317 C370.156033,195.139808 370.036797,195.562638 369.729787,195.86817 L362.452091,203.110811 C361.948962,203.611516 361.135796,203.611516 360.632667,203.110811 C360.63121,203.10936 360.629756,203.107907 360.628306,203.10645 C360.130714,202.60645 360.132667,201.797742 360.632667,201.30015 L365.577426,196.379209 Z" id="arrow"></path>
                </g>
            </g>
        </g>
    </g>
</svg>