<?xml version="1.0" encoding="UTF-8"?>
<svg width="20px" height="20px" viewBox="0 0 20 20" version="1.1" xmlns="http://www.w3.org/2000/svg" xmlns:xlink="http://www.w3.org/1999/xlink">
    <!-- Generator: Sketch 52.4 (67378) - http://www.bohemiancoding.com/sketch -->
    <title>Combined Shape</title>
    <desc>Created with Sketch.</desc>
    <g id="Landing-page" stroke="none" stroke-width="1" fill="none" fill-rule="evenodd">
        <g id="Home" transform="translate(-1435.000000, -1920.000000)" fill="#000000">
            <g id="We-got-all-the-key-features" transform="translate(372.000000, 1180.000000)">
                <g id="browser" transform="translate(318.000000, 270.000000)">
                    <g id="full-screen" transform="translate(725.000000, 450.000000)">
                        <path d="M26.7609248,21.0853953 C27.1691899,21.0853953 27.5,21.4163458 27.5,21.8244655 L27.5,26.7608313 C27.5,27.1690495 27.1691899,27.5 26.7609248,27.5 L21.8249862,27.5 C21.416721,27.5 21.0859109,27.1690495 21.0859109,26.7608313 C21.0859109,26.352613 21.4168195,26.0216626 21.8249862,26.0216626 L24.9768957,26.0216626 L20.2165614,21.2618103 C19.9278293,20.9732388 19.9278293,20.5051972 20.2164628,20.2165272 C20.3607303,20.0721429 20.5499336,20 20.7391368,20 C20.9282415,20 21.1173463,20.0721429 21.2617123,20.2164286 L26.0218495,24.9761823 L26.0218495,21.8245641 C26.0218495,21.4163458 26.3526596,21.0853953 26.7609248,21.0853953 Z M33.2249981,38.7908417 C32.8246592,38.7908417 32.5000967,38.4662666 32.5,38.0659122 L32.5,33.2249295 C32.5,32.8245751 32.8244659,32.5 33.2249015,32.5 L38.0658903,32.5 C38.4663259,32.5 38.7907918,32.8245751 38.7907918,33.2249295 C38.7907918,33.6252839 38.4663259,33.949859 38.0658903,33.949859 L34.9752003,33.949859 L39.7876764,38.7625211 C40.0707745,39.0455336 40.0707745,39.504559 39.7876764,39.7876681 C39.5045782,40.0707773 39.0456672,40.0707773 38.7624723,39.7876681 L33.9498996,34.9749094 L33.9498996,38.0659122 C33.9498996,38.4662666 33.6254337,38.7908417 33.2249981,38.7908417 Z M21.2376133,39.7876619 C20.9543961,40.0707633 20.4953522,40.0707633 20.212425,39.7877585 C19.9292078,39.5046571 19.9292078,39.0456443 20.2123283,38.7625429 L25.0248943,33.9498193 L21.9338636,33.9498193 C21.5333964,33.9498193 21.2089049,33.6252531 21.2089049,33.2249097 C21.2089049,32.8245662 21.5334931,32.5 21.9338636,32.5 L26.7750413,32.5 C27.1755085,32.5 27.5,32.8245662 27.5,33.2249097 L27.5,38.0659531 C27.5,38.4662965 27.1755085,38.7908628 26.7750413,38.7908628 C26.3745741,38.7908628 26.0500826,38.4662965 26.0500826,38.0659531 L26.0500826,34.9751316 L21.2376133,39.7876619 Z M33.2392321,27.5 C32.8310333,27.5 32.5000986,27.1691698 32.5,26.7608798 L32.5,21.8249369 C32.5,21.4167455 32.8308362,21.0858168 33.2391335,21.0858168 C33.6474309,21.0858168 33.978267,21.4167455 33.978267,21.8249369 L33.978267,24.9765453 L38.7380897,20.2165129 C38.8824671,20.0722367 39.0716853,20 39.2608049,20 C39.4499245,20 39.6391427,20.0721381 39.7834216,20.2164144 C40.0721764,20.5050654 40.0721764,20.9730763 39.7835201,21.2617274 L35.0236974,26.0217597 L38.1752642,26.0217597 C38.5835615,26.0217597 38.9143977,26.3526884 38.9143977,26.7608798 C38.9143977,27.1690713 38.5835615,27.5 38.1752642,27.5 L33.2392321,27.5 Z" id="Combined-Shape"></path>
                    </g>
                </g>
            </g>
        </g>
    </g>
</svg>