<?xml version="1.0" encoding="UTF-8"?>
<svg width="17px" height="30px" viewBox="0 0 17 30" version="1.1" xmlns="http://www.w3.org/2000/svg" xmlns:xlink="http://www.w3.org/1999/xlink">
    <!-- Generator: Sketch 52.5 (67469) - http://www.bohemiancoding.com/sketch -->
    <title>mobile0</title>
    <desc>Created with Sketch.</desc>
    <g id="Landing-page" stroke="none" stroke-width="1" fill="none" fill-rule="evenodd">
        <g id="Home" transform="translate(-1037.000000, -4082.000000)" fill="#000000">
            <g id="We-got-all-the-key-features" transform="translate(372.000000, 3919.000000)">
                <g id="tabs" transform="translate(464.000000, 146.000000)">
                    <g id="mobile0" transform="translate(201.000000, 17.000000)">
                        <path d="M12.5730994,0 L3.43859649,0 C1.53476739,0.0138215782 -0.00101448588,1.56161808 4.97677385e-17,3.46549708 L4.97677385e-17,26.5210526 C-0.00133394188,28.4250631 1.53463343,29.9730466 3.43859649,29.9865497 L12.5730994,29.9865497 C14.4768337,29.9727267 16.0124472,28.4248367 16.0111111,26.5210526 L16.0111111,3.46549708 C16.0124472,1.56171304 14.4768337,0.0138230256 12.5730994,0 Z M3.43859649,1.84502924 L12.5730994,1.84502924 C13.4646969,1.84857541 14.1847837,2.57389729 14.1818713,3.46549708 L14.1818801,24.4502924 L1.82923282,24.4502924 L1.82923977,3.46549708 C1.82665145,2.57357489 2.54726117,1.84825359 3.43918129,1.84502924 L3.43859649,1.84502924 Z M12.5730994,28.1415205 L3.43859649,28.1415205 C3.01037197,28.1401269 2.60024027,27.9686776 2.29842685,27.6648901 C1.99661342,27.3611026 1.82784161,26.9498619 1.82923977,26.5216374 L1.82923115,26.2964912 L14.1836343,26.2964912 L14.1836257,26.5216374 C14.1850236,26.950064 14.0160914,27.3614816 13.7140252,27.6653027 C13.411959,27.9691239 13.0015269,28.1404365 12.5730994,28.1415205 Z" id="Shape" fill-rule="nonzero"></path>
                        <path d="M10.8654971,11.6789474 L6.43684211,16.1467836 C6.26859925,16.3177708 6.03930074,16.4148871 5.7994283,16.4167516 C5.55955586,16.4186162 5.32877534,16.3250762 5.15789474,16.1567251 L5.14795322,16.1467836 C4.79131253,15.7870586 4.79131253,15.2070935 5.14795322,14.8473684 L9.57660819,10.3795322 C9.74294203,10.2085226 9.97040126,10.1106 10.2089393,10.1073099 C10.4474773,10.1040197 10.6775508,10.1956314 10.848538,10.3619883 L10.8660819,10.3795322 C11.2225607,10.7394177 11.2222997,11.3193829 10.8654971,11.6789474 Z" id="Path"></path>
                    </g>
                </g>
            </g>
        </g>
    </g>
</svg>