<?xml version="1.0" encoding="UTF-8"?>
<svg width="28px" height="30px" viewBox="0 0 28 30" version="1.1" xmlns="http://www.w3.org/2000/svg" xmlns:xlink="http://www.w3.org/1999/xlink">
    <!-- Generator: Sketch 52.2 (67145) - http://www.bohemiancoding.com/sketch -->
    <title>shopping-cart</title>
    <desc>Created with Sketch.</desc>
    <g id="Landing-page" stroke="none" stroke-width="1" fill="none" fill-rule="evenodd">
        <g id="Home" transform="translate(-1315.000000, -3342.000000)" fill="#0DCCBE" stroke="#0DCCBE">
            <g id="Try-kanbansi-now" transform="translate(534.000000, 2946.000000)">
                <g id="Plans" transform="translate(97.000000, 206.000000)">
                    <g id="Free" transform="translate(359.000000, 0.000000)">
                        <g id="cart" transform="translate(299.000000, 165.000000)">
                            <g id="shopping-cart" transform="translate(27.000000, 26.000000)">
                                <path d="M13.9136907,12.6060619 C14.0464742,12.7388454 14.2254433,12.8081237 14.4044124,12.8081237 C14.5833814,12.8081237 14.7565773,12.7388454 14.895134,12.6060619 L19.1615258,8.3396701 C19.432866,8.0683299 19.432866,7.62956701 19.1615258,7.3582268 C18.8901856,7.0868866 18.4514227,7.0868866 18.1800825,7.3582268 L14.4044124,11.1396701 L12.8802887,9.61554639 C12.6089485,9.34420619 12.1701856,9.34420619 11.8988454,9.61554639 C11.6275052,9.8868866 11.6275052,10.3256495 11.8988454,10.5969897 L13.9136907,12.6060619 Z" id="Path"></path>
                                <path d="M7.38997938,18.3792577 L22.9141031,18.3792577 C24.6287423,18.3792577 26.0200825,16.9821443 26.0200825,15.2732784 L26.0200825,8.73224742 C26.0200825,8.35121649 25.7083299,8.03946392 25.327299,8.03946392 C24.946268,8.03946392 24.6345155,8.35121649 24.6345155,8.73224742 L24.6345155,15.2675052 C24.6345155,16.2200825 23.8609072,16.9879175 22.9141031,16.9879175 L7.38997938,16.9879175 C6.43740206,16.9879175 5.66956701,16.2143093 5.66956701,15.2675052 L5.66956701,11.4167835 L5.66956701,7.10997938 L5.66956701,6.54997938 L5.66956701,2.49719588 C5.66956701,2.47410309 5.66956701,2.44523711 5.66379381,2.42214433 C5.66379381,2.41637113 5.66379381,2.41059794 5.66379381,2.40482474 C5.66379381,2.38750515 5.65802062,2.37018557 5.65802062,2.35863918 C5.65802062,2.34709278 5.65224742,2.3297732 5.64647423,2.3182268 C5.64647423,2.31245361 5.64070103,2.30090722 5.64070103,2.29513402 C5.63492784,2.27781443 5.62915464,2.26626804 5.62338144,2.24894845 C5.62338144,2.24317526 5.61760825,2.23740206 5.61760825,2.23162887 C5.61183505,2.22008247 5.60606186,2.20276289 5.60028866,2.19121649 C5.59451546,2.1854433 5.59451546,2.17389691 5.58874227,2.16812371 C5.58296907,2.15657732 5.57719588,2.14503093 5.57142268,2.13348454 C5.56564948,2.12193814 5.55987629,2.11616495 5.55410309,2.10461856 C5.5483299,2.09884536 5.5425567,2.08729897 5.53678351,2.08152577 C5.53101031,2.06997938 5.51946392,2.05843299 5.51369072,2.05265979 C5.50791753,2.0468866 5.50214433,2.0411134 5.49637113,2.03534021 C5.48482474,2.02379381 5.47905155,2.01224742 5.46750515,2.00070103 C5.46173196,1.99492784 5.45595876,1.98915464 5.45018557,1.98915464 C5.43863918,1.97760825 5.42709278,1.96606186 5.41554639,1.96028866 C5.4097732,1.95451546 5.404,1.94874227 5.3982268,1.94296907 C5.38668041,1.93719588 5.37513402,1.92564948 5.36358763,1.91987629 C5.35204124,1.9083299 5.33472165,1.9025567 5.32317526,1.89101031 C5.31740206,1.89101031 5.31162887,1.88523711 5.31162887,1.87946392 C5.28853608,1.86791753 5.2654433,1.85637113 5.24235052,1.84482474 L0.975958763,0.0551340206 C0.623793814,-0.0949690722 0.219670103,0.0724536082 0.0695670103,0.424618557 C-0.0805360825,0.771010309 0.0868865979,1.18090722 0.439051546,1.33101031 L4.2782268,2.95327835 L4.2782268,6.54997938 L4.2782268,7.10997938 L4.2782268,11.4167835 L4.2782268,15.2675052 L4.2782268,20.1343093 C4.2782268,21.7623505 5.53101031,23.0959588 7.12441237,23.2287423 C6.8011134,23.7136907 6.61059794,24.2967835 6.61059794,24.9260619 C6.61059794,26.6176082 7.99039175,27.9974021 9.68193814,27.9974021 C11.3734845,27.9974021 12.7532784,26.6176082 12.7532784,24.9260619 C12.7532784,24.3025567 12.5685361,23.7252371 12.2510103,23.2402887 L19.6002887,23.2402887 C19.2827629,23.7252371 19.0980206,24.3025567 19.0980206,24.9260619 C19.0980206,26.6176082 20.4778144,27.9974021 22.1693608,27.9974021 C23.8609072,27.9974021 25.240701,26.6176082 25.240701,24.9260619 C25.240701,23.2345155 23.8609072,21.8547216 22.1693608,21.8547216 L7.38997938,21.8547216 C6.43740206,21.8547216 5.66956701,21.0811134 5.66956701,20.1343093 L5.66956701,17.8538969 C6.16028866,18.1829691 6.75492784,18.3792577 7.38997938,18.3792577 Z M11.3677113,24.9260619 C11.3677113,25.8555464 10.6114227,26.6118351 9.68193814,26.6118351 C8.75245361,26.6118351 7.99616495,25.8555464 7.99616495,24.9260619 C7.99616495,23.9965773 8.75245361,23.2402887 9.68193814,23.2402887 C10.6114227,23.2402887 11.3677113,23.9965773 11.3677113,24.9260619 Z M23.8493608,24.9260619 C23.8493608,25.8555464 23.0930722,26.6118351 22.1635876,26.6118351 C21.2341031,26.6118351 20.4778144,25.8555464 20.4778144,24.9260619 C20.4778144,23.9965773 21.2341031,23.2402887 22.1635876,23.2402887 C23.0930722,23.2402887 23.8493608,23.9965773 23.8493608,24.9260619 Z" id="Shape" fill-rule="nonzero"></path>
                            </g>
                        </g>
                    </g>
                </g>
            </g>
        </g>
    </g>
</svg>