<?xml version="1.0" encoding="UTF-8"?>
<svg width="30px" height="30px" viewBox="0 0 30 30" version="1.1" xmlns="http://www.w3.org/2000/svg" xmlns:xlink="http://www.w3.org/1999/xlink">
    <!-- Generator: Sketch 52.5 (67469) - http://www.bohemiancoding.com/sketch -->
    <title>web0</title>
    <desc>Created with Sketch.</desc>
    <g id="Landing-page" stroke="none" stroke-width="1" fill="none" fill-rule="evenodd">
        <g id="Home" transform="translate(-866.000000, -4082.000000)" fill="#000000" fill-rule="nonzero">
            <g id="We-got-all-the-key-features" transform="translate(372.000000, 3919.000000)">
                <g id="tabs" transform="translate(464.000000, 146.000000)">
                    <g id="web0" transform="translate(30.000000, 17.000000)">
                        <path d="M25.5491228,4.94081709e-16 L4.4380117,4.94081709e-16 C1.99158429,0.00673327953 0.00931355446,1.98691439 0,4.43333333 L0,18.8637427 C0.00867386993,21.310523 1.99122446,23.2912449 4.4380117,23.2976608 L12.1146199,23.2976608 L12.1146199,28.1415205 L9.57602339,28.1415205 C9.06637115,28.1415205 8.65321637,28.5546752 8.65321637,29.0643275 C8.65321637,29.5739797 9.06637115,29.9871345 9.57602339,29.9871345 L20.4093567,29.9871345 C20.919009,29.9871345 21.3321637,29.5739797 21.3321637,29.0643275 C21.3321637,28.5546752 20.919009,28.1415205 20.4093567,28.1415205 L17.8719298,28.1415205 L17.8719298,23.2976608 L25.5491228,23.2976608 C27.9957774,23.2909257 29.9781416,21.3103901 29.9871345,18.8637427 L29.9871345,4.43333333 C29.9778209,1.98691439 27.9955502,0.00673327953 25.5491228,4.94081709e-16 Z M4.4380117,1.84502924 L25.5491228,1.84502924 C26.9780691,1.8463189 28.1361372,3.00438699 28.1374269,4.43333333 L28.1374269,15.454386 L1.84912281,15.454386 L1.84912281,4.43333333 C1.85073478,3.0042924 3.00897044,1.84631837 4.4380117,1.84502924 Z M16.0327485,28.1415205 L13.9538012,28.1415205 L13.9538012,23.2976608 L16.0327485,23.2976608 L16.0327485,28.1415205 Z M25.5491228,21.451462 L4.4380117,21.451462 C3.00879807,21.4511395 1.85009107,20.292956 1.84912281,18.8637427 L1.84912281,17.3005848 L28.1374269,17.3005848 L28.1374269,18.8637427 C28.1364589,20.2927278 26.9781081,21.4508169 25.5491228,21.451462 Z M16.0327485,19.3754386 C16.0343608,19.886056 15.6217316,20.3013007 15.1111142,20.3029147 C14.6004968,20.3045287 14.1852507,19.8919008 14.183635,19.3812834 C14.1820193,18.870666 14.5946458,18.4554186 15.1052632,18.4538012 L15.1134503,18.4538012 C15.3573647,18.4538011 15.5912805,18.5507358 15.7636992,18.7232641 C15.9361178,18.8957925 16.0329037,19.1297698 16.0327485,19.3736842 L16.0327485,19.3754386 Z" id="Shape"></path>
                        <path d="M12.9532164,6.96725146 L7.77777778,12.1479532 C7.41750079,12.5093606 6.83246003,12.510277 6.47105264,12.15 C6.10964526,11.789723 6.10872888,11.2046822 6.46900585,10.8432749 L11.6567251,5.6625731 C11.8897835,5.43045493 12.2289718,5.34030404 12.5465213,5.4260794 C12.8640707,5.51185476 13.1117378,5.76052505 13.1962289,6.07841858 C13.2807199,6.39631211 13.1891987,6.73513329 12.9561404,6.96725146 L12.9532164,6.96725146 Z M18.2111111,5.70877193 C17.8487063,5.34867361 17.2635744,5.34867361 16.9011696,5.70877193 L11.7233918,10.8906433 C11.3632763,11.2522122 11.3644545,11.8372529 11.7260234,12.1973684 C12.0875923,12.5574839 12.672633,12.5563057 13.0327485,12.1947368 L18.2111111,7.01403509 C18.570668,6.6532319 18.570668,6.06957512 18.2111111,5.70877193 Z M23.5187135,5.70877193 C23.1566407,5.34842148 22.5714294,5.34842148 22.2093567,5.70877193 L17.0309942,10.8906433 C16.857939,11.0635123 16.7607019,11.2980847 16.7607019,11.5426901 C16.7607019,11.7872954 16.857939,12.0218679 17.0309942,12.1947368 L17.0356725,12.1994152 C17.2079445,12.3705658 17.4411742,12.4662343 17.6840103,12.4653568 C17.9268465,12.4644794 18.1593787,12.3671279 18.3304094,12.1947368 L23.5181287,7.01403509 C23.8778472,6.65339301 23.8781087,6.06973619 23.5187135,5.70877193 Z" id="Shape"></path>
                    </g>
                </g>
            </g>
        </g>
    </g>
</svg>